<?xml version="1.0" standalone="no"?><!DOCTYPE svg PUBLIC "-//W3C//DTD SVG 1.1//EN" "http://www.w3.org/Graphics/SVG/1.1/DTD/svg11.dtd"><svg height="1024" node-id="1" sillyvg="true" template-height="1024" template-width="1024" version="1.1" viewBox="0 0 1024 1024" width="1024" xmlns="http://www.w3.org/2000/svg" xmlns:xlink="http://www.w3.org/1999/xlink"><defs node-id="63"><linearGradient gradientUnits="objectBoundingBox" id="linearGradient-1" node-id="5" spreadMethod="pad" x1="0.5" x2="0.5" y1="0" y2="1"><stop offset="0" stop-color="#f9fafc"></stop><stop offset="1" stop-color="#f0f2f5"></stop></linearGradient><linearGradient gradientUnits="objectBoundingBox" id="linearGradient-4" node-id="9" spreadMethod="pad" x1="0.5" x2="0.5" y1="-0.32501036" y2="1.4466056"><stop offset="0" stop-color="#fbfcfe"></stop><stop offset="1" stop-color="#ced6e5"></stop></linearGradient><linearGradient gradientUnits="objectBoundingBox" id="linearGradient-5" node-id="12" spreadMethod="pad" x1="0.079356186" x2="0.079356186" y1="0.22613585" y2="1"><stop offset="0" stop-color="#fcfdff"></stop><stop offset="1" stop-color="#f5f8ff"></stop></linearGradient><linearGradient gradientUnits="objectBoundingBox" id="linearGradient-6" node-id="15" spreadMethod="pad" x1="0" x2="1" y1="0.5" y2="0.5"><stop offset="0" stop-color="#596680"></stop><stop offset="1" stop-color="#8f9bb3"></stop></linearGradient><linearGradient gradientUnits="objectBoundingBox" id="linearGradient-7" node-id="18" spreadMethod="pad" x1="0.079356186" x2="0.079356186" y1="0.22613585" y2="1"><stop offset="0" stop-color="#fcfdff"></stop><stop offset="1" stop-color="#f5f8ff"></stop></linearGradient><linearGradient gradientUnits="objectBoundingBox" id="linearGradient-10" node-id="26" spreadMethod="pad" x1="0" x2="1" y1="0.5" y2="0.5"><stop offset="0" stop-color="#e9edf3"></stop><stop offset="1" stop-color="#cbd3e1"></stop></linearGradient><linearGradient gradientUnits="objectBoundingBox" id="linearGradient-11" node-id="29" spreadMethod="pad" x1="0" x2="1" y1="0.5" y2="0.5"><stop offset="0" stop-color="#e9edf3"></stop><stop offset="1" stop-color="#cbd3e1"></stop></linearGradient><linearGradient gradientUnits="objectBoundingBox" id="linearGradient-12" node-id="32" spreadMethod="pad" x1="0.054449525" x2="0.77649647" y1="0" y2="0.8797341"><stop offset="0" stop-color="#2f74ff"></stop><stop offset="1" stop-color="#0f5eff"></stop></linearGradient><filter height="1.675" id="filter-9" node-id="22" width="1.675" x="-0.338" y="-0.256"><feOffset color-interpolation-filters="linearRGB" dx="0" dy="43" in="SourceAlpha" result="shadowOffsetOuter1"></feOffset><feGaussianBlur color-interpolation-filters="linearRGB" in="shadowOffsetOuter1" result="shadowBlurOuter1" stdDeviation="57 57"></feGaussianBlur><feColorMatrix color-interpolation-filters="linearRGB" in="shadowBlurOuter1" result="result3" type="matrix" values="0 0 0 0 0.56 0 0 0 0 0.606666667 0 0 0 0 0.7 0 0 0 0.36166958 0"></feColorMatrix></filter></defs><g node-id="170"><path d="M 12.00 12.00 L 1012.00 12.00 L 1012.00 1012.00 L 12.00 1012.00 Z" fill="none" group-id="1" id="矩形" node-id="37" stroke="none" target-height="1000" target-width="1000" target-x="12" target-y="12"></path><g node-id="171"><path d="M 512.00 940.57 L 526.87 940.31 L 541.54 939.56 L 556.02 938.34 L 570.31 936.65 L 584.42 934.49 L 598.37 931.86 L 612.33 928.75 L 626.05 925.22 L 639.55 921.27 L 652.84 916.90 L 665.93 912.11 L 678.82 906.89 L 691.58 901.24 L 704.08 895.21 L 716.33 888.82 L 728.33 882.05 L 740.09 874.90 L 751.62 867.38 L 765.14 857.86 L 778.23 847.87 L 790.91 837.41 L 803.18 826.47 L 815.05 815.05 L 826.47 803.18 L 837.41 790.91 L 847.87 778.23 L 857.86 765.14 L 867.38 751.62 L 874.90 740.09 L 882.05 728.33 L 888.82 716.33 L 895.21 704.09 L 901.24 691.58 L 906.89 678.82 L 912.11 665.93 L 916.90 652.84 L 921.27 639.55 L 925.22 626.05 L 928.75 612.33 L 931.86 598.37 L 934.49 584.42 L 936.65 570.31 L 938.34 556.02 L 939.56 541.54 L 940.31 526.87 L 940.57 512.00 L 940.31 497.13 L 939.56 482.46 L 938.34 467.98 L 936.65 453.69 L 934.49 439.58 L 931.86 425.63 L 928.75 411.67 L 925.22 397.95 L 921.27 384.45 L 916.90 371.16 L 912.11 358.07 L 906.89 345.18 L 901.24 332.42 L 895.21 319.92 L 888.82 307.67 L 882.05 295.67 L 874.90 283.91 L 867.38 272.38 L 857.85 258.86 L 847.87 245.77 L 837.41 233.09 L 826.47 220.82 L 815.05 208.95 L 803.18 197.53 L 790.91 186.59 L 778.23 176.13 L 765.14 166.15 L 751.62 156.62 L 740.09 149.10 L 728.33 141.95 L 716.33 135.18 L 704.08 128.79 L 691.58 122.76 L 678.82 117.11 L 665.93 111.89 L 652.84 107.10 L 639.55 102.73 L 626.05 98.78 L 612.33 95.25 L 598.37 92.14 L 584.42 89.51 L 570.31 87.35 L 556.02 85.66 L 541.54 84.44 L 526.87 83.69 L 512.00 83.43 L 497.13 83.69 L 482.46 84.44 L 467.98 85.66 L 453.69 87.35 L 439.58 89.51 L 425.63 92.14 L 411.67 95.25 L 397.95 98.78 L 384.45 102.73 L 371.16 107.10 L 358.07 111.89 L 345.18 117.11 L 332.42 122.76 L 319.92 128.79 L 307.67 135.18 L 295.67 141.95 L 283.91 149.10 L 272.38 156.62 L 258.86 166.15 L 245.77 176.13 L 233.09 186.59 L 220.82 197.53 L 208.95 208.95 L 197.53 220.82 L 186.59 233.09 L 176.13 245.77 L 166.15 258.86 L 156.62 272.38 L 149.10 283.91 L 141.95 295.67 L 135.18 307.67 L 128.79 319.92 L 122.76 332.42 L 117.11 345.18 L 111.89 358.07 L 107.10 371.16 L 102.73 384.45 L 98.78 397.95 L 95.25 411.67 L 92.14 425.63 L 89.51 439.58 L 87.35 453.69 L 85.66 467.98 L 84.44 482.46 L 83.69 497.13 L 83.43 512.00 L 83.69 526.87 L 84.44 541.54 L 85.66 556.02 L 87.35 570.31 L 89.51 584.42 L 92.14 598.37 L 95.25 612.33 L 98.78 626.05 L 102.73 639.55 L 107.10 652.84 L 111.89 665.93 L 117.11 678.82 L 122.76 691.58 L 128.79 704.08 L 135.18 716.33 L 141.95 728.33 L 149.10 740.09 L 156.62 751.62 L 166.15 765.14 L 176.13 778.23 L 186.59 790.91 L 197.53 803.18 L 208.95 815.05 L 220.82 826.47 L 233.09 837.41 L 245.77 847.87 L 258.86 857.86 L 272.38 867.38 L 283.91 874.90 L 295.67 882.05 L 307.67 888.82 L 319.92 895.21 L 332.42 901.24 L 345.18 906.89 L 358.07 912.11 L 371.16 916.90 L 384.45 921.27 L 397.95 925.22 L 411.67 928.75 L 425.63 931.86 L 439.58 934.49 L 453.69 936.65 L 467.98 938.34 L 482.46 939.56 L 497.13 940.31 L 512.00 940.57 Z" fill="#ffffff" fill-rule="evenodd" group-id="1,2" id="椭圆形" node-id="39" stroke="none" target-height="857.1429" target-width="857.1429" target-x="83.4286" target-y="83.4286"></path><path d="M 526.15 936.77 L 527.56 937.01 L 528.71 937.73 L 529.51 938.83 L 529.84 940.22 L 529.60 941.63 L 528.87 942.78 L 527.78 943.58 L 526.38 943.91 L 512.00 944.14 L 510.60 943.86 L 509.47 943.10 L 508.71 941.97 L 508.43 940.57 L 508.71 939.17 L 509.47 938.05 L 510.60 937.29 L 512.00 937.00 L 526.15 936.77 Z M 476.64 935.56 L 476.83 935.57 L 490.97 936.49 L 492.36 936.84 L 493.44 937.66 L 494.15 938.82 L 494.36 940.23 L 494.01 941.61 L 493.20 942.70 L 492.04 943.41 L 490.62 943.62 L 476.25 942.68 L 474.88 942.29 L 473.82 941.44 L 473.15 940.25 L 472.98 938.83 L 473.38 937.46 L 474.23 936.40 L 475.41 935.74 L 476.83 935.57 L 476.64 935.56 Z M 568.50 933.28 L 569.93 933.38 L 571.14 933.98 L 572.05 935.00 L 572.51 936.35 L 572.42 937.77 L 571.81 938.99 L 570.79 939.89 L 569.44 940.36 L 555.14 942.02 L 553.71 941.87 L 552.52 941.22 L 551.65 940.18 L 551.23 938.81 L 551.38 937.39 L 552.02 936.20 L 553.07 935.33 L 554.43 934.91 L 568.50 933.28 Z M 430.54 932.86 L 431.08 931.53 L 432.03 930.56 L 433.27 930.02 L 434.70 929.99 L 448.67 932.31 L 450.02 932.80 L 451.02 933.72 L 451.60 934.95 L 451.68 936.37 L 451.19 937.72 L 450.27 938.72 L 449.04 939.30 L 447.62 939.38 L 433.41 937.01 L 432.08 936.48 L 431.12 935.53 L 430.57 934.28 L 430.54 932.86 Z M 610.30 925.58 L 611.73 925.53 L 613.00 926.01 L 614.00 926.93 L 614.60 928.23 L 614.65 929.66 L 614.16 930.93 L 613.24 931.93 L 611.95 932.53 L 597.87 935.61 L 596.44 935.61 L 595.19 935.08 L 594.22 934.13 L 593.66 932.82 L 593.67 931.39 L 594.19 930.13 L 595.14 929.16 L 596.46 928.61 L 610.30 925.58 Z M 388.92 922.65 L 389.59 921.39 L 390.63 920.52 L 391.92 920.10 L 393.35 920.22 L 407.02 923.94 L 408.31 924.56 L 409.21 925.57 L 409.67 926.85 L 409.60 928.28 L 408.98 929.56 L 407.97 930.47 L 406.69 930.93 L 405.26 930.86 L 391.36 927.08 L 390.09 926.41 L 389.22 925.37 L 388.81 924.08 L 388.92 922.65 Z M 651.13 913.70 L 652.55 913.51 L 653.86 913.87 L 654.95 914.68 L 655.68 915.91 L 655.87 917.33 L 655.52 918.64 L 654.70 919.73 L 653.47 920.45 L 639.77 924.94 L 638.35 925.08 L 637.05 924.69 L 635.99 923.84 L 635.30 922.58 L 635.16 921.16 L 635.56 919.86 L 636.41 918.80 L 637.66 918.12 L 651.13 913.70 Z M 348.52 908.31 L 349.31 907.11 L 350.44 906.36 L 351.77 906.07 L 353.17 906.33 L 366.40 911.41 L 367.62 912.15 L 368.41 913.25 L 368.74 914.57 L 368.53 915.98 L 367.79 917.20 L 366.68 918.00 L 365.37 918.33 L 363.95 918.12 L 350.50 912.95 L 349.31 912.17 L 348.55 911.04 L 348.27 909.71 L 348.52 908.31 Z M 690.46 897.83 L 691.85 897.50 L 693.19 897.72 L 694.36 898.42 L 695.20 899.57 L 695.53 900.96 L 695.32 902.30 L 694.62 903.46 L 693.46 904.31 L 680.31 910.14 L 678.90 910.42 L 677.57 910.16 L 676.43 909.42 L 675.62 908.24 L 675.34 906.84 L 675.60 905.51 L 676.34 904.37 L 677.52 903.56 L 690.46 897.83 Z M 309.75 889.96 L 310.66 888.85 L 311.86 888.21 L 313.20 888.06 L 314.58 888.46 L 327.22 894.84 L 328.36 895.71 L 329.04 896.88 L 329.24 898.22 L 328.88 899.61 L 328.02 900.75 L 326.84 901.43 L 325.50 901.62 L 324.11 901.27 L 311.25 894.78 L 310.15 893.88 L 309.51 892.68 L 309.36 891.33 L 309.75 889.96 Z M 728.11 878.03 L 729.46 877.56 L 730.81 877.65 L 732.04 878.23 L 733.00 879.29 L 733.47 880.64 L 733.39 881.99 L 732.81 883.22 L 731.75 884.18 L 719.22 891.31 L 717.86 891.73 L 716.51 891.60 L 715.30 890.98 L 714.38 889.89 L 713.95 888.53 L 714.08 887.17 L 714.70 885.97 L 715.79 885.04 L 728.11 878.03 Z M 273.04 867.84 L 274.05 866.83 L 275.30 866.31 L 276.66 866.29 L 277.99 866.83 L 289.94 874.44 L 290.98 875.42 L 291.54 876.66 L 291.60 878.01 L 291.11 879.36 L 290.14 880.40 L 288.90 880.96 L 287.54 881.02 L 286.20 880.53 L 274.05 872.79 L 273.04 871.78 L 272.52 870.52 L 272.50 869.16 L 273.04 867.84 Z M 763.56 854.59 L 764.86 853.99 L 766.22 853.93 L 767.50 854.39 L 768.56 855.35 L 769.16 856.64 L 769.21 858.00 L 768.75 859.28 L 767.79 860.34 L 756.05 868.68 L 754.74 869.24 L 753.38 869.25 L 752.12 868.75 L 751.09 867.75 L 750.53 866.44 L 750.52 865.08 L 751.02 863.82 L 752.01 862.79 L 763.56 854.59 Z M 238.72 842.17 L 239.82 841.27 L 241.12 840.87 L 242.48 840.99 L 243.74 841.66 L 254.87 850.42 L 255.81 851.50 L 256.25 852.78 L 256.17 854.14 L 255.55 855.43 L 254.48 856.37 L 253.19 856.80 L 251.83 856.73 L 250.55 856.11 L 239.23 847.20 L 238.33 846.09 L 237.93 844.79 L 238.05 843.44 L 238.72 842.17 Z M 796.51 827.72 L 797.74 827.00 L 799.09 826.81 L 800.41 827.13 L 801.56 827.98 L 802.28 829.21 L 802.47 830.56 L 802.14 831.88 L 801.30 833.03 L 790.45 842.49 L 789.19 843.17 L 787.84 843.32 L 786.54 842.95 L 785.42 842.06 L 784.73 840.81 L 784.59 839.46 L 784.96 838.15 L 785.84 837.03 L 796.51 827.72 Z M 207.12 813.22 L 208.31 812.43 L 209.64 812.17 L 210.98 812.42 L 212.17 813.21 L 222.38 823.04 L 223.21 824.20 L 223.51 825.52 L 223.30 826.87 L 222.55 828.09 L 221.39 828.92 L 220.07 829.22 L 218.73 829.01 L 217.51 828.26 L 207.13 818.27 L 206.34 817.08 L 206.08 815.75 L 206.33 814.41 L 207.12 813.22 Z M 826.58 797.78 L 827.73 796.93 L 829.05 796.61 L 830.39 796.81 L 831.62 797.54 L 832.47 798.69 L 832.79 800.01 L 832.59 801.35 L 831.86 802.58 L 821.99 813.09 L 820.81 813.89 L 819.48 814.17 L 818.14 813.93 L 816.94 813.16 L 816.14 811.98 L 815.86 810.65 L 816.10 809.31 L 816.87 808.11 L 826.58 797.78 Z M 178.60 781.34 L 179.87 780.67 L 181.22 780.54 L 182.52 780.93 L 183.63 781.83 L 192.81 792.62 L 193.52 793.85 L 193.69 795.20 L 193.35 796.52 L 192.48 797.66 L 191.24 798.37 L 189.90 798.54 L 188.58 798.20 L 187.44 797.33 L 178.11 786.37 L 177.44 785.11 L 177.32 783.75 L 177.70 782.45 L 178.60 781.34 Z M 853.56 764.95 L 854.62 764.00 L 855.90 763.55 L 857.26 763.61 L 858.55 764.21 L 859.51 765.28 L 859.96 766.56 L 859.90 767.92 L 859.30 769.21 L 850.53 780.63 L 849.43 781.55 L 848.14 781.96 L 846.78 781.85 L 845.51 781.21 L 844.59 780.11 L 844.18 778.82 L 844.29 777.46 L 844.93 776.19 L 853.56 764.95 Z M 153.32 746.69 L 154.65 746.15 L 156.01 746.16 L 157.26 746.67 L 158.28 747.68 L 166.34 759.34 L 166.93 760.64 L 166.97 762.00 L 166.49 763.27 L 165.52 764.32 L 164.22 764.90 L 162.86 764.94 L 161.59 764.47 L 160.54 763.50 L 152.34 751.64 L 151.80 750.32 L 151.80 748.96 L 152.32 747.71 L 153.32 746.69 Z M 877.15 729.59 L 878.12 728.53 L 879.35 727.96 L 880.70 727.88 L 882.05 728.35 L 883.11 729.32 L 883.68 730.55 L 883.76 731.90 L 883.28 733.25 L 875.70 745.49 L 874.70 746.51 L 873.45 747.05 L 872.09 747.08 L 870.76 746.56 L 869.74 745.56 L 869.20 744.31 L 869.17 742.96 L 869.69 741.62 L 877.15 729.59 Z M 131.65 709.72 L 133.02 709.32 L 134.37 709.46 L 135.57 710.10 L 136.48 711.20 L 143.34 723.61 L 143.79 724.96 L 143.69 726.32 L 143.10 727.54 L 142.03 728.48 L 140.67 728.93 L 139.31 728.83 L 138.09 728.24 L 137.15 727.17 L 130.17 714.55 L 129.76 713.18 L 129.91 711.83 L 130.54 710.63 L 131.65 709.72 Z M 897.08 692.06 L 897.94 690.91 L 899.10 690.22 L 900.44 690.00 L 901.83 690.34 L 902.98 691.19 L 903.68 692.36 L 903.89 693.70 L 903.55 695.09 L 897.23 708.03 L 896.34 709.14 L 895.15 709.80 L 893.80 709.97 L 892.42 709.59 L 891.31 708.70 L 890.65 707.51 L 890.48 706.16 L 890.86 704.78 L 897.08 692.06 Z M 113.79 670.79 L 115.19 670.52 L 116.52 670.80 L 117.65 671.55 L 118.45 672.74 L 124.03 685.76 L 124.34 687.15 L 124.11 688.49 L 123.39 689.64 L 122.23 690.48 L 120.83 690.79 L 119.50 690.56 L 118.34 689.84 L 117.51 688.68 L 111.84 675.44 L 111.57 674.04 L 111.85 672.71 L 112.60 671.58 L 113.79 670.79 Z M 913.15 652.72 L 913.88 651.49 L 914.97 650.68 L 916.29 650.34 L 917.70 650.53 L 918.93 651.27 L 919.74 652.36 L 920.09 653.67 L 919.89 655.09 L 914.90 668.60 L 914.12 669.80 L 913.01 670.57 L 911.68 670.87 L 910.27 670.63 L 909.07 669.86 L 908.30 668.74 L 908.00 667.41 L 908.24 666.01 L 913.15 652.72 Z M 99.93 630.24 L 101.36 630.12 L 102.65 630.53 L 103.70 631.39 L 104.37 632.65 L 108.61 646.17 L 108.78 647.59 L 108.42 648.90 L 107.59 649.97 L 106.35 650.69 L 104.93 650.86 L 103.62 650.49 L 102.55 649.66 L 101.83 648.42 L 97.52 634.68 L 97.40 633.26 L 97.81 631.96 L 98.67 630.91 L 99.93 630.24 Z M 925.18 611.94 L 925.79 610.64 L 926.79 609.73 L 928.06 609.25 L 929.49 609.30 L 930.79 609.91 L 931.70 610.91 L 932.18 612.18 L 932.13 613.61 L 928.52 627.55 L 927.87 628.83 L 926.84 629.71 L 925.55 630.14 L 924.12 630.04 L 922.85 629.40 L 921.97 628.36 L 921.54 627.07 L 921.64 625.65 L 925.18 611.94 Z M 90.23 588.53 L 91.66 588.55 L 92.90 589.09 L 93.86 590.06 L 94.40 591.38 L 97.26 605.26 L 97.29 606.69 L 96.79 607.95 L 95.86 608.94 L 94.56 609.52 L 93.13 609.55 L 91.87 609.05 L 90.88 608.12 L 90.29 606.82 L 87.38 592.70 L 87.40 591.28 L 87.94 590.03 L 88.90 589.07 L 90.23 588.53 Z M 933.06 570.14 L 933.53 568.80 L 934.43 567.78 L 935.65 567.18 L 937.08 567.09 L 938.43 567.56 L 939.44 568.47 L 940.04 569.69 L 940.13 571.11 L 937.94 585.35 L 937.43 586.68 L 936.49 587.66 L 935.25 588.22 L 933.82 588.27 L 932.49 587.75 L 931.51 586.81 L 930.95 585.57 L 930.90 584.15 L 933.06 570.14 Z M 84.74 546.02 L 86.16 546.18 L 87.35 546.85 L 88.21 547.90 L 88.61 549.27 L 90.07 563.35 L 89.95 564.77 L 89.33 565.98 L 88.31 566.87 L 86.95 567.32 L 85.53 567.20 L 84.32 566.58 L 83.43 565.56 L 82.98 564.20 L 81.50 549.89 L 81.66 548.47 L 82.32 547.28 L 83.37 546.43 L 84.74 546.02 Z M 940.22 524.39 L 940.41 524.40 L 941.80 524.73 L 942.90 525.53 L 943.62 526.69 L 943.85 528.10 L 943.08 542.48 L 942.70 543.86 L 941.87 544.92 L 940.69 545.61 L 939.27 545.79 L 937.90 545.41 L 936.83 544.57 L 936.15 543.40 L 935.96 541.98 L 936.71 527.83 L 937.05 526.44 L 937.85 525.35 L 939.00 524.63 L 940.41 524.40 L 940.22 524.39 Z M 83.50 503.21 L 84.90 503.52 L 86.01 504.29 L 86.76 505.42 L 87.03 506.83 L 87.00 512.00 L 87.09 520.98 L 86.84 522.39 L 86.10 523.53 L 84.99 524.31 L 83.60 524.63 L 82.19 524.37 L 81.05 523.63 L 80.27 522.53 L 79.95 521.13 L 79.86 512.00 L 79.89 506.74 L 80.19 505.35 L 80.96 504.23 L 82.10 503.48 L 83.50 503.21 Z M 939.53 481.64 L 940.94 481.84 L 942.11 482.53 L 942.94 483.60 L 943.31 484.98 L 943.96 499.35 L 943.72 500.76 L 942.99 501.90 L 941.89 502.70 L 940.49 503.02 L 939.09 502.78 L 937.94 502.05 L 937.15 500.95 L 936.82 499.56 L 936.18 485.42 L 936.38 484.01 L 937.07 482.84 L 938.15 482.01 L 939.53 481.64 Z M 82.52 463.72 L 82.96 462.36 L 83.84 461.32 L 85.05 460.69 L 86.47 460.56 L 87.83 461.00 L 88.86 461.88 L 89.49 463.08 L 89.62 464.51 L 88.29 478.61 L 87.90 479.99 L 87.05 481.05 L 85.87 481.72 L 84.45 481.90 L 83.08 481.51 L 82.02 480.66 L 81.35 479.48 L 81.17 478.06 L 82.52 463.72 Z M 934.41 439.11 L 935.84 439.16 L 937.07 439.73 L 938.00 440.72 L 938.51 442.06 L 940.59 456.31 L 940.48 457.74 L 939.87 458.95 L 938.85 459.85 L 937.50 460.31 L 936.08 460.20 L 934.86 459.59 L 933.96 458.57 L 933.50 457.22 L 931.46 443.20 L 931.52 441.78 L 932.09 440.54 L 933.08 439.61 L 934.41 439.11 Z M 89.45 421.02 L 90.02 419.71 L 91.00 418.77 L 92.26 418.27 L 93.69 418.28 L 95.00 418.85 L 95.94 419.83 L 96.45 421.09 L 96.44 422.52 L 93.70 436.42 L 93.17 437.75 L 92.22 438.72 L 90.98 439.27 L 89.55 439.31 L 88.22 438.78 L 87.25 437.83 L 86.70 436.59 L 86.67 435.16 L 89.45 421.02 Z M 925.06 397.27 L 926.49 397.19 L 927.77 397.63 L 928.79 398.52 L 929.43 399.80 L 932.93 413.78 L 932.97 415.21 L 932.48 416.47 L 931.56 417.47 L 930.26 418.06 L 928.83 418.10 L 927.56 417.62 L 926.57 416.69 L 925.97 415.39 L 922.53 401.65 L 922.45 400.22 L 922.89 398.94 L 923.78 397.91 L 925.06 397.27 Z M 100.63 379.24 L 101.33 378.00 L 102.40 377.16 L 103.71 376.78 L 105.13 376.94 L 106.37 377.64 L 107.21 378.71 L 107.59 380.01 L 107.43 381.44 L 103.31 394.99 L 102.65 396.26 L 101.61 397.13 L 100.32 397.55 L 98.90 397.44 L 97.63 396.78 L 96.75 395.74 L 96.33 394.45 L 96.44 393.02 L 100.63 379.24 Z M 911.54 356.58 L 912.95 356.35 L 914.27 356.66 L 915.38 357.44 L 916.14 358.65 L 921.03 372.20 L 921.21 373.62 L 920.86 374.93 L 920.04 376.02 L 918.81 376.74 L 917.39 376.92 L 916.08 376.57 L 914.99 375.75 L 914.27 374.51 L 909.47 361.19 L 909.24 359.78 L 909.55 358.46 L 910.33 357.35 L 911.54 356.58 Z M 115.95 338.83 L 116.78 337.66 L 117.93 336.93 L 119.26 336.69 L 120.66 336.99 L 121.83 337.81 L 122.55 338.96 L 122.80 340.29 L 122.50 341.69 L 117.03 354.76 L 116.25 355.96 L 115.13 356.72 L 113.80 357.01 L 112.39 356.76 L 111.20 355.97 L 110.44 354.85 L 110.14 353.52 L 110.40 352.12 L 115.95 338.83 Z M 894.02 317.52 L 895.40 317.15 L 896.75 317.32 L 897.93 317.99 L 898.81 319.11 L 905.04 332.12 L 905.37 333.51 L 905.14 334.85 L 904.44 336.01 L 903.28 336.86 L 901.89 337.18 L 900.55 336.96 L 899.39 336.25 L 898.55 335.10 L 892.42 322.31 L 892.05 320.93 L 892.23 319.58 L 892.90 318.40 L 894.02 317.52 Z M 135.25 300.17 L 136.18 299.09 L 137.40 298.49 L 138.75 298.38 L 140.11 298.82 L 141.19 299.75 L 141.80 300.97 L 141.91 302.32 L 141.47 303.68 L 134.73 316.13 L 133.83 317.24 L 132.63 317.89 L 131.28 318.04 L 129.91 317.65 L 128.80 316.75 L 128.15 315.56 L 128.00 314.21 L 128.39 312.83 L 135.25 300.17 Z M 872.66 280.37 L 874.00 279.86 L 875.35 279.90 L 876.60 280.45 L 877.59 281.48 L 885.08 293.78 L 885.54 295.13 L 885.45 296.48 L 884.86 297.71 L 883.80 298.66 L 882.45 299.12 L 881.09 299.04 L 879.87 298.45 L 878.91 297.39 L 871.55 285.29 L 871.04 283.96 L 871.09 282.60 L 871.63 281.35 L 872.66 280.37 Z M 158.33 263.61 L 159.37 262.63 L 160.64 262.15 L 162.00 262.17 L 163.31 262.74 L 164.29 263.78 L 164.77 265.05 L 164.75 266.41 L 164.17 267.72 L 156.21 279.45 L 155.21 280.46 L 153.95 280.98 L 152.60 281.00 L 151.27 280.48 L 150.25 279.47 L 149.73 278.22 L 149.71 276.86 L 150.24 275.53 L 158.33 263.61 Z M 847.69 245.52 L 848.97 244.88 L 850.32 244.79 L 851.62 245.20 L 852.70 246.13 L 861.39 257.64 L 861.98 258.93 L 862.03 260.29 L 861.57 261.57 L 860.61 262.63 L 859.31 263.22 L 857.95 263.27 L 856.67 262.81 L 855.62 261.84 L 847.07 250.53 L 846.44 249.25 L 846.34 247.90 L 846.76 246.60 L 847.69 245.52 Z M 184.93 229.55 L 186.06 228.67 L 187.38 228.32 L 188.72 228.48 L 189.97 229.18 L 190.84 230.31 L 191.20 231.62 L 191.04 232.97 L 190.34 234.22 L 181.25 245.09 L 180.15 246.00 L 178.85 246.39 L 177.50 246.28 L 176.23 245.62 L 175.32 244.52 L 174.92 243.22 L 175.04 241.87 L 175.70 240.60 L 184.93 229.55 Z M 819.38 213.33 L 820.59 212.56 L 821.92 212.34 L 823.25 212.62 L 824.43 213.44 L 834.20 224.01 L 834.92 225.24 L 835.10 226.59 L 834.77 227.91 L 833.92 229.05 L 832.68 229.77 L 831.34 229.96 L 830.02 229.62 L 828.87 228.77 L 819.26 218.37 L 818.50 217.17 L 818.27 215.83 L 818.56 214.50 L 819.38 213.33 Z M 214.74 198.33 L 215.95 197.58 L 217.29 197.36 L 218.62 197.65 L 219.79 198.47 L 220.55 199.68 L 220.77 201.02 L 220.48 202.35 L 219.66 203.52 L 209.53 213.44 L 208.35 214.23 L 207.02 214.50 L 205.68 214.25 L 204.48 213.47 L 203.69 212.28 L 203.42 210.95 L 203.67 209.62 L 204.45 208.42 L 214.74 198.33 Z M 788.08 184.16 L 789.20 183.29 L 790.51 182.93 L 791.86 183.08 L 793.11 183.78 L 803.90 193.34 L 804.74 194.49 L 805.05 195.81 L 804.85 197.16 L 804.12 198.38 L 802.96 199.22 L 801.64 199.54 L 800.29 199.34 L 799.07 198.60 L 788.46 189.20 L 787.58 188.07 L 787.23 186.76 L 787.38 185.41 L 788.08 184.16 Z M 247.52 170.22 L 248.80 169.59 L 250.15 169.50 L 251.44 169.92 L 252.53 170.86 L 253.16 172.14 L 253.25 173.49 L 252.82 174.78 L 251.89 175.87 L 240.85 184.72 L 239.59 185.40 L 238.23 185.53 L 236.93 185.15 L 235.82 184.25 L 235.14 182.99 L 235.01 181.64 L 235.39 180.34 L 236.29 179.23 L 247.52 170.22 Z M 753.96 158.19 L 754.99 157.21 L 756.26 156.72 L 757.62 156.74 L 758.93 157.31 L 770.61 165.75 L 771.56 166.81 L 772.00 168.10 L 771.94 169.45 L 771.33 170.75 L 770.26 171.70 L 768.98 172.14 L 767.62 172.08 L 766.33 171.47 L 754.84 163.17 L 753.86 162.13 L 753.37 160.86 L 753.39 159.51 L 753.96 158.19 Z M 282.98 145.47 L 284.32 144.97 L 285.67 145.01 L 286.92 145.56 L 287.90 146.60 L 288.40 147.94 L 288.35 149.30 L 287.80 150.54 L 286.77 151.52 L 274.90 159.23 L 273.58 159.78 L 272.22 159.78 L 270.96 159.27 L 269.94 158.26 L 269.40 156.94 L 269.40 155.59 L 269.91 154.33 L 270.91 153.31 L 282.98 145.47 Z M 717.46 135.78 L 718.40 134.70 L 719.61 134.09 L 720.96 133.97 L 722.32 134.40 L 734.78 141.63 L 735.83 142.60 L 736.40 143.83 L 736.47 145.19 L 735.99 146.53 L 735.03 147.59 L 733.79 148.16 L 732.44 148.23 L 731.09 147.75 L 718.84 140.64 L 717.76 139.71 L 717.15 138.50 L 717.03 137.14 L 717.46 135.78 Z M 320.69 124.40 L 322.07 124.04 L 323.42 124.22 L 324.60 124.89 L 325.48 126.02 L 325.84 127.40 L 325.66 128.75 L 324.99 129.93 L 323.86 130.81 L 311.27 137.29 L 309.90 137.71 L 308.55 137.57 L 307.35 136.94 L 306.44 135.84 L 306.02 134.47 L 306.16 133.12 L 306.79 131.91 L 307.89 131.00 L 320.69 124.40 Z M 678.85 117.11 L 679.67 115.93 L 680.82 115.20 L 682.15 114.95 L 683.55 115.25 L 696.67 121.19 L 697.82 122.05 L 698.51 123.22 L 698.72 124.56 L 698.37 125.95 L 697.52 127.09 L 696.35 127.78 L 695.01 127.99 L 693.62 127.65 L 680.71 121.80 L 679.54 120.98 L 678.81 119.84 L 678.56 118.50 L 678.85 117.11 Z M 360.30 107.24 L 361.71 107.01 L 363.03 107.33 L 364.14 108.11 L 364.90 109.33 L 365.12 110.74 L 364.80 112.06 L 364.02 113.16 L 362.81 113.92 L 349.62 119.12 L 348.22 119.39 L 346.89 119.12 L 345.76 118.37 L 344.96 117.19 L 344.68 115.78 L 344.96 114.45 L 345.71 113.32 L 346.89 112.52 L 360.30 107.24 Z M 638.58 102.41 L 639.28 101.16 L 640.34 100.32 L 641.64 99.94 L 643.07 100.09 L 656.72 104.69 L 657.94 105.42 L 658.75 106.52 L 659.09 107.83 L 658.89 109.25 L 658.15 110.47 L 657.06 111.28 L 655.74 111.62 L 654.33 111.42 L 640.90 106.90 L 639.65 106.20 L 638.81 105.14 L 638.43 103.83 L 638.58 102.41 Z M 401.52 94.11 L 402.95 94.03 L 404.23 94.48 L 405.25 95.37 L 405.88 96.65 L 405.96 98.08 L 405.51 99.36 L 404.62 100.38 L 403.34 101.02 L 389.71 104.86 L 388.29 104.98 L 386.99 104.58 L 385.94 103.72 L 385.27 102.46 L 385.14 101.04 L 385.54 99.74 L 386.40 98.69 L 387.66 98.01 L 401.52 94.11 Z M 597.04 91.85 L 597.61 90.54 L 598.58 89.59 L 599.84 89.08 L 601.27 89.09 L 615.31 92.29 L 616.61 92.90 L 617.52 93.90 L 617.99 95.18 L 617.93 96.61 L 617.32 97.90 L 616.31 98.81 L 615.04 99.28 L 613.61 99.22 L 599.80 96.08 L 598.49 95.51 L 597.54 94.54 L 597.03 93.28 L 597.04 91.85 Z M 443.79 85.21 L 445.21 85.27 L 446.44 85.85 L 447.37 86.84 L 447.87 88.18 L 447.81 89.61 L 447.23 90.84 L 446.24 91.76 L 444.90 92.27 L 430.96 94.72 L 429.53 94.70 L 428.28 94.17 L 427.32 93.21 L 426.78 91.89 L 426.79 90.46 L 427.33 89.21 L 428.29 88.25 L 429.61 87.70 L 443.79 85.21 Z M 554.65 85.51 L 555.08 84.15 L 555.95 83.11 L 557.15 82.47 L 558.58 82.34 L 572.87 84.11 L 574.22 84.59 L 575.23 85.50 L 575.82 86.72 L 575.91 88.15 L 575.43 89.49 L 574.52 90.50 L 573.30 91.10 L 571.88 91.18 L 557.82 89.44 L 556.45 89.01 L 555.42 88.13 L 554.78 86.93 L 554.65 85.51 Z M 486.73 80.58 L 488.14 80.79 L 489.31 81.48 L 490.13 82.56 L 490.50 83.94 L 490.29 85.36 L 489.60 86.53 L 488.52 87.35 L 487.14 87.72 L 473.00 88.77 L 471.58 88.61 L 470.39 87.95 L 469.53 86.90 L 469.12 85.53 L 469.28 84.11 L 469.93 82.92 L 470.98 82.06 L 472.35 81.65 L 486.73 80.58 Z M 515.49 79.87 L 529.89 80.22 L 531.28 80.56 L 532.37 81.37 L 533.09 82.52 L 533.32 83.93 L 532.97 85.32 L 532.17 86.42 L 531.01 87.13 L 529.60 87.36 L 515.44 87.01 L 514.04 86.72 L 512.92 85.95 L 512.17 84.82 L 511.89 83.41 L 512.19 82.02 L 512.96 80.90 L 514.09 80.14 L 515.49 79.87 Z" fill="#ebedf0" fill-opacity="0.6587904" fill-rule="nonzero" group-id="1,2" id="椭圆形" node-id="40" stroke="none" target-height="864.2719" target-width="864.10406" target-x="79.85717" target-y="79.870995"></path><g node-id="177"><g node-id="182"><path d="M 912.00 512.00 L 911.68 527.95 L 910.74 543.75 L 909.18 559.42 L 907.02 574.97 L 904.24 590.40 L 900.86 605.74 L 896.90 620.87 L 892.36 635.79 L 887.25 650.52 L 881.55 665.07 L 875.29 679.39 L 868.49 693.42 L 861.15 707.18 L 853.25 720.68 L 844.80 733.92 L 835.84 746.80 L 826.38 759.32 L 816.40 771.50 L 805.89 783.33 L 794.84 794.84 L 783.33 805.89 L 771.50 816.40 L 759.32 826.38 L 746.80 835.84 L 733.92 844.80 L 720.68 853.25 L 707.18 861.15 L 693.42 868.49 L 679.39 875.29 L 665.07 881.55 L 650.52 887.25 L 635.79 892.36 L 620.87 896.90 L 605.74 900.86 L 590.40 904.24 L 574.97 907.02 L 559.42 909.18 L 543.75 910.74 L 527.95 911.68 L 512.00 912.00 L 496.05 911.68 L 480.25 910.74 L 464.58 909.18 L 449.03 907.02 L 433.60 904.24 L 418.26 900.86 L 403.13 896.90 L 388.21 892.36 L 373.48 887.25 L 358.93 881.55 L 344.61 875.29 L 330.58 868.49 L 316.82 861.15 L 303.32 853.25 L 290.08 844.80 L 277.20 835.84 L 264.68 826.38 L 252.50 816.40 L 240.67 805.89 L 229.16 794.84 L 218.11 783.33 L 207.60 771.50 L 197.62 759.32 L 188.16 746.80 L 179.20 733.92 L 170.75 720.68 L 162.85 707.18 L 155.51 693.42 L 148.71 679.39 L 142.45 665.07 L 136.75 650.52 L 131.64 635.79 L 127.10 620.87 L 123.14 605.74 L 119.76 590.40 L 116.98 574.97 L 114.82 559.42 L 113.26 543.75 L 112.32 527.95 L 112.00 512.00 L 112.32 496.05 L 113.26 480.25 L 114.82 464.58 L 116.98 449.03 L 119.76 433.60 L 123.14 418.26 L 127.10 403.13 L 131.64 388.21 L 136.75 373.48 L 142.45 358.93 L 148.71 344.61 L 155.51 330.58 L 162.85 316.82 L 170.75 303.32 L 179.20 290.08 L 188.16 277.20 L 197.62 264.68 L 207.60 252.50 L 218.11 240.67 L 229.16 229.16 L 240.67 218.11 L 252.50 207.60 L 264.68 197.62 L 277.20 188.16 L 290.08 179.20 L 303.32 170.75 L 316.82 162.85 L 330.58 155.51 L 344.61 148.71 L 358.93 142.45 L 373.48 136.75 L 388.21 131.64 L 403.13 127.10 L 418.26 123.14 L 433.60 119.76 L 449.03 116.98 L 464.58 114.82 L 480.25 113.26 L 496.05 112.32 L 512.00 112.00 L 527.95 112.32 L 543.75 113.26 L 559.42 114.82 L 574.97 116.98 L 590.40 119.76 L 605.74 123.14 L 620.87 127.10 L 635.79 131.64 L 650.52 136.75 L 665.07 142.45 L 679.39 148.71 L 693.42 155.51 L 707.18 162.85 L 720.68 170.75 L 733.92 179.20 L 746.80 188.16 L 759.32 197.62 L 771.50 207.60 L 783.33 218.11 L 794.84 229.16 L 805.89 240.67 L 816.40 252.50 L 826.38 264.68 L 835.84 277.20 L 844.80 290.08 L 853.25 303.32 L 861.15 316.82 L 868.49 330.58 L 875.29 344.61 L 881.55 358.93 L 887.25 373.48 L 892.36 388.21 L 896.90 403.13 L 900.86 418.26 L 904.24 433.60 L 907.02 449.03 L 909.18 464.58 L 910.74 480.25 L 911.68 496.05 L 912.00 512.00 Z" fill="url(#linearGradient-1)" fill-rule="evenodd" group-id="1,2,8,13" node-id="130" stroke="none" target-height="800" target-width="800" target-x="112" target-y="112"></path></g></g><g node-id="178"><path d="M 826.29 140.57 L 826.04 143.18 L 825.39 145.57 L 824.34 147.78 L 822.92 149.79 L 821.21 151.49 L 819.21 152.91 L 817.00 153.96 L 814.61 154.61 L 812.00 154.86 L 809.39 154.61 L 807.00 153.96 L 804.79 152.91 L 802.78 151.49 L 801.08 149.79 L 799.66 147.78 L 798.61 145.57 L 797.96 143.18 L 797.71 140.57 L 797.96 137.96 L 798.61 135.57 L 799.66 133.36 L 801.08 131.36 L 802.78 129.66 L 804.79 128.24 L 807.00 127.18 L 809.39 126.53 L 812.00 126.29 L 814.61 126.53 L 817.00 127.18 L 819.21 128.24 L 821.22 129.66 L 822.92 131.36 L 824.34 133.36 L 825.39 135.57 L 826.04 137.96 L 826.29 140.57 Z" fill="#edf0f5" fill-opacity="0.6" fill-rule="evenodd" group-id="1,2,9" id="椭圆形" node-id="45" stroke="none" target-height="28.571442" target-width="28.571411" target-x="797.7143" target-y="126.285736"></path></g><path d="M 883.43 162.00 L 885.34 162.26 L 887.03 162.98 L 888.48 164.09 L 889.60 165.54 L 890.31 167.23 L 890.57 169.14 L 890.57 183.43 L 904.86 183.43 L 906.77 183.69 L 908.46 184.40 L 909.91 185.52 L 911.02 186.97 L 911.74 188.66 L 912.00 190.57 L 911.74 192.48 L 911.02 194.18 L 909.91 195.62 L 908.46 196.74 L 906.77 197.46 L 904.86 197.71 L 890.57 197.71 L 890.57 212.00 L 890.31 213.91 L 889.60 215.61 L 888.48 217.05 L 887.03 218.17 L 885.34 218.88 L 883.43 219.14 L 881.52 218.88 L 879.82 218.17 L 878.38 217.05 L 877.26 215.61 L 876.54 213.91 L 876.29 212.00 L 876.29 197.71 L 862.00 197.71 L 860.09 197.46 L 858.39 196.74 L 856.95 195.62 L 855.83 194.18 L 855.12 192.48 L 854.86 190.57 L 855.12 188.66 L 855.83 186.97 L 856.95 185.52 L 858.39 184.40 L 860.09 183.69 L 862.00 183.43 L 876.29 183.43 L 876.29 169.14 L 876.54 167.23 L 877.26 165.54 L 878.38 164.09 L 879.82 162.98 L 881.52 162.26 L 883.43 162.00 Z" fill="#edf0f5" fill-opacity="0.6" fill-rule="evenodd" group-id="1,2" id="形状结合" node-id="46" stroke="none" target-height="57.142853" target-width="57.142822" target-x="854.8572" target-y="162.00003"></path><path d="M 140.57 162.00 L 142.48 162.26 L 144.18 162.98 L 145.62 164.09 L 146.74 165.54 L 147.46 167.23 L 147.71 169.14 L 147.71 183.43 L 162.00 183.43 L 163.91 183.69 L 165.61 184.40 L 167.05 185.52 L 168.17 186.97 L 168.88 188.66 L 169.14 190.57 L 168.88 192.48 L 168.17 194.18 L 167.05 195.62 L 165.61 196.74 L 163.91 197.46 L 162.00 197.71 L 147.71 197.71 L 147.71 212.00 L 147.46 213.91 L 146.74 215.61 L 145.62 217.05 L 144.18 218.17 L 142.48 218.88 L 140.57 219.14 L 138.66 218.88 L 136.97 218.17 L 135.52 217.05 L 134.40 215.61 L 133.69 213.91 L 133.43 212.00 L 133.43 197.71 L 119.14 197.71 L 117.23 197.46 L 115.54 196.74 L 114.09 195.62 L 112.98 194.18 L 112.26 192.48 L 112.00 190.57 L 112.26 188.66 L 112.98 186.97 L 114.09 185.52 L 115.54 184.40 L 117.23 183.69 L 119.14 183.43 L 133.43 183.43 L 133.43 169.14 L 133.69 167.23 L 134.40 165.54 L 135.52 164.09 L 136.97 162.98 L 138.66 162.26 L 140.57 162.00 Z" fill="#edf0f5" fill-opacity="0.6" fill-rule="evenodd" group-id="1,2" id="形状结合备份-3" node-id="47" stroke="none" target-height="57.142853" target-width="57.14286" target-x="112.00002" target-y="162.00003"></path><path d="M 226.29 140.57 L 226.04 143.18 L 225.39 145.57 L 224.34 147.78 L 222.92 149.79 L 221.22 151.49 L 219.21 152.91 L 217.00 153.96 L 214.61 154.61 L 212.00 154.86 L 209.39 154.61 L 207.00 153.96 L 204.79 152.91 L 202.78 151.49 L 201.08 149.79 L 199.66 147.78 L 198.61 145.57 L 197.96 143.18 L 197.71 140.57 L 197.96 137.96 L 198.61 135.57 L 199.66 133.36 L 201.08 131.36 L 202.78 129.66 L 204.79 128.24 L 207.00 127.18 L 209.39 126.53 L 212.00 126.29 L 214.61 126.53 L 217.00 127.18 L 219.21 128.24 L 221.22 129.66 L 222.92 131.36 L 224.34 133.36 L 225.39 135.57 L 226.04 137.96 L 226.29 140.57 Z" fill="#edf0f5" fill-opacity="0.6" fill-rule="evenodd" group-id="1,2,10" id="椭圆形备份-48" node-id="48" stroke="none" target-height="28.571442" target-width="28.571426" target-x="197.71431" target-y="126.285736"></path></g><path d="M 669.48 804.86 L 660.13 804.53 L 651.03 803.61 L 642.17 802.10 L 633.53 800.01 L 625.00 797.35 L 616.79 794.19 L 608.86 790.52 L 601.20 786.35 L 593.81 781.69 L 586.79 776.61 L 580.12 771.11 L 573.79 765.17 L 567.85 758.84 L 562.35 752.18 L 557.27 745.16 L 552.61 737.77 L 548.44 730.11 L 544.77 722.18 L 541.61 713.97 L 538.95 705.44 L 536.86 696.80 L 535.35 687.94 L 534.43 678.85 L 534.10 669.50 L 534.10 534.20 L 669.48 534.20 L 678.83 534.53 L 687.93 535.45 L 696.79 536.96 L 705.43 539.04 L 713.96 541.70 L 722.17 544.87 L 730.10 548.53 L 737.76 552.70 L 745.15 557.36 L 752.17 562.44 L 758.84 567.95 L 765.17 573.88 L 771.11 580.21 L 776.61 586.88 L 781.69 593.90 L 786.35 601.29 L 790.52 608.95 L 794.19 616.87 L 797.35 625.09 L 800.01 633.61 L 802.10 642.26 L 803.61 651.12 L 804.53 660.21 L 804.86 669.56 L 804.53 678.90 L 803.61 687.99 L 802.10 696.84 L 800.01 705.48 L 797.35 714.00 L 794.19 722.21 L 790.52 730.13 L 786.35 737.79 L 781.69 745.17 L 776.61 752.19 L 771.11 758.85 L 765.17 765.18 L 758.84 771.12 L 752.17 776.62 L 745.15 781.69 L 737.76 786.36 L 730.10 790.52 L 722.17 794.19 L 713.96 797.35 L 705.43 800.01 L 696.79 802.10 L 687.93 803.61 L 678.83 804.53 L 669.48 804.86 Z M 354.52 804.86 L 345.17 804.53 L 336.07 803.61 L 327.21 802.10 L 318.57 800.01 L 310.04 797.35 L 301.83 794.19 L 293.90 790.52 L 286.24 786.35 L 278.85 781.69 L 271.83 776.61 L 265.16 771.11 L 258.83 765.17 L 252.89 758.84 L 247.39 752.18 L 242.31 745.16 L 237.65 737.77 L 233.48 730.11 L 229.81 722.18 L 226.65 713.97 L 223.99 705.44 L 221.90 696.80 L 220.39 687.94 L 219.47 678.85 L 219.14 669.50 L 219.47 660.14 L 220.39 651.05 L 221.90 642.19 L 223.99 633.55 L 226.65 625.02 L 229.81 616.81 L 233.48 608.88 L 237.65 601.22 L 242.31 593.83 L 247.39 586.81 L 252.89 580.15 L 258.83 573.82 L 265.15 567.88 L 271.82 562.38 L 278.84 557.30 L 286.22 552.64 L 293.88 548.47 L 301.80 544.80 L 310.01 541.64 L 318.53 538.98 L 327.17 536.89 L 336.02 535.38 L 345.11 534.46 L 354.45 534.13 L 489.83 534.13 L 489.83 669.50 L 489.51 678.85 L 488.60 687.94 L 487.10 696.80 L 485.02 705.44 L 482.36 713.97 L 479.20 722.18 L 475.54 730.11 L 471.37 737.77 L 466.71 745.16 L 461.64 752.18 L 456.14 758.84 L 450.20 765.17 L 443.87 771.11 L 437.21 776.61 L 430.19 781.69 L 422.80 786.35 L 415.14 790.52 L 407.21 794.19 L 399.00 797.35 L 390.47 800.01 L 381.83 802.10 L 372.97 803.61 L 363.87 804.53 L 354.52 804.86 Z M 534.10 489.87 L 534.10 354.57 L 534.43 345.22 L 535.35 336.13 L 536.86 327.27 L 538.95 318.62 L 541.61 310.10 L 544.77 301.88 L 548.44 293.96 L 552.61 286.30 L 557.27 278.91 L 562.35 271.89 L 567.85 265.22 L 573.79 258.89 L 580.12 252.96 L 586.79 247.45 L 593.81 242.37 L 601.20 237.71 L 608.86 233.54 L 616.79 229.88 L 625.00 226.71 L 633.53 224.05 L 642.17 221.97 L 651.03 220.46 L 660.13 219.54 L 669.48 219.21 L 678.83 219.54 L 687.93 220.46 L 696.79 221.97 L 705.43 224.05 L 713.96 226.71 L 722.17 229.88 L 730.10 233.54 L 737.76 237.71 L 745.15 242.37 L 752.17 247.45 L 758.84 252.96 L 765.17 258.89 L 771.11 265.22 L 776.61 271.89 L 781.69 278.91 L 786.35 286.30 L 790.52 293.96 L 794.19 301.88 L 797.35 310.10 L 800.01 318.62 L 802.10 327.27 L 803.61 336.13 L 804.53 345.22 L 804.86 354.57 L 804.56 363.63 L 803.69 372.50 L 802.26 381.21 L 800.26 389.77 L 797.70 398.20 L 794.62 406.39 L 791.00 414.36 L 786.85 422.13 L 782.20 429.59 L 777.05 436.76 L 771.39 443.65 L 765.19 450.27 L 758.57 456.47 L 751.68 462.13 L 744.51 467.28 L 737.04 471.93 L 729.28 476.08 L 721.31 479.70 L 713.12 482.78 L 704.69 485.34 L 696.12 487.33 L 687.41 488.76 L 678.54 489.63 L 669.48 489.93 L 534.10 489.93 L 534.10 489.87 Z M 354.52 489.87 L 345.48 489.57 L 336.61 488.70 L 327.91 487.27 L 319.34 485.27 L 310.91 482.71 L 302.72 479.63 L 294.74 476.02 L 286.97 471.86 L 279.50 467.21 L 272.32 462.06 L 265.43 456.40 L 258.81 450.21 L 252.61 443.59 L 246.95 436.70 L 241.80 429.53 L 237.15 422.06 L 233.00 414.30 L 229.38 406.33 L 226.30 398.14 L 223.74 389.71 L 221.74 381.14 L 220.31 372.44 L 219.44 363.56 L 219.14 354.50 L 219.47 345.15 L 220.39 336.06 L 221.90 327.20 L 223.99 318.56 L 226.65 310.03 L 229.81 301.82 L 233.48 293.89 L 237.65 286.23 L 242.31 278.84 L 247.39 271.82 L 252.89 265.16 L 258.83 258.83 L 265.16 252.89 L 271.83 247.39 L 278.85 242.31 L 286.24 237.65 L 293.90 233.48 L 301.83 229.81 L 310.04 226.65 L 318.57 223.99 L 327.21 221.90 L 336.07 220.39 L 345.17 219.47 L 354.52 219.14 L 363.87 219.47 L 372.97 220.39 L 381.83 221.90 L 390.47 223.99 L 399.00 226.65 L 407.21 229.81 L 415.14 233.48 L 422.80 237.65 L 430.19 242.31 L 437.21 247.39 L 443.88 252.89 L 450.21 258.83 L 456.15 265.16 L 461.65 271.82 L 466.73 278.84 L 471.39 286.23 L 475.56 293.89 L 479.23 301.82 L 482.39 310.03 L 485.05 318.56 L 487.14 327.20 L 488.65 336.06 L 489.57 345.15 L 489.90 354.50 L 489.90 489.87 L 354.52 489.87 Z" fill="url(#linearGradient-4)" fill-rule="evenodd" group-id="1" id="形状" node-id="49" stroke="none" target-height="585.71423" target-width="585.71423" target-x="219.14285" target-y="219.14285"></path><path d="M 369.14 347.71 L 654.86 347.71 L 663.98 347.98 L 672.89 348.70 L 681.61 349.88 L 690.15 351.51 L 698.53 353.58 L 706.84 356.12 L 714.91 359.04 L 722.75 362.35 L 730.37 366.05 L 737.78 370.14 L 744.98 374.63 L 751.90 379.43 L 758.55 384.56 L 764.92 390.03 L 771.02 395.83 L 776.83 401.94 L 782.30 408.31 L 787.43 414.95 L 792.23 421.87 L 796.71 429.08 L 800.81 436.49 L 804.51 444.11 L 807.82 451.95 L 810.74 460.01 L 813.27 468.33 L 815.35 476.70 L 816.98 485.25 L 818.16 493.97 L 818.88 502.88 L 819.14 512.00 L 819.14 512.00 L 818.88 521.12 L 818.16 530.03 L 816.98 538.75 L 815.35 547.30 L 813.27 555.67 L 810.74 563.98 L 807.82 572.05 L 804.51 579.89 L 800.81 587.51 L 796.71 594.92 L 792.23 602.13 L 787.43 609.05 L 782.30 615.69 L 776.83 622.06 L 771.02 628.17 L 764.92 633.97 L 758.55 639.44 L 751.90 644.57 L 744.98 649.37 L 737.78 653.86 L 730.37 657.95 L 722.75 661.65 L 714.91 664.96 L 706.84 667.88 L 698.53 670.42 L 690.15 672.49 L 681.61 674.12 L 672.89 675.30 L 663.98 676.02 L 654.86 676.29 L 369.14 676.29 L 360.02 676.02 L 351.11 675.30 L 342.39 674.12 L 333.85 672.49 L 325.47 670.42 L 317.16 667.88 L 309.09 664.96 L 301.25 661.65 L 293.63 657.95 L 286.22 653.86 L 279.02 649.37 L 272.10 644.57 L 265.45 639.44 L 259.08 633.97 L 252.98 628.17 L 247.17 622.06 L 241.70 615.69 L 236.57 609.05 L 231.77 602.13 L 227.29 594.92 L 223.19 587.51 L 219.49 579.89 L 216.18 572.05 L 213.26 563.99 L 210.73 555.67 L 208.65 547.30 L 207.02 538.75 L 205.84 530.03 L 205.12 521.12 L 204.86 512.00 L 204.86 512.00 L 205.12 502.88 L 205.84 493.97 L 207.02 485.25 L 208.65 476.70 L 210.73 468.33 L 213.26 460.01 L 216.18 451.95 L 219.49 444.11 L 223.19 436.49 L 227.29 429.08 L 231.77 421.87 L 236.57 414.95 L 241.70 408.31 L 247.17 401.94 L 252.98 395.83 L 259.08 390.03 L 265.45 384.56 L 272.10 379.43 L 279.02 374.63 L 286.22 370.14 L 293.63 366.05 L 301.25 362.35 L 309.09 359.04 L 317.16 356.12 L 325.47 353.58 L 333.85 351.51 L 342.39 349.88 L 351.11 348.70 L 360.02 347.98 L 369.14 347.71 Z" fill="url(#linearGradient-5)" fill-rule="evenodd" group-id="1" id="矩形" node-id="50" stroke="none" target-height="328.5714" target-width="614.28577" target-x="204.85715" target-y="347.7143"></path><path d="M 879.74 516.37 L 881.15 516.14 L 882.47 516.45 L 883.58 517.24 L 884.34 518.45 L 885.13 520.09 L 886.16 521.54 L 887.43 522.81 L 888.32 523.93 L 888.69 525.24 L 888.55 526.59 L 887.86 527.84 L 886.74 528.73 L 885.43 529.10 L 884.08 528.96 L 882.83 528.27 L 880.70 526.14 L 878.98 523.72 L 877.66 520.98 L 877.43 519.57 L 877.75 518.25 L 878.53 517.13 L 879.74 516.37 Z M 906.61 518.17 L 907.85 517.46 L 909.20 517.30 L 910.51 517.64 L 911.65 518.51 L 912.35 519.76 L 912.52 521.11 L 912.17 522.42 L 911.30 523.55 L 907.05 527.25 L 905.81 527.96 L 904.46 528.12 L 903.15 527.78 L 902.01 526.91 L 901.31 525.66 L 901.14 524.32 L 901.49 523.00 L 902.36 521.87 L 906.61 518.17 Z M 808.43 508.45 L 809.83 508.74 L 810.95 509.50 L 811.71 510.62 L 812.00 512.02 L 811.71 513.42 L 810.95 514.55 L 809.83 515.31 L 808.43 515.59 L 801.29 515.59 L 799.89 515.31 L 798.76 514.55 L 798.00 513.42 L 797.71 512.02 L 798.00 510.62 L 798.76 509.50 L 799.89 508.74 L 801.29 508.45 L 808.43 508.45 Z M 837.00 508.45 L 838.40 508.74 L 839.53 509.50 L 840.29 510.62 L 840.57 512.02 L 840.29 513.42 L 839.53 514.55 L 838.40 515.31 L 837.00 515.59 L 829.86 515.59 L 828.46 515.31 L 827.33 514.55 L 826.57 513.42 L 826.29 512.02 L 826.57 510.62 L 827.33 509.50 L 828.46 508.74 L 829.86 508.45 L 837.00 508.45 Z M 858.52 501.60 L 859.29 500.40 L 860.40 499.62 L 861.73 499.32 L 863.14 499.55 L 864.34 500.32 L 865.12 501.44 L 865.42 502.76 L 865.18 504.17 L 863.85 506.90 L 862.13 509.31 L 859.98 511.43 L 858.73 512.11 L 857.38 512.25 L 856.07 511.88 L 854.95 510.98 L 854.27 509.73 L 854.14 508.38 L 854.51 507.07 L 855.40 505.95 L 856.69 504.68 L 857.72 503.23 L 858.52 501.60 Z M 871.61 489.06 L 872.99 488.67 L 874.34 488.83 L 875.53 489.48 L 876.42 490.60 L 877.05 492.21 L 878.68 498.12 L 878.78 499.55 L 878.35 500.84 L 877.47 501.87 L 876.19 502.52 L 874.77 502.61 L 873.48 502.18 L 872.45 501.30 L 871.80 500.02 L 870.17 494.11 L 870.07 493.87 L 869.68 492.49 L 869.85 491.14 L 870.50 489.95 L 871.61 489.06 Z" fill="#0f5eff" fill-rule="nonzero" group-id="1" id="路径-6" node-id="51" stroke="none" target-height="40.431427" target-width="114.80365" target-x="797.7143" target-y="488.66806"></path><path d="M 144.79 505.78 L 143.38 506.01 L 142.06 505.70 L 140.95 504.91 L 140.18 503.70 L 139.39 502.06 L 138.37 500.61 L 137.09 499.34 L 136.21 498.22 L 135.84 496.91 L 135.98 495.56 L 136.67 494.31 L 137.79 493.42 L 139.09 493.05 L 140.45 493.19 L 141.70 493.88 L 143.83 496.01 L 145.54 498.43 L 146.86 501.17 L 147.09 502.58 L 146.78 503.90 L 146.00 505.01 L 144.79 505.78 Z M 117.92 503.98 L 116.67 504.69 L 115.33 504.85 L 114.01 504.51 L 112.88 503.64 L 112.17 502.39 L 112.01 501.04 L 112.36 499.73 L 113.23 498.60 L 117.48 494.90 L 118.72 494.19 L 120.07 494.03 L 121.38 494.37 L 122.51 495.24 L 123.22 496.49 L 123.38 497.83 L 123.04 499.15 L 122.17 500.28 L 117.92 503.98 Z M 216.10 513.70 L 214.70 513.41 L 213.57 512.65 L 212.81 511.53 L 212.53 510.13 L 212.81 508.73 L 213.57 507.60 L 214.70 506.84 L 216.10 506.56 L 223.24 506.56 L 224.64 506.84 L 225.77 507.60 L 226.53 508.73 L 226.81 510.13 L 226.53 511.53 L 225.77 512.65 L 224.64 513.41 L 223.24 513.70 L 216.10 513.70 Z M 187.53 513.70 L 186.13 513.41 L 185.00 512.65 L 184.24 511.53 L 183.95 510.13 L 184.24 508.73 L 185.00 507.60 L 186.13 506.84 L 187.53 506.56 L 194.67 506.56 L 196.07 506.84 L 197.19 507.60 L 197.96 508.73 L 198.24 510.13 L 197.96 511.53 L 197.19 512.65 L 196.07 513.41 L 194.67 513.70 L 187.53 513.70 Z M 166.01 520.55 L 165.24 521.75 L 164.12 522.53 L 162.80 522.83 L 161.39 522.60 L 160.18 521.83 L 159.41 520.71 L 159.10 519.39 L 159.34 517.98 L 160.67 515.25 L 162.40 512.84 L 164.54 510.72 L 165.80 510.04 L 167.15 509.90 L 168.46 510.27 L 169.57 511.17 L 170.25 512.42 L 170.39 513.77 L 170.02 515.08 L 169.13 516.20 L 167.84 517.47 L 166.80 518.92 L 166.01 520.55 Z M 152.91 533.09 L 151.54 533.48 L 150.19 533.32 L 149.00 532.67 L 148.10 531.55 L 147.47 529.94 L 145.84 524.03 L 145.74 522.60 L 146.18 521.31 L 147.06 520.28 L 148.33 519.63 L 149.76 519.54 L 151.05 519.97 L 152.08 520.85 L 152.73 522.13 L 154.36 528.04 L 154.45 528.28 L 154.84 529.66 L 154.68 531.01 L 154.03 532.20 L 152.91 533.09 Z" fill="#fd3737" fill-rule="nonzero" group-id="1,3" id="路径-6备份-2" node-id="52" stroke="none" target-height="40.431396" target-width="114.80368" target-x="112.00839" target-y="493.05054"></path><path d="M 758.43 560.21 L 758.43 463.79 L 787.76 471.12 L 790.34 471.98 L 792.68 473.16 L 794.80 474.67 L 796.68 476.47 L 798.26 478.49 L 799.55 480.75 L 800.49 483.17 L 801.08 485.73 L 801.29 488.44 L 801.29 535.56 L 801.08 538.27 L 800.49 540.83 L 799.55 543.25 L 798.26 545.51 L 796.68 547.53 L 794.80 549.33 L 792.68 550.84 L 790.34 552.02 L 787.76 552.88 L 758.43 560.21 L 758.43 560.21 Z" fill="url(#linearGradient-6)" fill-rule="evenodd" group-id="1,4" id="矩形" node-id="53" stroke="none" target-height="96.42853" target-width="42.857117" target-x="758.4285" target-y="463.78564"></path><path d="M 265.57 560.21 L 265.57 463.79 L 236.24 471.12 L 233.66 471.98 L 231.32 473.16 L 229.20 474.67 L 227.32 476.47 L 225.74 478.49 L 224.45 480.75 L 223.51 483.17 L 222.92 485.73 L 222.71 488.44 L 222.71 535.56 L 222.92 538.27 L 223.51 540.83 L 224.45 543.25 L 225.74 545.51 L 227.32 547.53 L 229.20 549.33 L 231.32 550.84 L 233.66 552.02 L 236.24 552.88 L 265.57 560.21 L 265.57 560.21 Z" fill="url(#linearGradient-6)" fill-rule="evenodd" group-id="1,5" id="矩形备份-37" node-id="54" stroke="none" target-height="96.42856" target-width="42.857147" target-x="222.7143" target-y="463.78574"></path><path d="M 776.29 512.00 L 775.98 524.57 L 775.12 536.90 L 773.72 549.00 L 771.78 560.90 L 769.31 572.60 L 766.28 584.25 L 762.78 595.62 L 758.80 606.73 L 754.35 617.60 L 749.42 628.23 L 744.01 638.66 L 738.19 648.77 L 731.95 658.57 L 725.30 668.08 L 718.23 677.30 L 710.75 686.21 L 702.92 694.74 L 694.74 702.92 L 686.21 710.75 L 677.30 718.23 L 668.08 725.30 L 658.57 731.95 L 648.77 738.19 L 638.66 744.01 L 628.23 749.42 L 617.60 754.35 L 606.73 758.80 L 595.62 762.78 L 584.25 766.28 L 572.60 769.31 L 560.90 771.78 L 549.00 773.72 L 536.90 775.12 L 524.57 775.98 L 512.00 776.29 L 499.43 775.98 L 487.10 775.12 L 475.00 773.72 L 463.10 771.78 L 451.40 769.31 L 439.75 766.28 L 428.38 762.78 L 417.27 758.80 L 406.40 754.35 L 395.77 749.42 L 385.34 744.01 L 375.23 738.19 L 365.43 731.95 L 355.92 725.30 L 346.70 718.23 L 337.79 710.75 L 329.26 702.92 L 321.08 694.74 L 313.25 686.21 L 305.77 677.30 L 298.70 668.08 L 292.05 658.57 L 285.81 648.77 L 279.99 638.66 L 274.58 628.23 L 269.65 617.60 L 265.20 606.73 L 261.22 595.62 L 257.72 584.25 L 254.69 572.60 L 252.22 560.90 L 250.28 549.00 L 248.88 536.90 L 248.02 524.57 L 247.71 512.00 L 248.02 499.43 L 248.88 487.10 L 250.28 475.00 L 252.22 463.10 L 254.69 451.40 L 257.72 439.75 L 261.22 428.38 L 265.20 417.27 L 269.65 406.40 L 274.58 395.77 L 279.99 385.34 L 285.81 375.23 L 292.05 365.43 L 298.70 355.92 L 305.77 346.70 L 313.25 337.79 L 321.08 329.26 L 329.26 321.08 L 337.79 313.25 L 346.70 305.77 L 355.92 298.70 L 365.43 292.05 L 375.23 285.81 L 385.34 279.99 L 395.77 274.58 L 406.40 269.65 L 417.27 265.20 L 428.38 261.22 L 439.75 257.72 L 451.40 254.69 L 463.10 252.22 L 475.00 250.28 L 487.10 248.88 L 499.43 248.02 L 512.00 247.71 L 524.57 248.02 L 536.90 248.88 L 549.00 250.28 L 560.90 252.22 L 572.60 254.69 L 584.25 257.72 L 595.62 261.22 L 606.73 265.20 L 617.60 269.65 L 628.23 274.58 L 638.66 279.99 L 648.77 285.81 L 658.57 292.05 L 668.08 298.70 L 677.30 305.77 L 686.21 313.25 L 694.74 321.08 L 702.92 329.26 L 710.75 337.79 L 718.23 346.70 L 725.30 355.92 L 731.95 365.43 L 738.19 375.23 L 744.01 385.34 L 749.42 395.77 L 754.35 406.40 L 758.80 417.27 L 762.78 428.38 L 766.28 439.75 L 769.31 451.40 L 771.78 463.10 L 773.72 475.00 L 775.12 487.10 L 775.98 499.43 L 776.29 512.00 Z" fill="#000000" fill-rule="evenodd" filter="url(#filter-9)" group-id="1,6,11" node-id="163" stroke="none" target-height="528.5714" target-width="528.5714" target-x="247.71428" target-y="247.71428"></path><path d="M 776.29 512.00 L 775.98 524.57 L 775.12 536.90 L 773.72 549.00 L 771.78 560.90 L 769.31 572.60 L 766.28 584.25 L 762.78 595.62 L 758.80 606.73 L 754.35 617.60 L 749.42 628.23 L 744.01 638.66 L 738.19 648.77 L 731.95 658.57 L 725.30 668.08 L 718.23 677.30 L 710.75 686.21 L 702.92 694.74 L 694.74 702.92 L 686.21 710.75 L 677.30 718.23 L 668.08 725.30 L 658.57 731.95 L 648.77 738.19 L 638.66 744.01 L 628.23 749.42 L 617.60 754.35 L 606.73 758.80 L 595.62 762.78 L 584.25 766.28 L 572.60 769.31 L 560.90 771.78 L 549.00 773.72 L 536.90 775.12 L 524.57 775.98 L 512.00 776.29 L 499.43 775.98 L 487.10 775.12 L 475.00 773.72 L 463.10 771.78 L 451.40 769.31 L 439.75 766.28 L 428.38 762.78 L 417.27 758.80 L 406.40 754.35 L 395.77 749.42 L 385.34 744.01 L 375.23 738.19 L 365.43 731.95 L 355.92 725.30 L 346.70 718.23 L 337.79 710.75 L 329.26 702.92 L 321.08 694.74 L 313.25 686.21 L 305.77 677.30 L 298.70 668.08 L 292.05 658.57 L 285.81 648.77 L 279.99 638.66 L 274.58 628.23 L 269.65 617.60 L 265.20 606.73 L 261.22 595.62 L 257.72 584.25 L 254.69 572.60 L 252.22 560.90 L 250.28 549.00 L 248.88 536.90 L 248.02 524.57 L 247.71 512.00 L 248.02 499.43 L 248.88 487.10 L 250.28 475.00 L 252.22 463.10 L 254.69 451.40 L 257.72 439.75 L 261.22 428.38 L 265.20 417.27 L 269.65 406.40 L 274.58 395.77 L 279.99 385.34 L 285.81 375.23 L 292.05 365.43 L 298.70 355.92 L 305.77 346.70 L 313.25 337.79 L 321.08 329.26 L 329.26 321.08 L 337.79 313.25 L 346.70 305.77 L 355.92 298.70 L 365.43 292.05 L 375.23 285.81 L 385.34 279.99 L 395.77 274.58 L 406.40 269.65 L 417.27 265.20 L 428.38 261.22 L 439.75 257.72 L 451.40 254.69 L 463.10 252.22 L 475.00 250.28 L 487.10 248.88 L 499.43 248.02 L 512.00 247.71 L 524.57 248.02 L 536.90 248.88 L 549.00 250.28 L 560.90 252.22 L 572.60 254.69 L 584.25 257.72 L 595.62 261.22 L 606.73 265.20 L 617.60 269.65 L 628.23 274.58 L 638.66 279.99 L 648.77 285.81 L 658.57 292.05 L 668.08 298.70 L 677.30 305.77 L 686.21 313.25 L 694.74 321.08 L 702.92 329.26 L 710.75 337.79 L 718.23 346.70 L 725.30 355.92 L 731.95 365.43 L 738.19 375.23 L 744.01 385.34 L 749.42 395.77 L 754.35 406.40 L 758.80 417.27 L 762.78 428.38 L 766.28 439.75 L 769.31 451.40 L 771.78 463.10 L 773.72 475.00 L 775.12 487.10 L 775.98 499.43 L 776.29 512.00 Z" fill="url(#linearGradient-7)" fill-rule="evenodd" group-id="1,6,12" node-id="168" stroke="none" target-height="528.5714" target-width="528.5714" target-x="247.71428" target-y="247.71428"></path><path d="M 304.86 504.86 L 306.77 505.12 L 308.46 505.83 L 309.91 506.95 L 311.02 508.39 L 311.74 510.09 L 312.00 512.00 L 312.23 521.51 L 312.88 530.84 L 313.94 540.00 L 315.41 549.00 L 317.28 557.86 L 320.20 568.84 L 323.68 579.51 L 327.72 589.87 L 332.33 599.95 L 337.50 609.78 L 343.15 619.24 L 349.30 628.34 L 355.94 637.09 L 363.05 645.47 L 370.58 653.42 L 378.53 660.95 L 386.91 668.06 L 395.66 674.70 L 404.76 680.85 L 414.22 686.50 L 424.05 691.67 L 434.13 696.28 L 444.49 700.32 L 455.16 703.80 L 466.14 706.72 L 475.00 708.59 L 484.00 710.06 L 493.16 711.12 L 502.49 711.77 L 512.00 712.00 L 513.91 712.26 L 515.61 712.98 L 517.05 714.09 L 518.17 715.54 L 518.88 717.23 L 519.14 719.14 L 518.88 721.06 L 518.17 722.75 L 517.05 724.19 L 515.61 725.31 L 513.91 726.03 L 512.00 726.29 L 501.81 726.04 L 491.81 725.34 L 482.00 724.21 L 472.35 722.63 L 462.87 720.63 L 453.42 718.17 L 444.20 715.33 L 435.19 712.11 L 426.38 708.50 L 417.76 704.51 L 409.31 700.12 L 401.11 695.40 L 393.16 690.34 L 385.45 684.95 L 377.98 679.21 L 368.99 671.59 L 360.48 663.52 L 352.41 655.01 L 344.79 646.02 L 339.05 638.55 L 333.66 630.84 L 328.60 622.89 L 323.88 614.69 L 319.49 606.24 L 315.50 597.62 L 311.89 588.81 L 308.67 579.80 L 305.83 570.58 L 303.37 561.13 L 301.37 551.65 L 299.79 542.00 L 298.66 532.19 L 297.96 522.19 L 297.71 512.00 L 297.97 510.09 L 298.69 508.39 L 299.81 506.95 L 301.25 505.83 L 302.94 505.12 L 304.86 504.86 Z M 512.00 297.71 L 522.19 297.96 L 532.19 298.66 L 542.00 299.79 L 551.65 301.37 L 561.13 303.37 L 570.58 305.83 L 579.80 308.67 L 588.81 311.89 L 597.62 315.50 L 606.24 319.49 L 614.69 323.88 L 622.89 328.60 L 630.84 333.66 L 638.55 339.05 L 646.02 344.79 L 655.01 352.41 L 663.52 360.48 L 671.59 368.99 L 679.21 377.98 L 684.95 385.45 L 690.34 393.16 L 695.40 401.11 L 700.12 409.31 L 704.51 417.76 L 708.50 426.38 L 712.11 435.19 L 715.33 444.20 L 718.17 453.42 L 720.63 462.87 L 722.63 472.35 L 724.21 482.00 L 725.34 491.81 L 726.04 501.81 L 726.29 512.00 L 726.03 513.91 L 725.31 515.61 L 724.19 517.05 L 722.75 518.17 L 721.06 518.88 L 719.14 519.14 L 717.23 518.88 L 715.54 518.17 L 714.09 517.05 L 712.98 515.61 L 712.26 513.91 L 712.00 512.00 L 711.77 502.49 L 711.12 493.16 L 710.06 484.00 L 708.59 475.00 L 706.72 466.14 L 703.80 455.16 L 700.32 444.49 L 696.28 434.13 L 691.67 424.05 L 686.50 414.22 L 680.85 404.76 L 674.70 395.66 L 668.06 386.91 L 660.95 378.53 L 653.42 370.58 L 645.47 363.05 L 637.09 355.94 L 628.34 349.30 L 619.24 343.15 L 609.78 337.50 L 599.95 332.33 L 589.87 327.72 L 579.51 323.68 L 568.84 320.20 L 557.86 317.28 L 549.00 315.41 L 540.00 313.94 L 530.84 312.88 L 521.51 312.23 L 512.00 312.00 L 510.09 311.74 L 508.39 311.02 L 506.95 309.91 L 505.83 308.46 L 505.12 306.77 L 504.86 304.86 L 505.12 302.94 L 505.83 301.25 L 506.95 299.81 L 508.39 298.69 L 510.09 297.97 L 512.00 297.71 Z" fill="url(#linearGradient-10)" fill-rule="nonzero" group-id="1" id="形状" node-id="58" stroke="none" target-height="428.5714" target-width="428.5714" target-x="297.7143" target-y="297.7143"></path><path d="M 484.63 306.53 L 484.69 308.46 L 484.26 310.24 L 483.40 311.85 L 482.16 313.19 L 480.61 314.18 L 478.76 314.75 L 468.73 316.70 L 458.95 319.12 L 449.40 321.99 L 440.07 325.31 L 430.95 329.10 L 422.00 333.35 L 413.34 337.99 L 404.96 343.02 L 396.85 348.45 L 389.01 354.28 L 381.45 360.49 L 374.23 367.02 L 367.35 373.88 L 360.80 381.08 L 354.57 388.63 L 348.73 396.46 L 343.28 404.55 L 338.23 412.92 L 333.57 421.57 L 329.30 430.51 L 325.49 439.62 L 322.14 448.94 L 319.25 458.48 L 316.81 468.25 L 314.83 478.28 L 314.25 480.12 L 313.26 481.67 L 311.92 482.91 L 310.31 483.77 L 308.52 484.19 L 306.59 484.13 L 304.75 483.55 L 303.20 482.56 L 301.96 481.22 L 301.10 479.61 L 300.68 477.82 L 300.75 475.89 L 302.87 465.14 L 305.48 454.67 L 308.58 444.44 L 312.17 434.46 L 316.25 424.70 L 320.82 415.11 L 325.82 405.85 L 331.23 396.88 L 337.06 388.21 L 343.33 379.82 L 350.00 371.73 L 357.02 364.02 L 364.39 356.66 L 372.12 349.66 L 380.22 343.01 L 388.63 336.77 L 397.32 330.95 L 406.29 325.56 L 415.58 320.59 L 425.17 316.04 L 434.94 311.98 L 444.94 308.42 L 455.17 305.34 L 465.65 302.75 L 476.41 300.66 L 478.34 300.60 L 480.12 301.03 L 481.73 301.89 L 483.07 303.13 L 484.06 304.68 L 484.63 306.53 Z M 717.26 540.98 L 719.10 541.57 L 720.64 542.57 L 721.87 543.92 L 722.72 545.53 L 723.13 547.32 L 723.06 549.25 L 720.98 559.55 L 718.45 569.61 L 715.46 579.44 L 712.02 589.05 L 708.13 598.45 L 703.78 607.69 L 699.04 616.64 L 693.90 625.32 L 688.38 633.73 L 682.45 641.88 L 676.14 649.75 L 669.51 657.29 L 662.54 664.50 L 655.24 671.38 L 647.58 677.95 L 639.63 684.15 L 631.42 689.96 L 622.93 695.38 L 614.14 700.42 L 605.06 705.08 L 595.80 709.29 L 586.33 713.05 L 576.62 716.37 L 566.66 719.24 L 556.45 721.67 L 554.53 721.81 L 552.73 721.46 L 551.08 720.66 L 549.69 719.48 L 548.64 717.97 L 547.99 716.15 L 547.85 714.23 L 548.20 712.42 L 549.00 710.78 L 550.18 709.39 L 551.69 708.34 L 553.51 707.69 L 563.03 705.42 L 572.32 702.74 L 581.38 699.65 L 590.22 696.14 L 598.86 692.21 L 607.34 687.86 L 615.53 683.15 L 623.46 678.09 L 631.13 672.67 L 638.54 666.89 L 645.69 660.76 L 652.51 654.33 L 659.01 647.60 L 665.20 640.57 L 671.09 633.22 L 676.62 625.61 L 681.78 617.76 L 686.57 609.67 L 690.99 601.31 L 695.05 592.69 L 698.69 583.92 L 701.90 574.95 L 704.68 565.78 L 707.05 556.40 L 708.99 546.79 L 709.57 544.95 L 710.57 543.40 L 711.92 542.17 L 713.54 541.32 L 715.33 540.91 L 717.26 540.98 Z" fill="url(#linearGradient-11)" fill-rule="nonzero" group-id="1,7" id="形状" node-id="59" stroke="none" target-height="421.21036" target-width="422.45282" target-x="300.68036" target-y="300.59824"></path><path d="M 633.43 504.86 L 635.34 505.12 L 637.03 505.83 L 638.48 506.95 L 639.60 508.39 L 640.31 510.09 L 640.57 512.00 L 640.26 520.90 L 639.38 529.54 L 637.96 537.96 L 635.98 546.18 L 633.45 554.28 L 630.45 562.09 L 626.97 569.62 L 623.02 576.89 L 618.59 583.91 L 613.77 590.58 L 608.55 596.91 L 602.91 602.91 L 596.91 608.55 L 590.58 613.77 L 583.91 618.59 L 576.89 623.02 L 569.62 626.97 L 562.09 630.45 L 554.28 633.45 L 546.18 635.98 L 537.96 637.96 L 529.54 639.38 L 520.90 640.26 L 512.00 640.57 L 510.09 640.31 L 508.39 639.60 L 506.95 638.48 L 505.83 637.03 L 505.12 635.34 L 504.86 633.43 L 505.12 631.52 L 505.83 629.82 L 506.95 628.38 L 508.39 627.26 L 510.09 626.54 L 512.00 626.29 L 519.91 626.01 L 527.59 625.23 L 535.08 623.96 L 542.38 622.20 L 549.58 619.96 L 556.52 617.29 L 563.22 614.20 L 569.68 610.68 L 575.92 606.75 L 581.85 602.47 L 587.47 597.82 L 592.81 592.81 L 597.82 587.47 L 602.47 581.85 L 606.75 575.92 L 610.68 569.68 L 614.20 563.22 L 617.29 556.52 L 619.96 549.58 L 622.20 542.38 L 623.96 535.08 L 625.23 527.59 L 626.01 519.91 L 626.29 512.00 L 626.54 510.09 L 627.26 508.39 L 628.38 506.95 L 629.82 505.83 L 631.52 505.12 L 633.43 504.86 Z M 512.00 383.43 L 513.91 383.69 L 515.61 384.40 L 517.05 385.52 L 518.17 386.97 L 518.88 388.66 L 519.14 390.57 L 518.88 392.48 L 518.17 394.18 L 517.05 395.62 L 515.61 396.74 L 513.91 397.46 L 512.00 397.71 L 504.09 397.99 L 496.41 398.77 L 488.92 400.04 L 481.62 401.80 L 474.42 404.04 L 467.48 406.71 L 460.78 409.80 L 454.32 413.32 L 448.08 417.25 L 442.15 421.53 L 436.53 426.18 L 431.19 431.19 L 426.18 436.53 L 421.53 442.15 L 417.25 448.08 L 413.32 454.32 L 409.80 460.78 L 406.71 467.48 L 404.04 474.42 L 401.80 481.62 L 400.04 488.92 L 398.77 496.41 L 397.99 504.09 L 397.71 512.00 L 397.46 513.91 L 396.74 515.61 L 395.62 517.05 L 394.18 518.17 L 392.48 518.88 L 390.57 519.14 L 388.66 518.88 L 386.97 518.17 L 385.52 517.05 L 384.40 515.61 L 383.69 513.91 L 383.43 512.00 L 383.74 503.10 L 384.62 494.46 L 386.04 486.04 L 388.02 477.82 L 390.55 469.72 L 393.55 461.91 L 397.03 454.38 L 400.98 447.11 L 405.41 440.09 L 410.23 433.42 L 415.45 427.09 L 421.09 421.09 L 427.09 415.45 L 433.42 410.23 L 440.09 405.41 L 447.11 400.98 L 454.38 397.03 L 461.91 393.55 L 469.72 390.55 L 477.82 388.02 L 486.04 386.04 L 494.46 384.62 L 503.10 383.74 L 512.00 383.43 Z" fill="#ff3959" fill-rule="nonzero" group-id="1" id="形状" node-id="60" stroke="none" target-height="257.14285" target-width="257.14285" target-x="383.42856" target-y="383.42856"></path><path d="M 559.97 404.86 L 564.89 405.07 L 569.63 405.64 L 574.22 406.58 L 578.68 407.87 L 584.44 410.14 L 589.84 412.94 L 594.92 416.27 L 599.63 420.11 L 603.89 424.37 L 607.73 429.08 L 611.06 434.16 L 613.86 439.56 L 616.13 445.32 L 617.42 449.78 L 618.36 454.37 L 618.93 459.11 L 619.14 464.03 L 618.93 468.94 L 618.36 473.68 L 617.42 478.27 L 616.13 482.73 L 613.86 488.49 L 611.06 493.90 L 607.73 498.97 L 603.89 503.68 L 599.63 507.94 L 594.92 511.78 L 589.84 515.11 L 584.44 517.91 L 578.68 520.18 L 574.22 521.47 L 569.63 522.41 L 564.89 522.99 L 559.97 523.19 L 557.93 523.00 L 556.06 522.49 L 554.32 521.67 L 552.75 520.55 L 551.42 519.22 L 550.31 517.65 L 549.48 515.92 L 548.97 514.04 L 548.78 512.00 L 548.95 510.06 L 549.41 508.27 L 550.17 506.60 L 551.18 505.08 L 552.40 503.76 L 553.84 502.64 L 555.43 501.76 L 557.17 501.16 L 559.06 500.84 L 559.97 500.81 L 563.79 500.60 L 567.44 500.05 L 570.93 499.15 L 574.29 497.92 L 578.56 495.77 L 582.45 493.15 L 585.98 490.03 L 589.10 486.50 L 591.72 482.61 L 593.86 478.34 L 595.10 474.98 L 596.00 471.49 L 596.55 467.84 L 596.75 464.03 L 596.55 460.21 L 596.00 456.56 L 595.10 453.07 L 593.86 449.71 L 591.72 445.44 L 589.10 441.55 L 585.98 438.02 L 582.45 434.90 L 578.56 432.28 L 574.29 430.14 L 570.93 428.90 L 567.44 428.00 L 563.79 427.45 L 559.97 427.25 L 555.04 427.58 L 550.38 428.50 L 545.97 430.01 L 541.77 432.06 L 537.94 434.57 L 534.44 437.56 L 531.33 440.95 L 528.68 444.69 L 526.49 448.79 L 524.83 453.14 L 523.74 457.74 L 523.22 462.61 L 523.19 464.03 L 523.19 561.20 L 523.15 562.16 L 522.78 566.91 L 522.07 571.50 L 521.02 575.94 L 519.63 580.25 L 517.27 585.80 L 514.41 591.01 L 511.05 595.90 L 507.21 600.42 L 502.97 604.52 L 498.31 608.20 L 493.31 611.40 L 487.99 614.09 L 482.33 616.26 L 477.97 617.50 L 473.47 618.39 L 468.83 618.94 L 464.03 619.14 L 459.11 618.93 L 454.37 618.36 L 449.78 617.42 L 445.32 616.13 L 439.56 613.86 L 434.16 611.06 L 429.08 607.73 L 424.37 603.89 L 420.11 599.63 L 416.27 594.92 L 412.94 589.84 L 410.14 584.44 L 407.87 578.68 L 406.58 574.22 L 405.64 569.63 L 405.07 564.89 L 404.86 559.97 L 405.07 555.06 L 405.64 550.32 L 406.58 545.73 L 407.87 541.27 L 410.14 535.51 L 412.94 530.10 L 416.27 525.03 L 420.11 520.32 L 424.37 516.06 L 429.08 512.22 L 434.16 508.89 L 439.56 506.09 L 445.32 503.82 L 449.78 502.53 L 454.37 501.59 L 459.11 501.01 L 464.03 500.81 L 466.07 501.00 L 467.94 501.51 L 469.68 502.33 L 471.25 503.45 L 472.58 504.78 L 473.69 506.35 L 474.52 508.08 L 475.03 509.96 L 475.22 512.00 L 475.03 514.04 L 474.52 515.92 L 473.69 517.65 L 472.58 519.22 L 471.25 520.55 L 469.68 521.67 L 467.94 522.49 L 466.07 523.00 L 464.03 523.19 L 460.21 523.40 L 456.56 523.95 L 453.07 524.85 L 449.71 526.08 L 445.44 528.23 L 441.55 530.85 L 438.02 533.97 L 434.90 537.50 L 432.28 541.39 L 430.14 545.66 L 428.90 549.02 L 428.00 552.51 L 427.45 556.16 L 427.25 559.97 L 427.45 563.79 L 428.00 567.44 L 428.90 570.93 L 430.14 574.29 L 432.28 578.56 L 434.90 582.45 L 438.02 585.98 L 441.55 589.10 L 445.44 591.72 L 449.71 593.86 L 453.07 595.10 L 456.56 596.00 L 460.21 596.55 L 464.03 596.75 L 468.96 596.42 L 473.62 595.50 L 478.03 593.99 L 482.23 591.94 L 486.06 589.43 L 489.56 586.44 L 492.67 583.05 L 495.32 579.31 L 497.51 575.21 L 499.17 570.86 L 500.26 566.26 L 500.78 561.39 L 500.81 559.97 L 500.81 464.03 L 501.01 459.11 L 501.59 454.37 L 502.53 449.78 L 503.82 445.32 L 506.09 439.56 L 508.89 434.16 L 512.22 429.08 L 516.06 424.37 L 520.32 420.11 L 525.03 416.27 L 530.10 412.94 L 535.51 410.14 L 541.27 407.87 L 545.73 406.58 L 550.32 405.64 L 555.06 405.07 L 559.97 404.86 Z" fill="url(#linearGradient-12)" fill-rule="evenodd" group-id="1" id="形状结合" node-id="61" stroke="none" target-height="214.28574" target-width="214.28574" target-x="404.85715" target-y="404.85715"></path></g></svg>