<?xml version="1.0" standalone="no"?><!DOCTYPE svg PUBLIC "-//W3C//DTD SVG 1.1//EN" "http://www.w3.org/Graphics/SVG/1.1/DTD/svg11.dtd"><svg height="1200" node-id="1" sillyvg="true" template-height="1200" template-width="1200" version="1.1" viewBox="0 0 1200 1200" width="1200" xmlns="http://www.w3.org/2000/svg" xmlns:xlink="http://www.w3.org/1999/xlink"><defs node-id="109"><linearGradient gradientUnits="userSpaceOnUse" id="SVGID_1_" node-id="16" spreadMethod="pad" x1="203.1248" x2="877.9561" y1="320.0361" y2="320.0361"><stop offset="0" stop-color="#405ab1"></stop><stop offset="1" stop-color="#0b1066"></stop></linearGradient><linearGradient gradientUnits="userSpaceOnUse" id="SVGID_2_" node-id="52" spreadMethod="pad" x1="629.2775" x2="1021.4382" y1="622.0285" y2="622.0285"><stop offset="0" stop-color="#405ab1"></stop><stop offset="1" stop-color="#0b1066"></stop></linearGradient><linearGradient gradientUnits="userSpaceOnUse" id="SVGID_3_" node-id="72" spreadMethod="pad" x1="230.2603" x2="511.6727" y1="400.5025" y2="887.923"><stop offset="0" stop-color="#405ab1"></stop><stop offset="1" stop-color="#0b1066"></stop></linearGradient></defs><g node-id="346"><path d="M 449.40 281.26 C 523.02 297.14 711.17 149.62 836.19 268.28 C 961.21 386.94 1044.93 399.00 1092.93 538.67 C 1140.93 678.34 1072.84 996.01 675.44 939.15 C 602.88 920.61 525.86 913.19 425.39 923.08 C 324.92 932.97 111.72 966.35 82.70 690.71 C 53.68 415.07 161.40 219.15 449.40 281.26 Z" fill="#f3f6fa" fill-rule="nonzero" group-id="1" node-id="133" stroke="none" target-height="846.39" target-width="1087.25" target-x="53.68" target-y="149.62"></path><path d="M 870.88 934.01 C 870.88 956.14 852.94 974.08 830.81 974.08 C 808.68 974.08 790.74 956.14 790.74 934.01 C 790.74 911.88 808.68 893.94 830.81 893.94 C 852.94 893.94 870.88 911.88 870.88 934.01 Z" fill="#fce088" fill-rule="nonzero" group-id="1" node-id="135" stroke="none" target-height="80.140015" target-width="80.140015" target-x="790.74" target-y="893.94"></path><path d="M 213.24 309.03 C 213.24 341.84 186.65 368.43 153.84 368.43 C 121.03 368.43 94.44 341.84 94.44 309.03 C 94.44 276.22 121.03 249.63 153.84 249.63 C 186.65 249.63 213.24 276.22 213.24 309.03 Z" fill="#d4f1f3" fill-rule="nonzero" group-id="1" node-id="137" stroke="none" target-height="118.79999" target-width="118.8" target-x="94.44" target-y="249.63"></path><path d="M 280.98 866.26 C 280.98 899.07 254.39 925.66 221.58 925.66 C 188.77 925.66 162.18 899.07 162.18 866.26 C 162.18 833.45 188.77 806.86 221.58 806.86 C 254.39 806.86 280.98 833.45 280.98 866.26 Z" fill="#fabbd8" fill-rule="nonzero" group-id="1" node-id="139" stroke="none" target-height="118.79999" target-width="118.80002" target-x="162.18" target-y="806.86"></path><path d="M 1118.50 684.73 C 1118.50 695.80 1109.53 704.77 1098.46 704.77 C 1087.39 704.77 1078.42 695.80 1078.42 684.73 C 1078.42 673.66 1087.39 664.69 1098.46 664.69 C 1109.53 664.69 1118.50 673.66 1118.50 684.73 Z" fill="#c7d8fd" fill-rule="nonzero" group-id="1" node-id="141" stroke="none" target-height="40.080017" target-width="40.079956" target-x="1078.42" target-y="664.69"></path><path d="M 556.99 992.66 C 556.99 1018.49 536.05 1039.43 510.22 1039.43 C 484.39 1039.43 463.45 1018.49 463.45 992.66 C 463.45 966.83 484.39 945.89 510.22 945.89 C 536.05 945.89 556.99 966.83 556.99 992.66 Z" fill="#c7d8fd" fill-rule="nonzero" group-id="1" node-id="143" stroke="none" target-height="93.54004" target-width="93.53998" target-x="463.45" target-y="945.89"></path><path d="M 960.34 269.67 C 960.34 280.74 951.37 289.71 940.30 289.71 C 929.23 289.71 920.26 280.74 920.26 269.67 C 920.26 258.60 929.23 249.63 940.30 249.63 C 951.37 249.63 960.34 258.60 960.34 269.67 Z" fill="#fabbd8" fill-rule="nonzero" group-id="1" node-id="145" stroke="none" target-height="40.079987" target-width="40.080017" target-x="920.26" target-y="249.63"></path><g node-id="347"><path d="M 866.69 810.95 L 214.39 810.95 C 208.17 810.95 203.13 805.91 203.13 799.69 L 203.13 309.12 C 203.13 302.90 208.17 297.86 214.39 297.86 L 866.69 297.86 C 872.91 297.86 877.95 302.90 877.95 309.12 L 877.95 799.69 C 877.96 805.91 872.91 810.95 866.69 810.95 Z" fill="#ffffff" fill-rule="nonzero" group-id="1,2" node-id="149" stroke="none" target-height="513.09" target-width="674.83" target-x="203.13" target-y="297.86"></path><path d="M 330.51 810.95 L 214.39 810.95 C 208.17 810.95 203.13 805.91 203.13 799.69 L 203.13 309.12 C 203.13 302.90 208.17 297.86 214.39 297.86 L 330.51 297.86 L 330.51 810.95 Z" fill="#6179ef" fill-rule="nonzero" group-id="1,2" node-id="151" stroke="none" target-height="513.09" target-width="127.380005" target-x="203.13" target-y="297.86"></path><path d="M 877.96 342.22 L 203.12 342.22 L 203.12 309.12 C 203.12 302.90 208.16 297.86 214.38 297.86 L 866.68 297.86 C 872.90 297.86 877.94 302.90 877.94 309.12 L 877.94 342.22 Z" fill="url(#SVGID_1_)" fill-rule="nonzero" group-id="1,2" node-id="153" stroke="none" target-height="44.360016" target-width="674.84" target-x="203.12" target-y="297.86"></path><g node-id="351"><path d="M 247.25 376.09 L 308.67 376.09 L 308.67 385.87 L 247.25 385.87 Z" fill="#ffffff" fill-rule="nonzero" group-id="1,2,6" node-id="157" stroke="none" target-height="9.779999" target-width="61.420013" target-x="247.25" target-y="376.09"></path><path d="M 229.84 365.00 C 223.58 365.00 218.51 370.07 218.51 376.33 C 218.51 382.59 223.58 387.66 229.84 387.66 C 236.10 387.66 241.17 382.59 241.17 376.33 C 241.17 370.07 236.10 365.00 229.84 365.00 Z" fill="#ffffff" fill-rule="nonzero" group-id="1,2,6" node-id="159" stroke="none" target-height="22.660004" target-width="22.660004" target-x="218.51" target-y="365"></path><path d="M 247.25 413.33 L 308.67 413.33 L 308.67 423.11 L 247.25 423.11 Z" fill="#ffffff" fill-rule="nonzero" group-id="1,2,6" node-id="161" stroke="none" target-height="9.779999" target-width="61.420013" target-x="247.25" target-y="413.33"></path><path d="M 229.84 402.23 C 223.58 402.23 218.51 407.30 218.51 413.56 C 218.51 419.82 223.58 424.89 229.84 424.89 C 236.10 424.89 241.17 419.82 241.17 413.56 C 241.17 407.31 236.10 402.23 229.84 402.23 Z" fill="#ffffff" fill-rule="nonzero" group-id="1,2,6" node-id="163" stroke="none" target-height="22.660004" target-width="22.660004" target-x="218.51" target-y="402.23"></path><path d="M 247.25 448.55 L 308.67 448.55 L 308.67 458.33 L 247.25 458.33 Z" fill="#ffffff" fill-rule="nonzero" group-id="1,2,6" node-id="165" stroke="none" target-height="9.779999" target-width="61.420013" target-x="247.25" target-y="448.55"></path><path d="M 229.84 437.46 C 223.58 437.46 218.51 442.53 218.51 448.79 C 218.51 455.05 223.58 460.12 229.84 460.12 C 236.10 460.12 241.17 455.05 241.17 448.79 C 241.17 442.53 236.10 437.46 229.84 437.46 Z" fill="#ffffff" fill-rule="nonzero" group-id="1,2,6" node-id="167" stroke="none" target-height="22.660004" target-width="22.660004" target-x="218.51" target-y="437.46"></path><path d="M 247.25 519.69 L 308.67 519.69 L 308.67 529.47 L 247.25 529.47 Z" fill="#ffffff" fill-rule="nonzero" group-id="1,2,6" node-id="169" stroke="none" target-height="9.779968" target-width="61.420013" target-x="247.25" target-y="519.69"></path><path d="M 229.84 508.60 C 223.58 508.60 218.51 513.67 218.51 519.93 C 218.51 526.19 223.58 531.26 229.84 531.26 C 236.10 531.26 241.17 526.19 241.17 519.93 C 241.17 513.68 236.10 508.60 229.84 508.60 Z" fill="#ffffff" fill-rule="nonzero" group-id="1,2,6" node-id="171" stroke="none" target-height="22.660004" target-width="22.660004" target-x="218.51" target-y="508.6"></path><path d="M 247.25 556.93 L 308.67 556.93 L 308.67 566.71 L 247.25 566.71 Z" fill="#ffffff" fill-rule="nonzero" group-id="1,2,6" node-id="173" stroke="none" target-height="9.780029" target-width="61.420013" target-x="247.25" target-y="556.93"></path><path d="M 229.84 545.83 C 223.58 545.83 218.51 550.90 218.51 557.16 C 218.51 563.42 223.58 568.49 229.84 568.49 C 236.10 568.49 241.17 563.42 241.17 557.16 C 241.17 550.91 236.10 545.83 229.84 545.83 Z" fill="#ffffff" fill-rule="nonzero" group-id="1,2,6" node-id="175" stroke="none" target-height="22.659973" target-width="22.660004" target-x="218.51" target-y="545.83"></path><path d="M 247.25 592.15 L 308.67 592.15 L 308.67 601.93 L 247.25 601.93 Z" fill="#ffffff" fill-rule="nonzero" group-id="1,2,6" node-id="177" stroke="none" target-height="9.779968" target-width="61.420013" target-x="247.25" target-y="592.15"></path><path d="M 229.84 581.06 C 223.58 581.06 218.51 586.13 218.51 592.39 C 218.51 598.65 223.58 603.72 229.84 603.72 C 236.10 603.72 241.17 598.65 241.17 592.39 C 241.17 586.13 236.10 581.06 229.84 581.06 Z" fill="#ffffff" fill-rule="nonzero" group-id="1,2,6" node-id="179" stroke="none" target-height="22.659973" target-width="22.660004" target-x="218.51" target-y="581.06"></path><path d="M 247.25 633.02 L 308.67 633.02 L 308.67 642.80 L 247.25 642.80 Z" fill="#ffffff" fill-rule="nonzero" group-id="1,2,6" node-id="181" stroke="none" target-height="9.779968" target-width="61.420013" target-x="247.25" target-y="633.02"></path><path d="M 229.84 621.93 C 223.58 621.93 218.51 627.00 218.51 633.26 C 218.51 639.52 223.58 644.59 229.84 644.59 C 236.10 644.59 241.17 639.52 241.17 633.26 C 241.17 627.00 236.10 621.93 229.84 621.93 Z" fill="#ffffff" fill-rule="nonzero" group-id="1,2,6" node-id="183" stroke="none" target-height="22.660034" target-width="22.660004" target-x="218.51" target-y="621.93"></path><path d="M 247.25 668.25 L 308.67 668.25 L 308.67 678.03 L 247.25 678.03 Z" fill="#ffffff" fill-rule="nonzero" group-id="1,2,6" node-id="185" stroke="none" target-height="9.780029" target-width="61.420013" target-x="247.25" target-y="668.25"></path><path d="M 229.84 657.15 C 223.58 657.15 218.51 662.22 218.51 668.48 C 218.51 674.74 223.58 679.81 229.84 679.81 C 236.10 679.81 241.17 674.74 241.17 668.48 C 241.17 662.23 236.10 657.15 229.84 657.15 Z" fill="#ffffff" fill-rule="nonzero" group-id="1,2,6" node-id="187" stroke="none" target-height="22.659973" target-width="22.660004" target-x="218.51" target-y="657.15"></path></g><path d="M 330.51 785.91 L 223.23 785.91 C 221.22 785.91 219.59 784.28 219.59 782.27 L 219.59 698.32 C 219.59 696.31 221.22 694.68 223.23 694.68 L 330.51 694.68 L 330.51 785.91 Z" fill="#ffffff" fill-rule="nonzero" group-id="1,2" node-id="190" stroke="none" target-height="91.22998" target-width="110.92001" target-x="219.59" target-y="694.68"></path><path d="M 677.93 550.23 L 523.14 550.23 C 522.54 550.23 522.05 549.74 522.05 549.14 L 522.05 515.53 C 522.05 514.93 522.54 514.44 523.14 514.44 L 677.93 514.44 C 678.53 514.44 679.02 514.93 679.02 515.53 L 679.02 549.14 C 679.01 549.74 678.53 550.23 677.93 550.23 Z" fill="#dee8ff" fill-rule="nonzero" group-id="1,2" node-id="192" stroke="none" target-height="35.789978" target-width="156.97003" target-x="522.05" target-y="514.44"></path><path d="M 677.93 599.61 L 523.14 599.61 C 522.54 599.61 522.05 599.12 522.05 598.52 L 522.05 564.91 C 522.05 564.31 522.54 563.82 523.14 563.82 L 677.93 563.82 C 678.53 563.82 679.02 564.31 679.02 564.91 L 679.02 598.52 C 679.01 599.12 678.53 599.61 677.93 599.61 Z" fill="#dee8ff" fill-rule="nonzero" group-id="1,2" node-id="194" stroke="none" target-height="35.789978" target-width="156.97003" target-x="522.05" target-y="563.82"></path><path d="M 850.39 550.23 L 695.60 550.23 C 695.00 550.23 694.51 549.74 694.51 549.14 L 694.51 515.53 C 694.51 514.93 695.00 514.44 695.60 514.44 L 850.39 514.44 C 850.99 514.44 851.48 514.93 851.48 515.53 L 851.48 549.14 C 851.48 549.74 850.99 550.23 850.39 550.23 Z" fill="#dee8ff" fill-rule="nonzero" group-id="1,2" node-id="196" stroke="none" target-height="35.789978" target-width="156.96997" target-x="694.51" target-y="514.44"></path><path d="M 850.39 599.61 L 695.60 599.61 C 695.00 599.61 694.51 599.12 694.51 598.52 L 694.51 564.91 C 694.51 564.31 695.00 563.82 695.60 563.82 L 850.39 563.82 C 850.99 563.82 851.48 564.31 851.48 564.91 L 851.48 598.52 C 851.48 599.12 850.99 599.61 850.39 599.61 Z" fill="#dee8ff" fill-rule="nonzero" group-id="1,2" node-id="198" stroke="none" target-height="35.789978" target-width="156.96997" target-x="694.51" target-y="563.82"></path></g><g node-id="348"><g node-id="352"><path d="M 1024.24 518.98 L 593.77 518.98 C 591.43 518.98 589.54 517.08 589.54 514.75 L 589.54 356.67 C 589.54 354.33 591.44 352.44 593.77 352.44 L 1024.24 352.44 C 1026.58 352.44 1028.47 354.34 1028.47 356.67 L 1028.47 514.75 C 1028.48 517.08 1026.58 518.98 1024.24 518.98 Z" fill="#0b1066" fill-opacity="0.19" fill-rule="nonzero" group-id="1,3,7" node-id="205" stroke="none" target-height="166.53998" target-width="438.94" target-x="589.54" target-y="352.44"></path></g><path d="M 1002.75 501.53 L 593.77 501.53 C 591.43 501.53 589.54 499.63 589.54 497.30 L 589.54 356.67 C 589.54 354.33 591.44 352.44 593.77 352.44 L 1002.75 352.44 C 1005.09 352.44 1006.98 354.34 1006.98 356.67 L 1006.98 497.29 C 1006.98 499.63 1005.09 501.53 1002.75 501.53 Z" fill="#f5634a" fill-rule="nonzero" group-id="1,3" node-id="208" stroke="none" target-height="149.09" target-width="417.44" target-x="589.54" target-y="352.44"></path><path d="M 612.92 419.47 L 858.14 419.47 L 858.14 432.83 L 612.92 432.83 Z" fill="#ffffff" fill-rule="nonzero" group-id="1,3" node-id="210" stroke="none" target-height="13.359985" target-width="245.22003" target-x="612.92" target-y="419.47"></path><path d="M 612.92 452.98 L 858.14 452.98 L 858.14 466.34 L 612.92 466.34 Z" fill="#ffffff" fill-rule="nonzero" group-id="1,3" node-id="212" stroke="none" target-height="13.359985" target-width="245.22003" target-x="612.92" target-y="452.98"></path><path d="M 612.92 385.95 L 722.17 385.95 L 722.17 399.31 L 612.92 399.31 Z" fill="#ffffff" fill-rule="nonzero" group-id="1,3" node-id="214" stroke="none" target-height="13.359985" target-width="109.25" target-x="612.92" target-y="385.95"></path><path d="M 931.13 381.23 L 946.13 411.64 L 979.69 416.51 L 955.41 440.18 L 961.14 473.60 L 931.13 457.82 L 901.12 473.60 L 906.85 440.18 L 882.57 416.51 L 916.12 411.64 Z" fill="#ffffff" fill-rule="nonzero" group-id="1,3" node-id="216" stroke="none" target-height="92.369995" target-width="97.119995" target-x="882.57" target-y="381.23"></path></g><g node-id="349"><g node-id="353"><path d="M 1033.56 855.32 L 634.69 855.32 C 631.70 855.32 629.28 852.90 629.28 849.91 L 629.28 612.41 C 629.28 609.42 631.70 607.00 634.69 607.00 L 1033.56 607.00 C 1036.55 607.00 1038.97 609.42 1038.97 612.41 L 1038.97 849.91 C 1038.97 852.90 1036.55 855.32 1033.56 855.32 Z" fill="#0b1066" fill-opacity="0.19" fill-rule="nonzero" group-id="1,4,8" node-id="223" stroke="none" target-height="248.32" target-width="409.68994" target-x="629.28" target-y="607"></path></g><path d="M 1016.03 837.43 L 634.69 837.43 C 631.70 837.43 629.28 835.01 629.28 832.02 L 629.28 612.41 C 629.28 609.42 631.70 607.00 634.69 607.00 L 1016.03 607.00 C 1019.02 607.00 1021.44 609.42 1021.44 612.41 L 1021.44 832.02 C 1021.44 835.01 1019.02 837.43 1016.03 837.43 Z" fill="#ffffff" fill-rule="nonzero" group-id="1,4" node-id="226" stroke="none" target-height="230.43" target-width="392.15997" target-x="629.28" target-y="607"></path><path d="M 1021.44 637.06 L 629.28 637.06 L 629.28 612.41 C 629.28 609.42 631.70 607.00 634.69 607.00 L 1016.03 607.00 C 1019.02 607.00 1021.44 609.42 1021.44 612.41 L 1021.44 637.06 Z" fill="url(#SVGID_2_)" fill-rule="nonzero" group-id="1,4" node-id="228" stroke="none" target-height="30.059998" target-width="392.15997" target-x="629.28" target-y="607"></path><path d="M 925.72 677.67 L 999.25 677.67 L 999.25 702.72 L 925.72 702.72 Z" fill="#6179ef" fill-rule="nonzero" group-id="1,4" node-id="230" stroke="none" target-height="25.049988" target-width="73.53003" target-x="925.72" target-y="677.67"></path><path d="M 925.72 711.84 L 999.25 711.84 L 999.25 720.61 L 925.72 720.61 Z" fill="#f5634a" fill-rule="nonzero" group-id="1,4" node-id="232" stroke="none" target-height="8.7699585" target-width="73.53003" target-x="925.72" target-y="711.84"></path><path d="M 925.72 772.85 L 999.25 772.85 L 999.25 797.90 L 925.72 797.90 Z" fill="#fbd72a" fill-rule="nonzero" group-id="1,4" node-id="234" stroke="none" target-height="25.050049" target-width="73.53003" target-x="925.72" target-y="772.85"></path><path d="M 925.72 807.02 L 999.25 807.02 L 999.25 815.79 L 925.72 815.79 Z" fill="#6179ef" fill-rule="nonzero" group-id="1,4" node-id="236" stroke="none" target-height="8.7699585" target-width="73.53003" target-x="925.72" target-y="807.02"></path><path d="M 650.93 677.67 L 724.46 677.67 L 724.46 702.72 L 650.93 702.72 Z" fill="#6179ef" fill-rule="nonzero" group-id="1,4" node-id="238" stroke="none" target-height="25.049988" target-width="73.53003" target-x="650.93" target-y="677.67"></path><path d="M 650.93 711.84 L 724.46 711.84 L 724.46 720.61 L 650.93 720.61 Z" fill="#f5634a" fill-rule="nonzero" group-id="1,4" node-id="240" stroke="none" target-height="8.7699585" target-width="73.53003" target-x="650.93" target-y="711.84"></path><path d="M 650.93 772.85 L 724.46 772.85 L 724.46 797.90 L 650.93 797.90 Z" fill="#fbd72a" fill-rule="nonzero" group-id="1,4" node-id="242" stroke="none" target-height="25.050049" target-width="73.53003" target-x="650.93" target-y="772.85"></path><path d="M 650.93 807.02 L 724.46 807.02 L 724.46 815.79 L 650.93 815.79 Z" fill="#6179ef" fill-rule="nonzero" group-id="1,4" node-id="244" stroke="none" target-height="8.7699585" target-width="73.53003" target-x="650.93" target-y="807.02"></path><path d="M 828.40 818.68 C 790.60 818.68 759.84 787.92 759.84 750.12 C 759.84 712.31 790.60 681.56 828.40 681.56 C 866.20 681.56 896.96 712.32 896.96 750.12 C 896.96 787.93 866.20 818.68 828.40 818.68 Z M 828.40 694.52 C 797.74 694.52 772.80 719.46 772.80 750.12 C 772.80 780.78 797.74 805.72 828.40 805.72 C 859.06 805.72 884.00 780.78 884.00 750.12 C 884.00 719.46 859.06 694.52 828.40 694.52 Z" fill="#b4d1ff" fill-rule="nonzero" group-id="1,4,9" node-id="248" stroke="none" target-height="137.12" target-width="137.12" target-x="759.84" target-y="681.56"></path><path d="M 851.30 750.12 C 851.30 762.77 841.05 773.02 828.40 773.02 C 815.75 773.02 805.50 762.77 805.50 750.12 C 805.50 737.47 815.75 727.22 828.40 727.22 C 841.05 727.22 851.30 737.47 851.30 750.12 Z" fill="#6179ef" fill-rule="nonzero" group-id="1,4" node-id="251" stroke="none" target-height="45.80005" target-width="45.799988" target-x="805.5" target-y="727.22"></path><path d="M 845.75 688.58 C 845.75 698.16 837.98 705.93 828.40 705.93 C 818.82 705.93 811.05 698.16 811.05 688.58 C 811.05 679.00 818.82 671.23 828.40 671.23 C 837.98 671.23 845.75 679.00 845.75 688.58 Z" fill="#f5634a" fill-rule="nonzero" group-id="1,4" node-id="253" stroke="none" target-height="34.700012" target-width="34.700012" target-x="811.05" target-y="671.23"></path><path d="M 787.78 777.56 C 787.78 787.14 780.01 794.91 770.43 794.91 C 760.85 794.91 753.08 787.14 753.08 777.56 C 753.08 767.98 760.85 760.21 770.43 760.21 C 780.01 760.21 787.78 767.98 787.78 777.56 Z" fill="#f5634a" fill-rule="nonzero" group-id="1,4" node-id="255" stroke="none" target-height="34.69995" target-width="34.700012" target-x="753.08" target-y="760.21"></path><path d="M 904.19 777.56 C 904.19 787.14 896.42 794.91 886.84 794.91 C 877.26 794.91 869.49 787.14 869.49 777.56 C 869.49 767.98 877.26 760.21 886.84 760.21 C 896.42 760.21 904.19 767.98 904.19 777.56 Z" fill="#f5634a" fill-rule="nonzero" group-id="1,4" node-id="257" stroke="none" target-height="34.69995" target-width="34.700012" target-x="869.49" target-y="760.21"></path></g><g node-id="350"><g node-id="355"><path d="M 520.04 906.85 L 240.23 906.85 C 231.08 906.85 223.67 899.43 223.67 890.29 L 223.67 415.92 C 223.67 406.77 231.09 399.36 240.23 399.36 L 520.04 399.36 C 529.19 399.36 536.60 406.78 536.60 415.92 L 536.60 890.29 C 536.60 899.43 529.19 906.85 520.04 906.85 Z" fill="#0b1066" fill-opacity="0.19" fill-rule="nonzero" group-id="1,5,10" node-id="264" stroke="none" target-height="507.49" target-width="312.93" target-x="223.67" target-y="399.36"></path></g><path d="M 506.53 889.07 L 235.41 889.07 C 228.92 889.07 223.67 883.81 223.67 877.33 L 223.67 411.09 C 223.67 404.60 228.93 399.35 235.41 399.35 L 506.53 399.35 C 513.02 399.35 518.27 404.61 518.27 411.09 L 518.27 877.33 C 518.27 883.82 513.01 889.07 506.53 889.07 Z" fill="url(#SVGID_3_)" fill-rule="nonzero" group-id="1,5" node-id="267" stroke="none" target-height="489.72" target-width="294.60004" target-x="223.67" target-y="399.35"></path><path d="M 497.23 870.34 L 244.70 870.34 C 241.51 870.34 238.92 867.75 238.92 864.56 L 238.92 423.87 C 238.92 420.68 241.51 418.09 244.70 418.09 L 497.23 418.09 C 500.42 418.09 503.01 420.68 503.01 423.87 L 503.01 864.56 C 503.01 867.75 500.42 870.34 497.23 870.34 Z" fill="#ffffff" fill-rule="nonzero" group-id="1,5" node-id="269" stroke="none" target-height="452.25003" target-width="264.09003" target-x="238.92" target-y="418.09"></path><path d="M 347.74 432.53 C 347.74 435.65 345.21 438.18 342.09 438.18 C 338.97 438.18 336.44 435.65 336.44 432.53 C 336.44 429.41 338.97 426.88 342.09 426.88 C 345.21 426.88 347.74 429.41 347.74 432.53 Z" fill="#b0cae0" fill-rule="nonzero" group-id="1,5" node-id="271" stroke="none" target-height="11.299988" target-width="11.299988" target-x="336.44" target-y="426.88"></path><path d="M 354.80 436.99 L 405.10 436.99 C 405.67 436.99 406.13 436.53 406.13 435.96 L 406.13 428.23 C 406.13 427.66 405.67 427.20 405.10 427.20 L 354.80 427.20 C 354.23 427.20 353.77 427.66 353.77 428.23 L 353.77 435.96 C 353.77 436.53 354.23 436.99 354.80 436.99 Z" fill="#b0cae0" fill-rule="nonzero" group-id="1,5" node-id="273" stroke="none" target-height="9.789978" target-width="52.360016" target-x="353.77" target-y="427.2"></path><path d="M 474.51 668.90 L 307.43 668.90 C 303.58 668.90 300.45 672.02 300.45 675.88 L 300.45 678.38 C 300.45 682.23 303.57 685.36 307.43 685.36 L 474.51 685.36 C 478.36 685.36 481.49 682.24 481.49 678.38 L 481.49 675.88 C 481.48 672.03 478.36 668.90 474.51 668.90 Z" fill="#99a2eb" fill-rule="nonzero" group-id="1,5,11" node-id="277" stroke="none" target-height="16.45996" target-width="181.03998" target-x="300.45" target-y="668.9"></path><path d="M 288.78 656.38 L 263.62 656.38 C 262.31 656.38 261.25 657.44 261.25 658.75 L 261.25 682.99 C 261.25 684.30 262.31 685.36 263.62 685.36 L 288.78 685.36 C 290.09 685.36 291.15 684.30 291.15 682.99 L 291.15 658.75 C 291.15 657.44 290.09 656.38 288.78 656.38 Z" fill="#99a2eb" fill-rule="nonzero" group-id="1,5,11" node-id="279" stroke="none" target-height="28.97998" target-width="29.899994" target-x="261.25" target-y="656.38"></path><path d="M 474.51 722.22 L 307.43 722.22 C 303.58 722.22 300.45 725.34 300.45 729.20 L 300.45 731.70 C 300.45 735.55 303.57 738.68 307.43 738.68 L 474.51 738.68 C 478.36 738.68 481.49 735.56 481.49 731.70 L 481.49 729.20 C 481.48 725.34 478.36 722.22 474.51 722.22 Z" fill="#99a2eb" fill-rule="nonzero" group-id="1,5,12" node-id="284" stroke="none" target-height="16.460022" target-width="181.03998" target-x="300.45" target-y="722.22"></path><path d="M 288.78 709.70 L 263.62 709.70 C 262.31 709.70 261.25 710.76 261.25 712.07 L 261.25 736.31 C 261.25 737.62 262.31 738.68 263.62 738.68 L 288.78 738.68 C 290.09 738.68 291.15 737.62 291.15 736.31 L 291.15 712.07 C 291.15 710.76 290.09 709.70 288.78 709.70 Z" fill="#99a2eb" fill-rule="nonzero" group-id="1,5,12" node-id="286" stroke="none" target-height="28.97998" target-width="29.899994" target-x="261.25" target-y="709.7"></path><path d="M 474.51 775.53 L 307.43 775.53 C 303.58 775.53 300.45 778.65 300.45 782.51 L 300.45 785.01 C 300.45 788.86 303.57 791.99 307.43 791.99 L 474.51 791.99 C 478.36 791.99 481.49 788.87 481.49 785.01 L 481.49 782.51 C 481.48 778.65 478.36 775.53 474.51 775.53 Z" fill="#99a2eb" fill-rule="nonzero" group-id="1,5,13" node-id="291" stroke="none" target-height="16.45996" target-width="181.03998" target-x="300.45" target-y="775.53"></path><path d="M 288.78 763.01 L 263.62 763.01 C 262.31 763.01 261.25 764.07 261.25 765.38 L 261.25 789.62 C 261.25 790.93 262.31 791.99 263.62 791.99 L 288.78 791.99 C 290.09 791.99 291.15 790.93 291.15 789.62 L 291.15 765.38 C 291.15 764.07 290.09 763.01 288.78 763.01 Z" fill="#99a2eb" fill-rule="nonzero" group-id="1,5,13" node-id="293" stroke="none" target-height="28.97998" target-width="29.899994" target-x="261.25" target-y="763.01"></path><path d="M 474.51 828.84 L 307.43 828.84 C 303.58 828.84 300.45 831.96 300.45 835.82 L 300.45 838.32 C 300.45 842.17 303.57 845.30 307.43 845.30 L 474.51 845.30 C 478.36 845.30 481.49 842.18 481.49 838.32 L 481.49 835.82 C 481.48 831.97 478.36 828.84 474.51 828.84 Z" fill="#99a2eb" fill-rule="nonzero" group-id="1,5,14" node-id="298" stroke="none" target-height="16.45996" target-width="181.03998" target-x="300.45" target-y="828.84"></path><path d="M 288.78 816.32 L 263.62 816.32 C 262.31 816.32 261.25 817.38 261.25 818.69 L 261.25 842.93 C 261.25 844.24 262.31 845.30 263.62 845.30 L 288.78 845.30 C 290.09 845.30 291.15 844.24 291.15 842.93 L 291.15 818.69 C 291.15 817.39 290.09 816.32 288.78 816.32 Z" fill="#99a2eb" fill-rule="nonzero" group-id="1,5,14" node-id="300" stroke="none" target-height="28.97998" target-width="29.899994" target-x="261.25" target-y="816.32"></path><path d="M 481.15 614.70 L 263.41 614.70 C 262.22 614.70 261.26 613.74 261.26 612.55 L 261.26 567.69 C 261.26 566.50 262.22 565.54 263.41 565.54 L 481.15 565.54 C 482.34 565.54 483.30 566.50 483.30 567.69 L 483.30 612.55 C 483.30 613.74 482.34 614.70 481.15 614.70 Z" fill="#b6d2ff" fill-rule="nonzero" group-id="1,5" node-id="303" stroke="none" target-height="49.160034" target-width="222.03998" target-x="261.26" target-y="565.54"></path><path d="M 251.69 545.14 L 251.69 447.67 C 198.27 447.67 154.96 490.98 154.96 544.40 C 154.96 597.82 198.27 641.13 251.69 641.13 C 304.86 641.13 348.00 598.22 348.40 545.15 L 251.69 545.15 Z" fill="#0b1066" fill-opacity="0.19" fill-rule="nonzero" group-id="1,5,15,18" node-id="309" stroke="none" target-height="193.45999" target-width="193.43999" target-x="154.96" target-y="447.67"></path><path d="M 244.62 538.02 L 244.62 447.67 C 195.10 447.67 154.96 487.81 154.96 537.33 C 154.96 586.85 195.10 626.99 244.62 626.99 C 293.91 626.99 333.89 587.22 334.26 538.02 L 244.62 538.02 Z" fill="#6179ef" fill-rule="nonzero" group-id="1,5,15" node-id="312" stroke="none" target-height="179.31998" target-width="179.3" target-x="154.96" target-y="447.67"></path><path d="M 244.62 538.02 L 244.71 447.36 C 244.68 447.36 244.65 447.36 244.62 447.36 C 194.93 447.36 154.65 487.64 154.65 537.33 C 154.65 571.26 173.44 600.79 201.18 616.12 L 244.62 538.02 Z" fill="#f56463" fill-rule="nonzero" group-id="1,5,15" node-id="314" stroke="none" target-height="168.76001" target-width="90.06001" target-x="154.65" target-y="447.36"></path><path d="M 244.83 447.21 C 244.80 447.21 244.77 447.21 244.74 447.21 C 194.92 447.21 154.54 487.60 154.54 537.41 C 154.54 545.53 155.63 553.39 157.64 560.87 L 244.74 538.11 L 244.83 447.21 Z" fill="#fdebe5" fill-rule="nonzero" group-id="1,5,15" node-id="316" stroke="none" target-height="113.66" target-width="90.29001" target-x="154.54" target-y="447.21"></path><path d="M 258.69 431.07 L 258.69 532.18 L 358.77 532.18 C 352.43 479.65 311.06 437.94 258.69 431.07 Z" fill="#0b1066" fill-opacity="0.19" fill-rule="nonzero" group-id="1,5,15,19" node-id="320" stroke="none" target-height="101.109985" target-width="100.07999" target-x="258.69" target-y="431.07"></path><path d="M 258.69 431.07 L 258.69 524.35 L 351.02 524.35 C 345.17 475.88 307.00 437.40 258.69 431.07 Z" fill="#f9d62b" fill-rule="nonzero" group-id="1,5,15" node-id="323" stroke="none" target-height="93.27997" target-width="92.32999" target-x="258.69" target-y="431.07"></path><path d="M 554.47 557.89 L 542.87 546.64 C 540.99 544.81 538.47 543.79 535.85 543.79 L 444.35 543.79 C 438.78 543.79 434.27 539.28 434.27 533.71 L 434.27 481.84 C 434.27 476.27 438.78 471.76 444.35 471.76 L 549.90 471.76 C 555.47 471.76 559.98 476.27 559.98 481.84 L 559.98 555.56 C 559.98 558.42 556.53 559.88 554.47 557.89 Z" fill="#f56463" fill-rule="nonzero" group-id="1,5" node-id="326" stroke="none" target-height="88.119995" target-width="125.70999" target-x="434.27" target-y="471.76"></path><path d="M 487.70 531.23 C 486.45 531.23 485.21 530.75 484.26 529.81 L 462.79 508.34 C 460.89 506.44 460.89 503.37 462.79 501.47 C 464.69 499.57 467.76 499.57 469.66 501.47 L 487.78 519.58 L 524.66 484.45 C 526.60 482.60 529.68 482.67 531.53 484.62 C 533.38 486.56 533.31 489.64 531.36 491.49 L 491.05 529.89 C 490.12 530.79 488.91 531.23 487.70 531.23 Z" fill="#ffffff" fill-rule="nonzero" group-id="1,5,16" node-id="330" stroke="none" target-height="48.629974" target-width="72.48999" target-x="460.89" target-y="482.6"></path><path d="M 576.16 868.92 L 416.66 868.92 C 412.02 868.92 408.27 865.16 408.27 860.53 L 408.27 700.35 C 408.27 695.71 412.03 691.96 416.66 691.96 L 576.16 691.96 C 580.80 691.96 584.55 695.72 584.55 700.35 L 584.55 860.53 C 584.55 865.16 580.79 868.92 576.16 868.92 Z" fill="#0b1066" fill-opacity="0.19" fill-rule="nonzero" group-id="1,5,17,20" node-id="337" stroke="none" target-height="176.95996" target-width="176.28" target-x="408.27" target-y="691.96"></path><path d="M 560.65 852.73 L 416.66 852.73 C 412.02 852.73 408.27 848.97 408.27 844.34 L 408.27 700.35 C 408.27 695.71 412.03 691.96 416.66 691.96 L 560.65 691.96 C 565.29 691.96 569.04 695.72 569.04 700.35 L 569.04 844.34 C 569.05 848.97 565.29 852.73 560.65 852.73 Z" fill="#53c8ce" fill-rule="nonzero" group-id="1,5,17" node-id="340" stroke="none" target-height="160.76996" target-width="160.78" target-x="408.27" target-y="691.96"></path><path d="M 545.14 772.34 C 545.14 803.53 519.85 828.82 488.66 828.82 C 457.47 828.82 432.18 803.53 432.18 772.34 C 432.18 741.15 457.47 715.86 488.66 715.86 C 519.85 715.86 545.14 741.15 545.14 772.34 Z" fill="#ffffff" fill-rule="nonzero" group-id="1,5,17" node-id="342" stroke="none" target-height="112.96002" target-width="112.96002" target-x="432.18" target-y="715.86"></path><path d="M 483.31 771.97 C 483.31 766.64 483.02 761.28 483.38 755.97 C 483.90 748.10 490.80 741.19 498.63 740.13 C 504.51 739.34 509.96 740.33 514.54 744.33 C 520.37 749.43 522.10 756.00 520.50 763.36 C 518.94 770.54 514.33 775.14 507.27 777.18 C 503.77 778.19 500.80 776.64 499.84 773.43 C 498.94 770.45 500.76 767.56 504.20 766.51 C 507.73 765.43 509.58 763.23 509.88 759.74 C 510.19 756.16 508.74 753.18 505.84 751.81 C 501.28 749.65 494.21 751.53 494.22 758.73 C 494.23 767.68 494.27 776.63 494.20 785.58 C 494.14 793.38 490.81 799.39 483.67 802.72 C 476.55 806.05 469.50 805.42 463.27 800.51 C 456.98 795.54 455.15 788.72 456.84 781.08 C 458.44 773.83 463.04 769.21 470.26 767.31 C 473.37 766.50 476.10 767.97 477.03 770.86 C 477.97 773.78 476.63 776.54 473.69 777.76 C 472.72 778.16 471.67 778.43 470.79 778.99 C 467.69 780.94 466.53 785.06 467.94 788.77 C 469.25 792.21 472.71 794.02 476.78 793.39 C 480.46 792.82 483.01 789.99 483.07 786.14 C 483.15 781.42 483.09 776.69 483.09 771.97 C 483.17 771.97 483.24 771.97 483.31 771.97 Z" fill="#53c8ce" fill-rule="nonzero" group-id="1,5,17" node-id="344" stroke="none" target-height="66.70996" target-width="66.94998" target-x="455.15" target-y="739.34"></path></g></g></svg>