<?xml version="1.0" standalone="no"?><!DOCTYPE svg PUBLIC "-//W3C//DTD SVG 1.1//EN" "http://www.w3.org/Graphics/SVG/1.1/DTD/svg11.dtd"><svg height="1024" node-id="1" sillyvg="true" template-height="1024" template-width="1024" version="1.1" viewBox="0 0 1024 1024" width="1024" xmlns="http://www.w3.org/2000/svg" xmlns:xlink="http://www.w3.org/1999/xlink"><defs node-id="44"></defs><path d="M 0.00 0.00 L 1024.00 0.00 L 1024.00 1024.00 L 0.00 1024.00 Z" fill="#ffffff" fill-rule="nonzero" hidden="true" node-id="46" stroke="none" target-height="1024" target-width="1024" target-x="0" target-y="0" visibility="hidden"></path><path d="M 337.22 286.52 C 331.02 278.37 326.55 268.04 324.36 258.08 C 319.11 234.28 323.29 209.76 336.77 189.32 C 350.22 168.92 372.36 153.87 396.39 148.91 C 416.85 144.69 439.13 147.22 456.75 158.89 C 474.05 170.35 489.66 190.34 493.78 211.03 L 494.08 212.59 C 520.01 204.51 546.62 199.82 573.84 199.72 C 580.22 199.70 586.66 199.57 593.02 199.99 C 596.64 200.23 600.81 201.24 604.36 200.84 C 611.21 200.07 626.00 191.96 631.73 187.94 C 635.36 185.39 638.93 179.51 643.27 178.88 C 644.82 179.82 646.24 180.68 647.20 182.27 C 651.12 188.82 645.45 190.65 643.86 196.08 C 648.00 195.24 652.04 195.13 656.25 195.02 L 657.66 196.94 C 655.38 199.47 653.86 200.50 650.56 201.37 C 638.76 204.77 631.17 209.17 621.39 216.23 C 626.35 205.66 634.00 199.00 640.25 189.53 C 630.98 195.53 621.13 199.55 611.60 204.93 C 607.14 207.45 603.14 211.10 599.04 214.18 L 598.41 212.87 C 599.72 210.71 601.16 208.67 601.71 206.18 C 563.96 203.14 528.44 209.02 492.06 218.50 L 490.68 217.43 C 490.79 214.16 491.06 210.72 489.75 207.65 C 485.48 197.60 483.57 189.71 474.43 183.11 C 459.74 165.82 445.83 155.05 422.41 153.12 C 398.15 151.12 373.77 160.36 355.51 176.20 C 341.17 188.64 329.81 210.02 328.47 229.09 C 327.91 237.16 328.11 245.27 329.52 253.24 C 329.81 262.19 332.89 272.92 337.97 280.33 C 338.01 282.47 338.32 284.60 337.22 286.52 Z" fill="#010100" fill-rule="nonzero" node-id="48" stroke="none" target-height="141.824" target-width="338.55502" target-x="319.106" target-y="144.693"></path><path d="M 329.52 253.24 C 328.11 245.27 327.91 237.16 328.47 229.09 C 329.81 210.02 341.17 188.64 355.51 176.20 C 373.77 160.36 398.15 151.12 422.41 153.12 C 445.83 155.05 459.74 165.82 474.43 183.11 L 473.52 183.13 C 464.89 183.20 455.93 179.12 447.08 178.29 C 413.17 175.11 379.21 190.43 355.36 213.96 C 348.30 220.92 341.76 229.04 336.98 237.72 C 334.20 242.77 332.37 248.21 329.52 253.24 Z" fill="#293741" fill-rule="nonzero" node-id="50" stroke="none" target-height="102.112" target-width="146.521" target-x="327.907" target-y="151.123"></path><path d="M 125.31 311.39 C 137.51 308.67 153.29 311.79 165.62 313.45 L 221.61 321.27 L 184.82 353.25 C 175.34 360.91 165.53 368.80 154.71 374.50 C 148.04 378.02 141.62 380.51 134.17 377.90 C 127.30 375.50 123.16 369.18 120.12 362.93 C 115.13 352.68 109.05 333.12 113.60 322.25 C 115.67 317.32 120.52 313.41 125.31 311.39 Z" fill="#07050b" fill-rule="nonzero" node-id="52" stroke="none" target-height="71.84598" target-width="112.554" target-x="109.054" target-y="308.665"></path><path d="M 210.55 167.02 C 224.61 165.84 239.53 167.36 252.71 172.54 C 257.92 174.59 262.62 178.03 264.80 183.37 C 271.71 200.32 246.24 258.92 239.43 276.29 L 235.02 288.12 L 209.75 236.54 C 203.38 221.45 191.06 191.12 198.32 175.67 C 200.79 170.42 205.43 168.71 210.55 167.02 Z" fill="#0c0c17" fill-rule="nonzero" node-id="54" stroke="none" target-height="122.287994" target-width="80.64801" target-x="191.061" target-y="165.837"></path><path d="M 158.41 217.87 C 162.42 217.53 167.30 217.85 171.11 219.27 C 188.10 225.61 200.20 257.55 207.82 273.04 L 228.53 315.39 L 193.62 303.93 C 171.12 296.30 146.02 288.79 125.56 276.54 C 119.78 273.08 114.19 268.66 112.85 261.63 C 111.63 255.32 115.01 247.64 118.41 242.49 C 127.29 229.06 143.02 220.95 158.41 217.87 Z" fill="#07050b" fill-rule="nonzero" node-id="56" stroke="none" target-height="97.86101" target-width="116.895" target-x="111.633" target-y="217.528"></path><path d="M 757.71 667.86 L 758.44 667.88 C 763.74 667.88 769.17 664.95 773.96 662.89 C 785.98 657.74 806.14 648.17 818.17 657.37 C 820.81 661.00 821.01 664.92 820.27 669.22 C 818.71 678.20 810.62 685.87 803.29 690.58 C 799.01 693.33 794.14 694.94 789.69 697.39 C 800.36 702.35 812.10 707.82 816.29 719.75 C 817.12 722.12 816.40 726.02 815.16 728.18 C 811.87 733.90 803.81 737.55 797.58 738.81 C 785.30 741.29 776.39 736.58 765.53 731.84 C 769.35 740.27 772.52 750.93 769.15 760.07 C 768.06 763.02 765.61 766.01 762.69 767.27 C 758.90 768.90 755.00 767.74 751.39 766.04 C 737.39 759.44 728.04 748.26 720.09 735.44 C 720.92 732.12 724.95 728.04 726.99 725.25 C 730.17 720.88 733.10 715.67 735.43 710.79 C 741.20 698.72 744.52 685.22 748.06 672.37 C 751.09 670.05 754.15 669.04 757.71 667.86 Z" fill="#0d0e1e" fill-rule="nonzero" node-id="58" stroke="none" target-height="120.72601" target-width="100.92798" target-x="720.085" target-y="648.175"></path><path d="M 329.52 253.24 C 332.37 248.21 334.20 242.77 336.98 237.72 C 341.76 229.04 348.30 220.92 355.36 213.96 C 379.21 190.43 413.17 175.11 447.08 178.29 C 455.93 179.12 464.89 183.19 473.52 183.13 L 474.43 183.11 C 483.57 189.71 485.48 197.60 489.75 207.65 C 491.05 210.72 490.79 214.16 490.68 217.43 L 492.06 218.50 L 457.26 233.58 C 432.34 246.98 407.05 264.39 388.62 286.16 L 376.37 300.85 C 375.42 302.00 373.82 304.58 372.58 305.12 C 370.99 307.50 368.10 313.18 365.97 314.66 C 364.57 312.80 363.05 311.86 361.11 310.66 C 351.60 304.35 343.55 295.95 337.22 286.52 C 338.32 284.60 338.01 282.47 337.97 280.33 C 332.89 272.92 329.81 262.19 329.52 253.24 Z" fill="#0d0e1e" fill-rule="nonzero" node-id="60" stroke="none" target-height="139.551" target-width="162.54199" target-x="329.519" target-y="175.107"></path><path d="M 337.97 280.33 C 343.28 287.62 358.70 305.45 367.84 306.68 C 368.56 306.78 368.92 306.72 369.61 306.67 L 369.61 305.06 L 371.66 304.40 L 372.58 305.12 C 370.99 307.50 368.10 313.18 365.97 314.66 C 364.57 312.80 363.05 311.86 361.11 310.66 C 351.60 304.35 343.55 295.95 337.22 286.52 C 338.32 284.60 338.01 282.47 337.97 280.33 Z" fill="#07050b" fill-rule="nonzero" node-id="62" stroke="none" target-height="34.322998" target-width="35.35901" target-x="337.223" target-y="280.335"></path><path d="M 388.62 286.16 C 380.46 280.13 374.56 270.38 371.57 260.82 C 368.13 249.80 369.75 236.91 375.31 226.71 C 381.12 216.07 390.79 210.28 402.04 206.90 C 405.56 205.84 408.69 205.67 412.35 205.63 C 424.46 205.48 444.34 210.45 451.12 221.57 C 453.62 225.66 452.73 229.33 456.59 232.98 L 457.26 233.58 C 432.34 246.98 407.05 264.39 388.62 286.16 Z" fill="#010100" fill-rule="nonzero" node-id="64" stroke="none" target-height="80.67801" target-width="89.12399" target-x="368.133" target-y="205.479"></path><path d="M 397.67 269.84 L 388.20 278.81 C 385.01 275.37 382.06 271.68 379.76 267.57 C 374.83 258.76 373.46 247.39 376.32 237.71 C 379.17 228.08 386.43 219.78 395.31 215.25 C 405.68 209.96 418.38 209.16 429.36 213.02 C 438.24 216.14 445.63 222.71 449.79 231.16 C 448.24 234.31 444.91 235.34 441.89 237.04 C 425.49 246.37 411.36 256.85 397.67 269.84 Z" fill="#e13c77" fill-rule="nonzero" node-id="66" stroke="none" target-height="69.65599" target-width="76.33099" target-x="373.461" target-y="209.158"></path><path d="M 397.67 269.84 L 395.20 264.94 C 393.67 261.36 393.68 257.39 395.25 253.80 C 398.83 245.61 406.24 239.47 414.39 236.18 C 423.93 232.33 432.55 233.10 441.89 237.04 C 425.49 246.37 411.36 256.85 397.67 269.84 Z" fill="#a50e50" fill-rule="nonzero" node-id="68" stroke="none" target-height="37.509995" target-width="48.218994" target-x="393.67" target-y="232.326"></path><path d="M 372.81 764.75 C 376.70 782.10 382.26 801.66 393.86 815.49 C 400.33 825.75 410.15 835.07 422.24 837.80 C 435.34 840.75 453.37 842.80 465.89 837.53 C 476.45 827.68 481.56 808.51 486.81 795.35 C 499.79 797.32 512.79 800.11 525.85 801.35 C 551.23 803.75 575.68 802.66 600.89 799.25 L 617.51 826.95 C 621.61 832.15 625.00 836.00 630.95 839.03 C 639.72 843.50 668.63 842.02 677.79 838.23 L 679.02 837.55 C 682.12 836.85 685.42 835.33 688.10 833.59 C 701.20 825.05 706.78 793.54 710.37 778.89 L 714.37 779.83 C 730.52 784.03 760.76 794.83 769.16 809.78 C 771.50 813.94 772.64 818.64 771.03 823.26 C 766.37 836.60 750.12 843.98 738.07 849.17 C 649.24 887.49 447.13 884.42 356.67 848.19 C 342.64 842.57 321.46 832.90 315.61 817.71 C 313.58 812.43 313.90 806.80 316.11 801.65 C 324.45 782.25 354.38 771.93 372.81 764.75 Z" fill="#bf6f99" fill-rule="nonzero" node-id="70" stroke="none" target-height="122.74103" target-width="459.06903" target-x="313.576" target-y="764.75"></path><path d="M 492.06 218.50 C 528.44 209.02 563.96 203.14 601.71 206.18 C 601.16 208.67 599.72 210.71 598.41 212.87 L 599.04 214.18 C 603.14 211.10 607.14 207.45 611.60 204.93 C 621.13 199.55 630.98 195.53 640.25 189.53 C 634.00 199.00 626.35 205.66 621.39 216.23 C 631.17 209.17 638.76 204.77 650.56 201.37 L 651.80 204.04 L 649.88 208.84 C 660.79 202.54 674.25 199.48 686.71 202.44 C 689.66 203.14 691.60 204.33 693.80 206.38 L 694.27 209.92 C 689.60 213.75 680.93 214.99 674.96 216.04 C 704.75 229.94 730.29 244.04 755.53 265.47 C 774.02 246.88 793.66 235.70 820.48 235.78 C 844.90 235.85 866.70 246.76 883.50 264.06 C 900.63 281.72 912.12 304.70 912.00 329.68 C 911.89 351.14 903.38 371.70 887.78 386.55 C 877.32 396.51 864.40 403.21 850.37 406.48 C 848.08 407.02 835.09 408.29 834.31 409.01 C 834.15 409.15 834.07 410.94 834.08 411.15 C 834.47 420.25 836.91 429.57 837.43 438.85 C 839.74 479.72 831.68 518.36 806.76 551.59 C 796.32 565.52 784.14 576.11 770.87 587.16 C 779.88 596.45 785.24 606.27 785.01 619.59 C 784.70 638.03 773.37 653.14 760.45 665.37 L 757.71 667.86 C 754.15 669.04 751.09 670.05 748.06 672.37 C 744.52 685.22 741.20 698.72 735.43 710.79 C 733.10 715.67 730.17 720.88 726.99 725.25 C 724.95 728.04 720.91 732.12 720.09 735.44 L 710.37 778.89 C 706.78 793.54 701.20 825.05 688.10 833.59 C 685.42 835.33 682.12 836.85 679.02 837.55 L 677.79 838.23 C 668.63 842.02 639.72 843.50 630.95 839.03 C 625.00 836.00 621.61 832.15 617.51 826.95 L 600.89 799.25 C 575.68 802.66 551.23 803.75 525.85 801.35 C 512.79 800.11 499.79 797.32 486.81 795.35 C 481.56 808.51 476.45 827.68 465.89 837.53 C 453.37 842.80 435.34 840.75 422.24 837.80 C 410.15 835.07 400.33 825.75 393.86 815.49 C 382.26 801.66 376.70 782.10 372.81 764.75 C 370.26 755.08 369.58 745.37 369.06 735.43 C 368.86 731.58 369.40 725.62 368.42 722.14 C 367.85 720.13 364.81 716.74 363.56 714.91 C 359.54 709.02 355.68 703.15 352.40 696.80 C 335.02 663.08 332.35 624.14 338.09 587.21 C 310.19 576.36 287.10 556.34 268.71 532.97 C 246.93 505.27 227.51 465.43 232.25 429.30 C 233.89 416.75 238.95 402.57 249.43 394.75 C 257.24 388.92 266.23 387.14 275.79 388.69 C 298.59 392.39 314.58 419.07 327.24 436.39 C 325.94 423.83 324.92 410.81 326.43 398.21 C 330.35 365.58 343.99 338.03 361.11 310.66 C 363.05 311.86 364.57 312.80 365.97 314.66 C 368.10 313.18 370.99 307.50 372.58 305.12 C 373.82 304.58 375.42 302.00 376.37 300.85 L 388.62 286.16 C 407.05 264.39 432.34 246.98 457.26 233.58 L 492.06 218.50 Z" fill="#010100" fill-rule="nonzero" node-id="72" stroke="none" target-height="653.967" target-width="684.61597" target-x="227.509" target-y="189.529"></path><path d="M 538.65 583.70 L 539.89 582.04 L 540.83 582.39 C 544.10 583.56 548.65 582.79 552.16 583.17 C 576.76 585.82 600.61 589.36 625.46 589.23 C 629.68 600.12 634.06 610.59 639.44 620.98 C 642.29 626.49 647.57 632.32 649.29 638.21 C 649.53 639.03 649.19 640.99 649.16 641.92 C 635.29 630.29 620.85 621.57 604.73 613.46 C 600.76 608.02 593.10 605.57 587.08 602.96 L 557.21 590.27 C 551.16 588.00 544.38 586.64 538.65 583.70 Z" fill="#0d0e1e" fill-rule="nonzero" node-id="74" stroke="none" target-height="59.88501" target-width="110.87695" target-x="538.655" target-y="582.037"></path><path d="M 762.64 272.93 L 759.47 268.32 C 769.00 254.05 790.01 245.24 806.20 241.91 C 827.03 237.62 847.98 243.54 865.22 255.29 C 883.96 268.06 900.47 289.88 904.45 312.52 C 906.54 324.41 906.78 337.59 903.51 349.32 C 901.29 348.95 901.23 347.40 900.30 345.51 C 886.69 317.75 870.52 292.17 841.75 277.99 C 815.99 265.30 793.87 268.64 767.77 277.49 L 762.64 272.93 Z" fill="#293741" fill-rule="nonzero" node-id="76" stroke="none" target-height="111.699005" target-width="147.305" target-x="759.472" target-y="237.617"></path><path d="M 600.89 799.25 C 643.07 794.36 676.93 771.61 709.51 746.45 L 711.36 747.36 C 711.22 749.54 711.27 751.81 710.42 753.84 C 709.21 756.75 709.31 760.19 708.53 763.28 C 706.28 772.21 704.78 780.30 701.26 788.93 C 696.78 804.53 692.22 825.74 679.30 836.58 L 679.02 837.55 L 677.79 838.23 C 668.63 842.02 639.72 843.50 630.95 839.03 C 625.00 836.00 621.61 832.15 617.51 826.95 L 600.89 799.25 Z" fill="#0d0e1e" fill-rule="nonzero" node-id="78" stroke="none" target-height="97.04797" target-width="110.46698" target-x="600.892" target-y="746.448"></path><path d="M 617.51 826.95 C 625.41 820.98 640.94 819.14 650.46 815.04 C 660.69 810.63 670.63 805.76 680.36 800.32 C 686.85 796.70 694.15 790.82 701.26 788.93 C 696.78 804.53 692.22 825.74 679.30 836.58 L 679.02 837.55 L 677.79 838.23 C 668.63 842.02 639.72 843.50 630.95 839.03 C 625.00 836.00 621.61 832.15 617.51 826.95 Z" fill="#1c2430" fill-rule="nonzero" node-id="80" stroke="none" target-height="54.56195" target-width="83.747986" target-x="617.512" target-y="788.934"></path><path d="M 348.52 546.12 C 348.35 551.17 344.88 557.60 343.27 562.57 C 341.15 569.07 339.86 575.91 338.53 582.61 C 309.49 571.58 283.51 547.11 266.08 521.79 C 249.07 497.07 231.14 458.62 237.06 428.21 C 238.15 422.59 240.40 410.26 243.98 405.79 C 244.81 404.75 247.38 403.49 248.57 402.68 C 243.11 420.27 249.32 436.74 257.64 452.56 C 273.87 483.43 296.20 510.97 324.39 531.60 C 331.68 536.93 341.94 540.63 348.52 546.12 Z" fill="#0d0e1e" fill-rule="nonzero" node-id="82" stroke="none" target-height="179.93198" target-width="117.382" target-x="231.141" target-y="402.681"></path><path d="M 774.05 639.68 L 770.93 646.19 C 765.12 655.89 751.46 667.03 740.34 669.70 C 721.94 674.12 706.11 673.89 688.42 666.39 C 665.48 656.66 646.43 629.33 637.71 606.73 L 631.67 591.48 L 631.13 590.17 C 626.84 579.69 616.78 536.21 620.90 527.22 C 621.85 525.15 621.27 523.29 621.74 521.08 L 622.09 519.64 C 622.41 518.04 622.57 516.79 623.20 515.25 C 624.32 512.45 625.04 510.00 626.79 507.46 L 627.36 506.66 C 629.47 503.51 632.57 501.16 635.42 498.68 C 631.25 535.89 642.61 575.36 666.11 604.74 C 685.12 628.51 708.18 637.91 737.88 640.87 C 749.56 642.03 762.48 641.64 774.05 639.68 Z" fill="#0d0e1e" fill-rule="nonzero" node-id="84" stroke="none" target-height="175.436" target-width="157.27496" target-x="616.78" target-y="498.681"></path><path d="M 376.50 753.08 C 374.56 744.42 374.35 736.51 374.69 727.65 C 382.84 736.33 390.92 745.70 400.01 753.38 C 425.29 774.72 455.84 785.71 486.81 795.35 C 481.56 808.51 476.45 827.68 465.89 837.53 C 453.37 842.80 435.34 840.75 422.24 837.80 C 410.15 835.07 400.33 825.75 393.86 815.49 C 394.23 814.62 395.00 813.83 394.96 812.88 C 394.83 809.67 389.91 800.89 388.63 797.17 C 383.56 782.46 379.29 768.42 376.50 753.08 Z" fill="#0d0e1e" fill-rule="nonzero" node-id="86" stroke="none" target-height="115.15802" target-width="112.45999" target-x="374.353" target-y="727.647"></path><path d="M 376.50 753.08 C 382.41 757.51 386.65 763.39 391.53 768.86 C 401.26 779.74 410.82 790.87 421.51 800.83 C 431.02 809.70 441.50 817.33 451.86 825.16 C 456.49 828.65 463.24 832.34 465.89 837.53 C 453.37 842.81 435.34 840.75 422.24 837.80 C 410.15 835.07 400.33 825.75 393.86 815.49 C 394.23 814.62 395.00 813.83 394.96 812.88 C 394.83 809.67 389.91 800.89 388.63 797.17 C 383.56 782.46 379.29 768.42 376.50 753.08 Z" fill="#1c2430" fill-rule="nonzero" node-id="88" stroke="none" target-height="89.72504" target-width="89.393005" target-x="376.497" target-y="753.081"></path><path d="M 811.55 354.01 C 816.39 363.77 819.14 374.33 822.09 384.78 C 832.88 423.11 837.50 466.90 824.53 505.31 C 816.26 529.80 802.07 550.70 783.69 568.69 C 778.86 573.41 772.70 579.50 766.57 582.36 L 765.38 582.88 C 756.13 579.05 749.73 577.16 739.78 577.03 L 730.70 538.97 C 751.76 531.66 769.36 524.48 785.22 508.21 C 814.35 478.33 819.64 433.38 816.05 393.42 C 814.91 380.83 811.60 367.29 811.54 354.81 L 811.55 354.01 Z" fill="#d0d4c8" fill-rule="nonzero" node-id="90" stroke="none" target-height="228.87103" target-width="106.80298" target-x="730.695" target-y="354.011"></path><path d="M 248.57 402.68 C 254.43 396.88 260.67 393.21 269.05 393.16 C 280.18 393.09 290.19 399.30 297.81 407.04 C 306.18 415.55 312.97 425.50 319.98 435.13 C 323.40 439.84 327.55 444.26 330.61 449.18 C 336.63 458.82 340.93 469.13 347.49 478.59 C 354.06 488.05 361.88 496.49 369.99 504.64 C 362.83 517.53 352.78 531.99 348.52 546.12 C 341.94 540.63 331.68 536.93 324.39 531.60 C 296.20 510.97 273.87 483.43 257.64 452.56 C 249.32 436.74 243.11 420.27 248.57 402.68 Z" fill="#293741" fill-rule="nonzero" node-id="92" stroke="none" target-height="153.02698" target-width="126.882" target-x="243.106" target-y="393.088"></path><path d="M 331.87 417.82 L 332.29 418.37 C 335.20 422.42 336.14 427.42 338.12 431.94 C 341.38 439.35 347.15 446.96 352.35 453.14 C 364.86 468.03 381.38 479.08 398.01 488.83 C 442.25 514.75 488.45 529.14 538.65 538.30 L 616.20 546.06 L 623.96 583.78 L 622.37 583.77 C 557.18 583.17 496.30 571.96 437.73 542.67 C 412.74 530.17 388.40 514.59 368.80 494.49 C 348.83 474.02 331.55 447.29 331.87 417.82 Z" fill="#d0d4c8" fill-rule="nonzero" node-id="94" stroke="none" target-height="165.96298" target-width="292.41098" target-x="331.551" target-y="417.819"></path><path d="M 767.77 277.49 C 793.87 268.64 815.99 265.30 841.75 277.99 C 870.52 292.17 886.69 317.75 900.30 345.51 C 901.23 347.40 901.29 348.95 903.51 349.32 C 900.05 366.91 888.34 381.05 873.64 390.98 C 863.32 397.95 844.78 405.46 832.09 403.35 C 829.32 393.26 824.78 381.90 824.73 371.39 C 823.55 365.37 819.99 358.60 817.45 352.91 C 810.16 336.56 801.65 321.65 791.49 306.92 L 784.35 297.87 L 783.22 297.60 L 767.77 277.49 Z" fill="#0d0e1e" fill-rule="nonzero" node-id="96" stroke="none" target-height="140.156" target-width="135.732" target-x="767.774" target-y="265.302"></path><path d="M 784.35 297.87 C 791.74 291.26 800.26 288.01 810.28 288.70 C 823.73 289.63 834.89 295.53 843.48 305.92 C 850.77 314.73 854.99 326.06 853.88 337.56 C 853.16 345.13 850.81 351.22 847.09 357.76 C 840.71 366.13 834.74 368.74 824.72 371.39 C 823.55 365.37 819.99 358.60 817.45 352.91 C 810.16 336.56 801.64 321.65 791.49 306.92 L 784.35 297.87 Z" fill="#c3185d" fill-rule="nonzero" node-id="98" stroke="none" target-height="83.380005" target-width="70.63501" target-x="784.352" target-y="288.007"></path><path d="M 791.49 306.92 C 809.69 309.97 823.80 317.29 834.77 332.50 C 840.30 340.17 843.06 349.30 847.10 357.76 C 840.71 366.13 834.74 368.74 824.73 371.39 C 823.55 365.37 819.99 358.60 817.45 352.91 C 810.16 336.56 801.65 321.65 791.49 306.92 Z" fill="#a50e50" fill-rule="nonzero" node-id="100" stroke="none" target-height="64.46799" target-width="55.609985" target-x="791.485" target-y="306.919"></path><path d="M 348.14 668.76 L 345.90 661.54 C 332.38 609.85 348.45 553.79 374.82 509.04 C 404.63 532.89 437.44 552.15 473.26 565.46 C 494.30 573.27 516.84 578.54 538.65 583.70 C 544.38 586.64 551.16 588.00 557.21 590.27 L 587.08 602.96 C 593.10 605.57 600.76 608.02 604.73 613.46 C 545.44 590.79 481.08 583.90 421.49 610.64 C 393.99 622.97 366.77 645.12 348.14 668.76 Z" fill="#293741" fill-rule="nonzero" node-id="102" stroke="none" target-height="159.72498" target-width="272.352" target-x="332.375" target-y="509.036"></path><path d="M 635.42 498.68 C 647.18 490.02 661.15 482.93 676.23 485.20 C 690.34 487.32 700.62 493.69 709.06 505.30 C 719.79 520.04 724.81 537.84 728.99 555.33 C 730.71 562.55 731.75 570.36 734.43 577.28 C 735.30 579.53 736.54 582.47 739.04 582.97 C 742.43 583.64 746.23 582.90 749.72 583.31 C 758.54 584.36 768.16 591.50 773.29 598.52 C 779.07 606.43 779.94 616.05 778.32 625.48 C 777.48 630.41 774.78 634.85 774.06 639.68 C 762.48 641.64 749.56 642.03 737.88 640.87 C 708.18 637.91 685.12 628.51 666.11 604.74 C 642.61 575.36 631.25 535.88 635.42 498.68 Z" fill="#293741" fill-rule="nonzero" node-id="104" stroke="none" target-height="159.10403" target-width="148.68896" target-x="631.249" target-y="482.926"></path><path d="M 658.95 651.69 C 677.67 667.93 696.49 680.32 722.51 678.54 L 741.37 675.85 C 732.35 715.32 708.59 743.61 674.73 764.85 C 619.32 799.59 548.44 802.64 486.18 788.26 C 438.26 777.20 390.06 747.51 364.11 704.90 L 358.37 693.96 C 376.00 709.49 392.49 724.05 412.93 735.92 C 460.92 763.80 523.77 768.02 576.73 753.86 C 607.36 745.68 638.41 729.93 654.68 701.43 C 663.94 685.18 663.73 669.31 658.95 651.69 Z" fill="#d0d4c8" fill-rule="nonzero" node-id="106" stroke="none" target-height="150.94696" target-width="382.99603" target-x="358.37" target-y="651.689"></path><path d="M 348.14 668.76 C 366.77 645.12 393.99 622.97 421.49 610.64 C 481.08 583.90 545.44 590.79 604.73 613.46 C 620.85 621.57 635.29 630.29 649.16 641.92 C 650.97 643.72 658.36 649.78 658.95 651.69 C 663.73 669.31 663.94 685.18 654.67 701.43 C 638.41 729.93 607.36 745.68 576.73 753.86 C 523.77 768.02 460.92 763.80 412.93 735.92 C 392.49 724.05 376.00 709.49 358.37 693.96 C 353.63 686.18 350.86 677.40 348.14 668.76 Z" fill="#fefefe" fill-rule="nonzero" node-id="108" stroke="none" target-height="184.11902" target-width="315.803" target-x="348.139" target-y="583.901"></path><path d="M 492.06 218.50 C 528.44 209.02 563.96 203.14 601.71 206.18 C 601.16 208.67 599.72 210.71 598.41 212.87 L 599.04 214.18 C 603.14 211.10 607.14 207.45 611.60 204.93 C 621.13 199.55 630.98 195.53 640.25 189.53 C 634.00 199.00 626.35 205.66 621.39 216.23 C 631.17 209.17 638.76 204.77 650.56 201.37 L 651.80 204.04 L 649.88 208.84 L 647.14 211.10 L 648.71 212.36 C 659.36 208.72 667.72 207.82 678.83 207.52 C 673.26 210.46 667.68 213.66 663.22 218.18 C 664.74 219.74 665.46 219.63 667.48 219.87 C 673.68 220.62 680.49 224.79 686.09 227.51 C 714.25 241.21 737.45 256.43 760.32 277.92 L 778.24 298.04 C 788.02 310.90 797.11 323.90 804.53 338.29 C 807.01 343.12 810.25 348.76 811.55 354.01 L 811.54 354.81 C 811.60 367.29 814.91 380.83 816.05 393.42 C 819.64 433.38 814.35 478.33 785.22 508.21 C 769.36 524.48 751.76 531.66 730.70 538.97 C 723.34 517.12 714.19 494.94 692.37 483.97 C 680.11 477.81 666.06 477.75 653.21 482.18 C 640.20 486.66 626.29 496.62 620.26 509.32 C 615.15 520.09 616.01 534.38 616.20 546.06 L 538.65 538.30 C 488.45 529.14 442.25 514.75 398.01 488.83 C 381.38 479.08 364.86 468.02 352.35 453.14 C 347.15 446.96 341.38 439.35 338.12 431.94 C 336.14 427.42 335.20 422.42 332.29 418.37 L 331.87 417.82 C 330.85 380.37 346.32 345.64 365.97 314.66 C 368.10 313.18 370.99 307.50 372.58 305.12 C 373.82 304.58 375.42 302.00 376.37 300.85 L 388.62 286.16 C 407.05 264.39 432.34 246.98 457.26 233.58 L 492.06 218.50 Z" fill="#fefefe" fill-rule="nonzero" node-id="110" stroke="none" target-height="356.531" target-width="488.79" target-x="330.853" target-y="189.529"></path><path d="M 585.47 490.39 L 586.03 491.87 C 587.79 496.65 585.27 499.89 586.36 504.01 C 587.92 502.11 587.79 501.24 588.42 499.00 C 588.59 498.40 589.01 497.77 589.30 497.23 L 591.08 493.19 L 593.00 492.77 C 589.71 504.14 584.50 514.66 573.74 520.58 C 566.85 524.37 560.53 524.81 553.03 522.50 C 547.39 520.76 542.47 516.22 539.74 511.03 C 537.01 505.86 535.58 499.68 535.61 493.87 L 536.95 493.33 C 537.75 495.54 538.17 497.21 538.31 499.59 L 538.58 502.54 L 539.47 501.94 C 539.28 499.32 538.37 494.62 540.09 492.63 L 540.83 494.53 C 541.10 501.37 542.00 508.13 547.02 513.27 C 550.86 517.22 556.11 518.99 561.52 518.92 C 568.41 518.83 573.25 515.36 577.80 510.48 C 583.82 504.03 585.71 499.20 585.47 490.39 Z" fill="#800c3d" fill-rule="nonzero" node-id="112" stroke="none" target-height="34.419006" target-width="57.416016" target-x="535.582" target-y="490.391"></path><path d="M 576.47 413.72 L 576.62 411.46 C 571.40 408.37 564.11 404.98 562.25 398.69 C 561.57 396.39 561.94 394.25 562.47 391.98 C 564.69 389.15 566.51 387.89 570.14 387.44 C 578.61 386.37 589.36 389.13 595.89 394.78 C 598.45 396.99 600.20 398.90 601.09 402.24 C 600.03 405.77 599.43 406.77 596.09 408.81 C 590.97 411.94 585.25 410.43 580.16 412.54 L 578.85 417.09 C 578.43 421.99 577.25 427.74 580.74 431.74 C 583.64 435.07 587.56 438.02 592.16 438.13 C 599.35 438.31 606.92 432.72 612.95 429.18 C 609.52 433.48 606.36 437.26 601.92 440.56 C 598.61 442.23 593.11 442.27 589.60 441.09 L 588.42 440.66 C 582.30 438.53 578.60 434.38 574.11 429.86 L 571.62 431.49 C 569.98 432.55 568.30 433.73 566.39 434.26 C 559.37 436.18 552.47 433.64 546.59 430.01 C 544.71 426.82 542.99 423.23 542.35 419.57 C 541.88 416.90 541.58 416.26 543.06 414.04 L 544.36 414.63 L 545.03 417.13 C 546.59 422.71 548.80 427.95 554.47 430.56 C 558.10 432.22 563.24 432.24 566.86 430.56 C 573.71 427.37 574.58 420.25 576.47 413.72 Z" fill="#010100" fill-rule="nonzero" node-id="114" stroke="none" target-height="55.902008" target-width="71.37799" target-x="541.576" target-y="386.366"></path><path d="M 540.83 494.53 L 541.85 491.32 C 543.01 487.07 543.59 485.31 547.08 482.42 C 550.44 481.83 553.12 481.54 556.21 483.29 C 559.67 485.24 560.91 488.60 562.03 492.20 L 562.35 493.26 C 563.45 493.00 564.11 492.73 564.89 491.87 L 570.17 486.01 C 572.36 484.24 575.21 483.32 578.01 483.86 C 582.00 484.63 583.48 487.10 585.47 490.39 C 585.71 499.20 583.82 504.03 577.80 510.48 C 573.25 515.36 568.41 518.83 561.52 518.92 C 556.11 518.99 550.86 517.22 547.02 513.27 C 542.00 508.13 541.10 501.37 540.83 494.53 Z" fill="#e13c77" fill-rule="nonzero" node-id="116" stroke="none" target-height="37.445984" target-width="44.880005" target-x="540.825" target-y="481.544"></path><path d="M 724.10 457.38 C 734.42 457.22 743.54 458.66 752.96 463.06 C 758.52 465.66 767.43 470.54 769.24 476.90 C 770.03 479.65 769.25 482.92 767.68 485.26 C 764.02 490.76 757.91 492.21 751.89 493.67 C 745.94 493.70 739.76 493.85 733.91 492.71 C 724.75 490.92 713.15 486.15 707.95 477.91 C 705.61 474.22 705.39 471.56 706.38 467.38 C 710.54 460.86 716.93 458.98 724.10 457.38 Z" fill="#bf6f99" fill-rule="nonzero" node-id="118" stroke="none" target-height="36.62799" target-width="64.63599" target-x="705.393" target-y="457.22"></path><path d="M 399.94 385.44 C 405.87 385.27 412.53 385.86 418.31 387.18 C 426.99 389.15 436.67 394.32 441.49 402.06 C 444.37 406.69 444.77 409.88 443.58 415.22 C 438.71 421.44 433.92 422.90 426.51 424.56 C 416.89 424.44 408.51 424.00 399.56 420.14 C 392.78 417.21 382.75 410.30 380.55 402.79 C 379.56 399.38 380.17 396.03 382.32 393.21 C 386.29 388.01 393.94 386.69 399.94 385.44 Z" fill="#bf6f99" fill-rule="nonzero" node-id="120" stroke="none" target-height="39.281982" target-width="65.216" target-x="379.556" target-y="385.273"></path><path d="M 695.48 395.97 C 705.21 395.74 714.09 397.27 722.66 402.10 C 733.45 408.18 743.72 419.76 746.95 431.88 C 748.29 436.92 748.82 442.01 746.12 446.67 C 742.28 448.77 741.46 448.68 737.05 448.41 C 731.81 445.57 728.27 433.26 724.46 427.76 C 713.69 416.96 697.76 412.35 683.70 419.69 C 677.12 423.13 673.01 428.21 665.09 427.71 C 661.73 426.00 661.34 425.55 659.41 422.30 C 659.69 419.85 659.58 418.06 661.00 415.99 C 669.12 404.16 681.93 398.61 695.48 395.97 Z" fill="#07050b" fill-rule="nonzero" node-id="122" stroke="none" target-height="53.036987" target-width="89.41699" target-x="659.406" target-y="395.737"></path><path d="M 458.08 341.80 C 464.34 341.40 470.06 341.65 476.23 342.86 C 489.57 345.48 501.50 356.01 508.83 367.05 C 513.80 374.53 516.12 381.90 514.33 390.76 C 511.06 393.54 510.66 393.96 506.44 394.40 C 498.50 390.95 494.03 377.39 487.73 370.73 L 483.81 368.08 C 474.55 362.54 463.11 359.12 452.33 362.14 L 451.00 362.55 C 442.20 365.21 434.50 375.91 425.64 375.25 C 422.44 373.86 421.07 372.89 419.43 369.79 C 419.64 366.99 420.33 364.88 421.80 362.46 C 429.06 350.51 445.17 344.49 458.08 341.80 Z" fill="#07050b" fill-rule="nonzero" node-id="124" stroke="none" target-height="53" target-width="96.69403" target-x="419.425" target-y="341.404"></path><path d="M 546.59 430.01 C 552.47 433.64 559.37 436.18 566.39 434.26 C 568.30 433.73 569.98 432.55 571.62 431.49 L 574.11 429.86 C 578.60 434.38 582.30 438.53 588.42 440.66 L 589.60 441.09 C 593.11 442.27 598.61 442.23 601.92 440.56 C 601.89 455.08 599.82 469.37 596.08 483.40 C 595.36 486.11 594.69 490.55 593.00 492.77 L 591.08 493.19 L 589.31 497.23 C 589.01 497.77 588.59 498.40 588.42 499.00 C 587.79 501.24 587.92 502.11 586.36 504.01 C 585.27 499.89 587.79 496.65 586.03 491.87 L 585.47 490.39 C 583.49 487.10 582.00 484.63 578.01 483.86 C 575.21 483.32 572.36 484.24 570.17 486.01 L 564.89 491.87 C 564.11 492.73 563.45 493.00 562.35 493.26 L 562.03 492.20 C 560.91 488.60 559.67 485.24 556.21 483.29 C 553.12 481.54 550.44 481.83 547.08 482.42 C 543.59 485.31 543.01 487.07 541.85 491.32 L 540.83 494.53 L 540.09 492.63 C 538.37 494.62 539.28 499.32 539.47 501.94 L 538.58 502.54 L 538.31 499.59 C 538.17 497.21 537.75 495.54 536.95 493.33 L 535.61 493.87 L 535.32 493.43 C 533.67 473.15 537.30 448.29 546.59 430.01 Z" fill="#a50e50" fill-rule="nonzero" node-id="126" stroke="none" target-height="74.14902" target-width="68.25299" target-x="533.67" target-y="429.857"></path></svg>