<?xml version="1.0" standalone="no"?><!DOCTYPE svg PUBLIC "-//W3C//DTD SVG 1.1//EN" "http://www.w3.org/Graphics/SVG/1.1/DTD/svg11.dtd"><svg height="4000" node-id="1" sillyvg="true" template-height="4000" template-width="4000" version="1.1" viewBox="0 0 4000 4000" width="4000" xmlns="http://www.w3.org/2000/svg" xmlns:xlink="http://www.w3.org/1999/xlink"><defs node-id="145"><linearGradient gradientUnits="userSpaceOnUse" id="SVGID_1_" node-id="5" spreadMethod="pad" x1="220.8473" x2="3758.1548" y1="2162.005" y2="2162.005"><stop offset="0" stop-color="#4085f0"></stop><stop offset="1" stop-color="#275dc9"></stop></linearGradient><linearGradient gradientUnits="userSpaceOnUse" id="SVGID_2_" node-id="9" spreadMethod="pad" x1="443.2731" x2="3641.4312" y1="1909.6047" y2="1909.6047"><stop offset="0" stop-color="#68b2fc"></stop><stop offset="1" stop-color="#529bf7"></stop></linearGradient><linearGradient gradientUnits="userSpaceOnUse" id="SVGID_3_" node-id="13" spreadMethod="pad" x1="443.2731" x2="2071.8396" y1="1838.8689" y2="1838.8689"><stop offset="0" stop-color="#68b2fc"></stop><stop offset="1" stop-color="#529bf7"></stop></linearGradient><linearGradient gradientUnits="userSpaceOnUse" id="SVGID_4_" node-id="17" spreadMethod="pad" x1="2071.8396" x2="3641.4314" y1="1963.0569" y2="1963.0569"><stop offset="0" stop-color="#68b2fc"></stop><stop offset="1" stop-color="#527fbf"></stop></linearGradient><linearGradient gradientUnits="userSpaceOnUse" id="SVGID_5_" node-id="66" spreadMethod="pad" x1="1150.5786" x2="2395.5051" y1="438.9052" y2="438.9052"><stop offset="0" stop-color="#68b2fc"></stop><stop offset="1" stop-color="#ebf0f7"></stop></linearGradient><linearGradient gradientUnits="userSpaceOnUse" id="SVGID_6_" node-id="117" spreadMethod="pad" x1="392.4438" x2="643.4224" y1="1341.5608" y2="1341.5608"><stop offset="0" stop-color="#4085f0"></stop><stop offset="1" stop-color="#275dc9"></stop></linearGradient><linearGradient gradientUnits="userSpaceOnUse" id="SVGID_7_" node-id="121" spreadMethod="pad" x1="482.9811" x2="925.847" y1="3488.8977" y2="3488.8977"><stop offset="0" stop-color="#68b2fc"></stop><stop offset="1" stop-color="#529bf7"></stop></linearGradient><linearGradient gradientUnits="userSpaceOnUse" id="SVGID_8_" node-id="125" spreadMethod="pad" x1="2869.205" x2="2999.6536" y1="3873.9004" y2="3873.9004"><stop offset="0" stop-color="#4085f0"></stop><stop offset="1" stop-color="#275dc9"></stop></linearGradient><linearGradient gradientUnits="userSpaceOnUse" id="SVGID_9_" node-id="129" spreadMethod="pad" x1="3503.7153" x2="3779.1526" y1="1590.4545" y2="1590.4545"><stop offset="0" stop-color="#68b2fc"></stop><stop offset="1" stop-color="#529bf7"></stop></linearGradient><linearGradient gradientUnits="userSpaceOnUse" id="SVGID_10_" node-id="137" spreadMethod="pad" x1="1085.216" x2="1839.3176" y1="1379.727" y2="1379.727"><stop offset="0" stop-color="#68b2fc"></stop><stop offset="1" stop-color="#ebf0f7"></stop></linearGradient></defs><path d="M 818.40 3323.80 C 1202.70 3588.10 1578.50 3644.50 1735.50 3666.20 C 1816.30 3677.40 2160.30 3720.50 2609.80 3617.30 C 2836.70 3565.20 3672.20 3373.30 3753.20 2932.50 C 3779.50 2789.50 3696.30 2783.50 3582.00 2351.60 C 3478.60 1961.20 3522.00 1873.20 3429.10 1630.10 C 3429.10 1630.10 3306.40 1308.90 3037.80 1055.40 C 2403.50 456.80 1093.50 577.20 959.00 957.60 C 859.40 1239.40 1457.40 1515.20 1356.40 1874.70 C 1236.10 2303.20 299.00 2224.30 225.20 2602.30 C 171.40 2878.70 620.30 3187.50 818.40 3323.80 Z" fill="url(#SVGID_1_)" fill-rule="nonzero" node-id="210" stroke="none" target-height="3263.7" target-width="3608.1" target-x="171.4" target-y="456.8"></path><path d="M 891.80 1538.40 C 799.50 1644.00 496.50 2015.10 453.60 2522.80 C 437.80 2709.80 410.30 3035.20 633.00 3305.40 C 654.60 3331.70 902.60 3624.10 1240.40 3615.20 C 1480.10 3608.90 1535.80 3456.70 1770.30 3476.60 C 1962.20 3492.90 1986.90 3600.00 2218.70 3688.60 C 2600.30 3834.40 2962.50 3708.00 2993.20 3696.80 C 3029.80 3683.40 3537.70 3491.30 3572.00 3154.70 C 3584.00 3037.10 3529.90 2982.50 3490.50 2604.40 C 3483.80 2540.30 3477.40 2465.70 3502.70 2376.10 C 3532.40 2270.90 3578.50 2241.50 3608.70 2156.00 C 3616.70 2133.30 3685.40 1926.40 3596.50 1838.10 C 3534.10 1776.10 3456.00 1834.20 3388.60 1777.00 C 3310.10 1710.30 3359.40 1583.20 3347.80 1389.80 C 3344.20 1329.50 3330.10 1092.50 3213.30 941.40 C 3063.30 747.40 2872.90 861.50 2577.40 692.80 C 2260.00 511.50 2340.50 300.30 2039.30 150.70 C 1802.40 33.00 1451.30 13.90 1268.90 199.60 C 1251.10 217.80 1152.50 318.00 1150.70 460.50 C 1147.60 696.50 1413.70 761.00 1427.90 953.70 C 1442.10 1148.50 1179.00 1210.00 891.80 1538.40 Z" fill="url(#SVGID_2_)" fill-rule="nonzero" node-id="212" stroke="none" target-height="3820.5" target-width="3275.0999" target-x="410.3" target-y="13.9"></path><path d="M 2039.20 150.50 C 1802.30 32.80 1451.20 13.70 1268.80 199.40 C 1251.00 217.60 1152.40 317.80 1150.60 460.30 C 1147.50 696.30 1413.60 760.80 1427.80 953.50 C 1442.10 1148.60 1179.00 1210.00 891.80 1538.40 C 799.50 1644.00 496.50 2015.10 453.60 2522.80 C 437.80 2709.80 410.30 3035.20 633.00 3305.40 C 654.60 3331.70 902.60 3624.10 1240.40 3615.20 C 1480.10 3608.90 1535.80 3456.70 1770.30 3476.60 C 1911.70 3488.60 1962.40 3549.90 2071.90 3616.80 L 2071.90 167.80 C 2061.50 161.90 2050.70 156.20 2039.20 150.50 Z" fill="url(#SVGID_3_)" fill-rule="nonzero" node-id="214" stroke="none" target-height="3610.4001" target-width="1661.5999" target-x="410.3" target-y="13.7"></path><path d="M 3608.60 2156.00 C 3616.60 2133.30 3685.30 1926.40 3596.40 1838.10 C 3534.00 1776.10 3455.90 1834.20 3388.50 1777.00 C 3310.00 1710.30 3359.30 1583.20 3347.70 1389.80 C 3344.10 1329.50 3330.00 1092.50 3213.20 941.40 C 3063.20 747.40 2872.80 861.50 2577.30 692.80 C 2271.90 518.40 2334.80 316.30 2071.80 168.00 L 2071.80 3617.10 C 2110.90 3641.00 2157.60 3665.60 2218.50 3688.90 C 2600.10 3834.70 2962.30 3708.30 2993.00 3697.10 C 3029.60 3683.70 3537.50 3491.60 3571.80 3155.00 C 3583.80 3037.40 3529.70 2982.80 3490.30 2604.70 C 3483.60 2540.60 3477.20 2466.00 3502.50 2376.40 C 3532.30 2270.90 3578.40 2241.50 3608.60 2156.00 Z" fill="url(#SVGID_4_)" fill-rule="nonzero" node-id="216" stroke="none" target-height="3666.7" target-width="1613.5" target-x="2071.8" target-y="168"></path><g node-id="453"><g node-id="459"><path d="M 2427.90 3148.00 L 2455.40 1197.50 L 3321.00 1197.50 C 3326.60 1223.10 3331.40 1249.80 3335.30 1277.10 C 3342.60 1328.20 3345.10 1369.80 3346.30 1389.80 C 3350.20 1455.60 3347.10 1513.50 3344.40 1564.50 C 3342.40 1601.20 3340.70 1632.90 3341.90 1661.50 C 3343.20 1693.40 3347.90 1717.50 3357.00 1737.30 C 3364.20 1753.30 3374.30 1766.70 3387.70 1778.10 C 3421.10 1806.50 3457.20 1806.80 3492.20 1807.20 C 3529.20 1807.60 3564.10 1807.90 3595.50 1839.20 C 3666.80 1910.00 3635.10 2059.80 3618.10 2120.90 C 3612.90 2139.70 3608.60 2152.20 3607.40 2155.60 C 3602.50 2169.50 3596.90 2182.70 3590.40 2195.80 C 3581.00 2214.60 3571.20 2230.70 3560.70 2247.60 C 3539.70 2281.80 3517.90 2317.10 3501.40 2375.70 C 3479.10 2454.60 3481.20 2521.00 3486.80 2581.00 C 3487.50 2589.00 3488.30 2596.80 3489.10 2604.50 C 3491.20 2624.20 3493.00 2641.10 3494.80 2656.30 C 3514.10 2821.30 3535.60 2917.00 3551.30 2986.90 C 3555.80 3007.10 3559.80 3024.60 3563.00 3041.00 C 3563.90 3045.60 3564.80 3075.60 3565.60 3102.10 C 3566.20 3123.20 3566.80 3141.80 3567.30 3148.10 L 2427.90 3148.10 Z" fill="#ffffff" fill-rule="nonzero" group-id="1,7" node-id="222" stroke="none" target-height="1950.6001" target-width="1238.9001" target-x="2427.9" target-y="1197.5"></path><path d="M 3319.80 1198.90 C 3325.30 1224.10 3330.00 1250.40 3333.80 1277.30 C 3341.10 1328.40 3343.60 1369.90 3344.80 1389.90 C 3348.70 1455.60 3345.60 1513.40 3342.90 1564.40 C 3340.90 1601.10 3339.20 1632.80 3340.40 1661.60 C 3341.70 1693.70 3346.50 1717.90 3355.60 1737.90 C 3362.90 1754.10 3373.10 1767.60 3386.70 1779.20 C 3420.50 1807.90 3456.90 1808.30 3492.10 1808.60 C 3528.80 1809.00 3563.40 1809.30 3594.40 1840.20 C 3624.60 1870.20 3639.50 1917.40 3638.60 1980.50 C 3637.90 2033.30 3626.30 2085.80 3616.60 2120.60 C 3611.40 2139.40 3607.10 2151.90 3605.90 2155.20 C 3601.00 2169.00 3595.50 2182.20 3588.90 2195.30 C 3579.60 2214.00 3569.70 2230.10 3559.30 2247.00 C 3538.20 2281.30 3516.40 2316.70 3499.80 2375.50 C 3477.50 2454.60 3479.60 2521.20 3485.20 2581.30 C 3485.90 2589.40 3486.70 2597.40 3487.50 2604.80 C 3489.60 2624.40 3491.40 2641.30 3493.20 2656.60 C 3512.50 2821.70 3534.00 2917.40 3549.70 2987.30 C 3554.20 3007.50 3558.20 3025.00 3561.40 3041.30 C 3562.30 3045.80 3563.20 3077.00 3564.00 3102.10 C 3564.60 3121.70 3565.10 3139.10 3565.60 3146.60 L 2429.40 3146.60 L 2456.80 1199.00 L 3319.80 1199.00 M 3322.10 1196.00 L 2454.00 1196.00 L 2426.50 3149.40 L 3568.80 3149.40 C 3567.50 3141.40 3566.00 3049.30 3564.30 3040.70 C 3549.80 2967.60 3521.00 2868.80 3496.10 2656.20 C 3494.20 2639.70 3492.30 2622.40 3490.40 2604.50 C 3489.60 2596.80 3488.80 2589.00 3488.10 2581.00 C 3482.60 2522.30 3480.40 2455.10 3502.70 2376.20 C 3527.20 2289.40 3562.90 2254.20 3591.60 2196.50 C 3597.70 2184.30 3603.40 2171.10 3608.70 2156.10 C 3610.40 2151.40 3614.60 2138.90 3619.50 2121.30 C 3638.40 2053.20 3667.10 1908.30 3596.50 1838.20 C 3534.10 1776.20 3456.00 1834.30 3388.60 1777.00 C 3375.00 1765.40 3365.20 1752.00 3358.30 1736.70 C 3348.60 1715.30 3344.50 1690.30 3343.40 1661.50 C 3340.70 1592.70 3354.60 1502.50 3347.90 1389.80 C 3346.70 1369.30 3344.20 1328.20 3336.90 1277.00 C 3333.10 1251.90 3328.40 1224.60 3322.10 1196.00 L 3322.10 1196.00 Z" fill="#000000" fill-rule="nonzero" group-id="1,7" node-id="224" stroke="none" target-height="1953.3999" target-width="1240.6001" target-x="2426.5" target-y="1196"></path></g><path d="M 2293.90 1282.40 L 2040.10 1419.20 L 2015.10 3161.90 L 2426.50 3149.40 L 2433.40 2657.80 L 2454.00 1196.00 Z" fill="#bdb6bd" fill-rule="nonzero" group-id="1" node-id="227" stroke="none" target-height="1965.8999" target-width="438.90002" target-x="2015.1" target-y="1196"></path><path d="M 3619.30 2121.20 C 3614.40 2138.90 3610.20 2151.30 3608.50 2156.00 C 3603.20 2171.00 3597.50 2184.20 3591.40 2196.40 C 3562.70 2254.10 3527.00 2289.30 3502.50 2376.10 C 3480.20 2455.00 3482.50 2522.20 3487.90 2580.90 C 3488.60 2588.90 3489.40 2596.70 3490.20 2604.40 C 3492.10 2622.40 3494.00 2639.60 3495.90 2656.10 C 3520.70 2868.70 3549.60 2967.60 3564.10 3040.60 C 3565.80 3049.20 3582.40 3123.50 3568.60 3149.30 L 2426.50 3149.30 L 2454.00 1196.00 L 3322.10 1196.00 C 3328.40 1224.60 3333.10 1251.90 3336.70 1276.80 C 3344.00 1328.00 3346.50 1369.10 3347.70 1389.60 C 3354.40 1502.30 3340.50 1592.50 3343.20 1661.30 C 3344.30 1690.10 3348.40 1715.10 3358.10 1736.50 C 3365.00 1751.80 3374.80 1765.20 3388.40 1776.80 C 3455.70 1834.00 3533.80 1775.90 3596.30 1838.00 C 3667.00 1908.20 3638.20 2053.10 3619.30 2121.20 Z" fill="#dbd2db" fill-rule="nonzero" group-id="1" node-id="229" stroke="none" target-height="1953.3" target-width="1240.5" target-x="2426.5" target-y="1196"></path><path d="M 2540.60 1276.90 L 3084.10 1276.90 L 3084.10 1661.40 L 2540.60 1661.40 Z" fill="#572658" fill-rule="nonzero" group-id="1" node-id="231" stroke="none" target-height="384.5" target-width="543.5" target-x="2540.6" target-y="1276.9"></path><path d="M 2540.60 1736.60 L 3084.10 1736.60 L 3084.10 2121.10 L 2540.60 2121.10 Z" fill="#572658" fill-rule="nonzero" group-id="1" node-id="233" stroke="none" target-height="384.50012" target-width="543.5" target-x="2540.6" target-y="1736.6"></path><path d="M 2540.60 2196.40 L 3084.10 2196.40 L 3084.10 2580.90 L 2540.60 2580.90 Z" fill="#572658" fill-rule="nonzero" group-id="1" node-id="235" stroke="none" target-height="384.5" target-width="543.5" target-x="2540.6" target-y="2196.4"></path><path d="M 2540.60 2656.10 L 3084.10 2656.10 L 3084.10 3040.60 L 2540.60 3040.60 Z" fill="#572658" fill-rule="nonzero" group-id="1" node-id="237" stroke="none" target-height="384.5" target-width="543.5" target-x="2540.6" target-y="2656.1"></path><path d="M 2547.70 1284.50 L 3091.20 1284.50 L 3091.20 1669.00 L 2547.70 1669.00 Z" fill="#f2e7f2" fill-rule="nonzero" group-id="1" node-id="239" stroke="none" target-height="384.5" target-width="543.5" target-x="2547.7" target-y="1284.5"></path><path d="M 2547.70 1744.30 L 3091.20 1744.30 L 3091.20 2128.80 L 2547.70 2128.80 Z" fill="#f2e7f2" fill-rule="nonzero" group-id="1" node-id="241" stroke="none" target-height="384.5" target-width="543.5" target-x="2547.7" target-y="1744.3"></path><path d="M 2547.70 2204.00 L 3091.20 2204.00 L 3091.20 2588.50 L 2547.70 2588.50 Z" fill="#f2e7f2" fill-rule="nonzero" group-id="1" node-id="243" stroke="none" target-height="384.5" target-width="543.5" target-x="2547.7" target-y="2204"></path><path d="M 2547.70 2663.80 L 3091.20 2663.80 L 3091.20 3048.30 L 2547.70 3048.30 Z" fill="#f2e7f2" fill-rule="nonzero" group-id="1" node-id="245" stroke="none" target-height="384.5" target-width="543.5" target-x="2547.7" target-y="2663.8"></path><path d="M 3343.20 1661.40 L 3168.30 1661.40 L 3168.30 1276.90 L 3336.60 1276.90 C 3337.00 1279.40 3337.30 1281.90 3337.70 1284.40 C 3344.20 1332.10 3346.50 1370.20 3347.60 1389.70 C 3354.40 1502.30 3340.50 1592.60 3343.20 1661.40 Z" fill="#572658" fill-rule="nonzero" group-id="1" node-id="247" stroke="none" target-height="384.5" target-width="186.09985" target-x="3168.3" target-y="1276.9"></path><path d="M 3619.30 2121.20 L 3176.80 2121.20 L 3176.80 1744.10 L 3361.80 1744.10 C 3368.30 1756.30 3377.00 1767.20 3388.40 1776.90 C 3389.30 1777.70 3390.30 1778.40 3391.20 1779.20 C 3457.50 1832.30 3533.90 1777.50 3595.30 1837.20 C 3595.60 1837.50 3596.00 1837.80 3596.30 1838.10 C 3667.00 1908.20 3638.20 2053.10 3619.30 2121.20 Z" fill="#f2e7f2" fill-rule="nonzero" group-id="1" node-id="249" stroke="none" target-height="377.09998" target-width="490.19995" target-x="3176.8" target-y="1744.1"></path><path d="M 3361.90 1744.10 L 3176.90 1744.10 L 3176.90 2121.20 L 3168.40 2121.20 L 3168.40 1736.70 L 3358.20 1736.70 C 3359.30 1739.20 3360.50 1741.60 3361.90 1744.10 Z" fill="#572658" fill-rule="nonzero" group-id="1" node-id="251" stroke="none" target-height="384.5" target-width="193.5" target-x="3168.4" target-y="1736.7"></path><path d="M 3591.50 2196.40 C 3590.20 2198.90 3589.00 2201.40 3587.70 2203.90 C 3559.70 2257.40 3526.10 2293.20 3502.60 2376.20 C 3480.30 2455.10 3482.60 2522.30 3488.00 2581.00 L 3168.30 2581.00 L 3168.30 2196.50 L 3591.50 2196.50 Z" fill="#572658" fill-rule="nonzero" group-id="1" node-id="253" stroke="none" target-height="384.6001" target-width="423.19995" target-x="3168.3" target-y="2196.4"></path><path d="M 3564.20 3040.60 L 3168.30 3040.60 L 3168.30 2656.10 L 3496.00 2656.10 C 3496.30 2658.60 3496.60 2661.10 3496.90 2663.60 C 3521.60 2871.00 3549.90 2968.40 3564.20 3040.60 Z" fill="#572658" fill-rule="nonzero" group-id="1" node-id="255" stroke="none" target-height="384.5" target-width="395.8999" target-x="3168.3" target-y="2656.1"></path><path d="M 3343.20 1661.40 L 3176.80 1661.40 L 3176.80 1284.30 L 3337.70 1284.30 C 3344.20 1332.00 3346.50 1370.10 3347.60 1389.60 C 3354.40 1502.30 3340.50 1592.60 3343.20 1661.40 Z" fill="#f2e7f2" fill-rule="nonzero" group-id="1" node-id="257" stroke="none" target-height="377.09998" target-width="177.59985" target-x="3176.8" target-y="1284.3"></path><path d="M 3502.60 2376.10 C 3480.30 2455.00 3482.60 2522.20 3488.00 2580.90 L 3176.80 2580.90 L 3176.80 2203.90 L 3587.60 2203.90 C 3559.70 2257.30 3526.00 2293.10 3502.60 2376.10 Z" fill="#f2e7f2" fill-rule="nonzero" group-id="1" node-id="259" stroke="none" target-height="377" target-width="410.80005" target-x="3176.8" target-y="2203.9"></path><path d="M 3564.20 3040.60 L 3176.80 3040.60 L 3176.80 2663.50 L 3497.00 2663.50 C 3521.60 2871.00 3549.90 2968.40 3564.20 3040.60 Z" fill="#f2e7f2" fill-rule="nonzero" group-id="1" node-id="261" stroke="none" target-height="377.1001" target-width="387.3999" target-x="3176.8" target-y="2663.5"></path><path d="M 2821.91 1317.70 L 2825.14 1318.69 L 2828.08 1320.04 L 2830.76 1321.74 L 2833.21 1323.78 L 2835.33 1326.07 L 2837.16 1328.62 L 2838.64 1331.39 L 2839.75 1334.31 L 2840.50 1337.40 L 2840.84 1340.56 L 2840.75 1343.80 L 2840.21 1347.13 L 2839.22 1350.35 L 2837.87 1353.29 L 2836.17 1355.98 L 2834.13 1358.42 L 2831.84 1360.55 L 2829.29 1362.37 L 2826.52 1363.85 L 2823.61 1364.97 L 2820.51 1365.71 L 2817.35 1366.05 L 2814.12 1365.96 L 2810.79 1365.42 L 2807.56 1364.43 L 2804.62 1363.08 L 2801.94 1361.38 L 2799.49 1359.34 L 2797.37 1357.05 L 2795.54 1354.50 L 2794.06 1351.74 L 2792.95 1348.82 L 2792.20 1345.72 L 2791.86 1342.56 L 2791.95 1339.33 L 2792.49 1336.00 L 2793.48 1332.77 L 2794.83 1329.83 L 2796.53 1327.15 L 2798.57 1324.70 L 2800.86 1322.58 L 2803.41 1320.76 L 2806.18 1319.27 L 2809.10 1318.16 L 2812.19 1317.41 L 2815.35 1317.07 L 2818.58 1317.16 L 2821.91 1317.70 Z" fill="#ffb114" fill-rule="nonzero" group-id="1,8" node-id="265" stroke="none" target-height="48.979736" target-width="48.979736" target-x="2791.8606" target-y="1317.0725"></path><path d="M 2821.86 1773.96 L 2825.08 1774.96 L 2828.02 1776.30 L 2830.71 1778.00 L 2833.15 1780.04 L 2835.28 1782.33 L 2837.10 1784.89 L 2838.59 1787.65 L 2839.70 1790.57 L 2840.45 1793.66 L 2840.78 1796.83 L 2840.69 1800.06 L 2840.15 1803.39 L 2839.16 1806.61 L 2837.82 1809.55 L 2836.11 1812.24 L 2834.07 1814.68 L 2831.79 1816.81 L 2829.23 1818.63 L 2826.47 1820.12 L 2823.55 1821.23 L 2820.45 1821.98 L 2817.29 1822.31 L 2814.06 1822.22 L 2810.73 1821.68 L 2807.51 1820.69 L 2804.57 1819.35 L 2801.88 1817.64 L 2799.43 1815.60 L 2797.31 1813.32 L 2795.49 1810.76 L 2794.00 1808.00 L 2792.89 1805.08 L 2792.14 1801.98 L 2791.80 1798.82 L 2791.90 1795.59 L 2792.43 1792.26 L 2793.43 1789.04 L 2794.77 1786.10 L 2796.47 1783.41 L 2798.51 1780.96 L 2800.80 1778.84 L 2803.36 1777.02 L 2806.12 1775.53 L 2809.04 1774.42 L 2812.13 1773.67 L 2815.30 1773.33 L 2818.53 1773.43 L 2821.86 1773.96 Z" fill="#ffb114" fill-rule="nonzero" group-id="1,9" node-id="270" stroke="none" target-height="48.979736" target-width="48.97998" target-x="2791.804" target-y="1773.3342"></path><path d="M 2833.57 2237.03 L 2835.75 2239.61 L 2837.50 2242.33 L 2838.84 2245.21 L 2839.80 2248.25 L 2840.35 2251.32 L 2840.51 2254.45 L 2840.26 2257.58 L 2839.63 2260.64 L 2838.59 2263.65 L 2837.16 2266.49 L 2835.34 2269.16 L 2833.09 2271.68 L 2830.52 2273.85 L 2827.80 2275.60 L 2824.91 2276.94 L 2821.88 2277.90 L 2818.80 2278.45 L 2815.67 2278.61 L 2812.54 2278.37 L 2809.49 2277.73 L 2806.48 2276.69 L 2803.63 2275.27 L 2800.96 2273.44 L 2798.45 2271.20 L 2796.27 2268.62 L 2794.52 2265.90 L 2793.18 2263.02 L 2792.22 2259.98 L 2791.67 2256.91 L 2791.51 2253.77 L 2791.76 2250.65 L 2792.39 2247.59 L 2793.44 2244.58 L 2794.86 2241.74 L 2796.68 2239.07 L 2798.93 2236.55 L 2801.50 2234.37 L 2804.22 2232.63 L 2807.11 2231.28 L 2810.14 2230.33 L 2813.22 2229.77 L 2816.35 2229.62 L 2819.48 2229.86 L 2822.54 2230.50 L 2825.54 2231.54 L 2828.39 2232.96 L 2831.06 2234.78 L 2833.57 2237.03 Z" fill="#ffb114" fill-rule="nonzero" group-id="1,10" node-id="275" stroke="none" target-height="48.99243" target-width="48.992676" target-x="2791.5137" target-y="2229.6174"></path><path d="M 2821.94 2686.53 L 2825.16 2687.52 L 2828.10 2688.87 L 2830.79 2690.57 L 2833.23 2692.61 L 2835.36 2694.90 L 2837.18 2697.46 L 2838.67 2700.22 L 2839.78 2703.14 L 2840.53 2706.23 L 2840.86 2709.39 L 2840.77 2712.63 L 2840.24 2715.96 L 2839.24 2719.18 L 2837.90 2722.12 L 2836.19 2724.81 L 2834.16 2727.25 L 2831.87 2729.38 L 2829.31 2731.20 L 2826.55 2732.68 L 2823.63 2733.80 L 2820.54 2734.54 L 2817.37 2734.88 L 2814.14 2734.79 L 2810.81 2734.25 L 2807.59 2733.26 L 2804.65 2731.92 L 2801.96 2730.21 L 2799.52 2728.17 L 2797.39 2725.89 L 2795.57 2723.33 L 2794.08 2720.57 L 2792.97 2717.65 L 2792.22 2714.55 L 2791.89 2711.39 L 2791.98 2708.16 L 2792.51 2704.83 L 2793.51 2701.61 L 2794.85 2698.67 L 2796.56 2695.98 L 2798.59 2693.53 L 2800.88 2691.41 L 2803.44 2689.59 L 2806.20 2688.10 L 2809.12 2686.99 L 2812.21 2686.24 L 2815.38 2685.90 L 2818.61 2686.00 L 2821.94 2686.53 Z" fill="#ffb114" fill-rule="nonzero" group-id="1,11" node-id="280" stroke="none" target-height="48.97998" target-width="48.979492" target-x="2791.8853" target-y="2685.9033"></path><path d="M 3512.29 2237.57 L 3514.39 2240.21 L 3516.05 2242.98 L 3517.31 2245.90 L 3518.17 2248.97 L 3518.64 2252.05 L 3518.70 2255.19 L 3518.36 2258.31 L 3517.63 2261.35 L 3516.50 2264.32 L 3515.00 2267.12 L 3513.10 2269.74 L 3510.77 2272.18 L 3508.13 2274.29 L 3505.36 2275.95 L 3502.44 2277.21 L 3499.38 2278.07 L 3496.29 2278.53 L 3493.15 2278.60 L 3490.03 2278.26 L 3487.00 2277.53 L 3484.02 2276.40 L 3481.22 2274.89 L 3478.60 2272.99 L 3476.16 2270.67 L 3474.06 2268.03 L 3472.39 2265.26 L 3471.14 2262.34 L 3470.27 2259.28 L 3469.81 2256.19 L 3469.75 2253.05 L 3470.08 2249.93 L 3470.81 2246.89 L 3471.94 2243.92 L 3473.45 2241.12 L 3475.35 2238.50 L 3477.67 2236.06 L 3480.31 2233.96 L 3483.08 2232.29 L 3486.01 2231.03 L 3489.07 2230.17 L 3492.16 2229.71 L 3495.29 2229.64 L 3498.41 2229.98 L 3501.45 2230.71 L 3504.42 2231.84 L 3507.23 2233.35 L 3509.84 2235.25 L 3512.29 2237.57 Z" fill="#ffb114" fill-rule="nonzero" group-id="1,12" node-id="285" stroke="none" target-height="48.95117" target-width="48.95117" target-x="3469.747" target-y="2229.645"></path><path d="M 3494.40 2685.90 C 3480.90 2685.90 3469.90 2696.90 3469.90 2710.40 C 3469.90 2723.90 3480.80 2734.90 3494.40 2734.90 C 3498.60 2734.90 3502.50 2733.80 3506.00 2732.00 L 3499.80 2686.60 C 3498.10 2686.10 3496.30 2685.90 3494.40 2685.90 Z" fill="#ffb114" fill-rule="nonzero" group-id="1" node-id="288" stroke="none" target-height="49" target-width="36.100098" target-x="3469.9" target-y="2685.9"></path></g><path d="M 2117.90 2601.70 C 2129.30 2638.90 2137.90 2676.00 2149.30 2716.10 C 2166.50 2784.70 2237.90 2816.20 2295.10 2787.60 C 2314.40 2778.50 2333.30 2764.30 2349.00 2746.90 C 2288.50 2569.70 2183.50 2283.40 2140.40 2267.70 L 2107.00 2516.90 C 2109.40 2529.50 2110.90 2542.00 2115.10 2553.20 C 2120.80 2567.40 2115.10 2584.50 2117.90 2601.70 Z" fill="#eb485c" fill-rule="nonzero" node-id="291" stroke="none" target-height="548.5" target-width="242" target-x="2107" target-y="2267.7"></path><path d="M 2389.20 2868.00 C 2382.00 2845.10 2367.70 2801.10 2349.10 2746.90 C 2333.40 2764.30 2314.50 2778.50 2295.20 2787.60 C 2238.00 2816.20 2166.50 2784.70 2149.40 2716.10 C 2138.00 2676.10 2129.40 2638.90 2118.00 2601.70 C 2115.10 2584.50 2120.90 2567.40 2115.10 2553.10 C 2110.90 2541.90 2109.40 2529.40 2107.00 2516.80 L 2088.10 2657.40 C 2088.10 2657.40 2118.00 2960.40 2218.50 2998.40 C 2319.10 3036.40 2419.80 2965.80 2389.20 2868.00 Z" fill="#d1334a" fill-rule="nonzero" node-id="293" stroke="none" target-height="519.59985" target-width="331.69995" target-x="2088.1" target-y="2516.8"></path><path d="M 1239.60 3138.30 C 1241.60 2923.60 1054.10 2619.30 1054.10 2619.30 L 1425.00 2586.70 L 1472.60 3155.70 C 1472.60 3155.70 1503.90 3162.80 1239.60 3138.30 Z" fill="#3b546b" fill-rule="nonzero" group-id="2" node-id="297" stroke="none" target-height="576.1001" target-width="449.80005" target-x="1054.1" target-y="2586.7"></path><path d="M 1709.10 2973.40 C 1663.40 2962.00 1597.60 2959.10 1589.00 2913.40 C 1571.80 2804.80 1566.10 2699.00 1554.70 2593.20 C 1540.40 2466.50 1574.00 2343.80 1612.10 2223.40 C 1586.30 2254.10 1553.60 2296.60 1503.70 2355.70 C 1367.60 2516.70 1317.80 3145.40 1317.80 3145.40 C 1317.80 3145.40 1444.20 3144.40 1885.60 3087.40 C 1890.60 3069.10 1906.30 3034.40 1928.60 2990.10 C 1856.10 2990.80 1783.40 2988.50 1709.10 2973.40 Z" fill="#d1334a" fill-rule="nonzero" group-id="2" node-id="299" stroke="none" target-height="922" target-width="610.7999" target-x="1317.8" target-y="2223.4"></path><path d="M 2152.00 2287.80 C 2096.30 2164.20 1825.90 2133.60 1736.90 2145.10 C 1680.60 2152.40 1656.60 2170.40 1612.10 2223.40 C 1574.00 2343.80 1540.30 2466.50 1554.70 2593.20 C 1566.10 2699.00 1571.90 2804.80 1589.00 2913.40 C 1597.60 2959.10 1663.30 2962.00 1709.10 2973.40 C 1783.40 2988.60 1856.10 2990.90 1928.50 2990.10 C 1965.70 2916.20 2021.10 2815.40 2075.90 2718.50 C 2163.60 2563.60 2207.70 2411.40 2152.00 2287.80 Z" fill="#ef5668" fill-rule="nonzero" group-id="2" node-id="301" stroke="none" target-height="857.2998" target-width="667.3999" target-x="1540.3" target-y="2133.6"></path><path d="M 1806.90 3054.80 C 1978.10 2778.60 1963.80 2350.30 1963.80 2350.30 L 1948.00 2350.30 C 1948.00 2350.30 1903.30 2847.60 1791.90 3046.70 C 1800.80 3065.00 1806.90 3054.80 1806.90 3054.80 Z" fill="#d1334a" fill-rule="nonzero" group-id="2" node-id="303" stroke="none" target-height="714.69995" target-width="186.19995" target-x="1791.9" target-y="2350.3"></path><path d="M 1173.00 3162.80 C 1200.50 2953.90 1031.40 2726.60 1031.40 2726.60 L 1054.20 2619.30 C 1054.20 2619.30 1241.70 2923.60 1239.70 3138.30 C 1239.60 3138.30 1224.00 3149.50 1173.00 3162.80 Z" fill="#1a1a1a" fill-rule="nonzero" group-id="2" node-id="305" stroke="none" target-height="543.5" target-width="210.29993" target-x="1031.4" target-y="2619.3"></path><path d="M 3573.60 3117.40 C 3573.80 3129.40 3573.20 3141.60 3571.90 3154.60 C 3537.60 3491.20 3029.70 3683.30 2993.10 3696.70 C 2962.40 3707.90 2600.20 3834.40 2218.60 3688.60 C 1986.80 3600.00 1962.10 3492.90 1770.20 3476.60 C 1535.60 3456.70 1480.00 3608.80 1240.30 3615.20 C 902.50 3624.10 654.60 3331.70 632.90 3305.40 C 583.00 3244.80 545.60 3181.30 517.90 3117.40 L 3573.60 3117.40 Z" fill="#b080b0" fill-rule="nonzero" node-id="308" stroke="none" target-height="717" target-width="3055.9" target-x="517.9" target-y="3117.4"></path><path d="M 1016.10 3117.40 C 1016.10 3117.40 1423.70 3134.20 1517.50 3281.00 C 1611.30 3427.70 2294.00 3586.70 2380.60 3546.00 C 2467.20 3505.20 2946.20 3306.90 2921.70 3300.10 C 2897.20 3293.30 2599.70 3248.50 2632.30 3213.80 C 2664.90 3179.20 2956.40 3158.80 3044.00 3162.90 C 3131.60 3167.00 3137.80 3117.50 3137.80 3117.50 L 1016.10 3117.50 Z" fill="#572658" fill-rule="nonzero" node-id="310" stroke="none" target-height="469.30005" target-width="2121.7002" target-x="1016.1" target-y="3117.4"></path><path d="M 1777.00 3300.00 L 2349.00 3444.10 L 2340.90 3488.90 L 1777.00 3348.90 Z" fill="#152a52" fill-rule="nonzero" group-id="3" node-id="314" stroke="none" target-height="188.8999" target-width="572" target-x="1777" target-y="3300"></path><path d="M 2386.70 3155.70 L 1777.00 3300.00 L 2349.00 3444.10 L 2860.60 3281.00 Z" fill="#6584c6" fill-rule="nonzero" group-id="3" node-id="316" stroke="none" target-height="288.40015" target-width="1083.6001" target-x="1777" target-y="3155.7"></path><path d="M 2482.30 3227.50 L 2030.10 3334.50 L 2341.20 3406.80 L 2720.60 3285.90 Z" fill="#ffffff" fill-opacity="0.5" fill-rule="nonzero" group-id="3,13" node-id="320" stroke="none" target-height="179.30005" target-width="690.5001" target-x="2030.1" target-y="3227.5"></path><path d="M 2850.40 3321.10 L 2340.90 3488.90 L 2349.00 3444.10 L 2860.60 3281.00 Z" fill="#203c75" fill-rule="nonzero" group-id="3" node-id="323" stroke="none" target-height="207.8999" target-width="519.7002" target-x="2340.9" target-y="3281"></path><path d="M 2536.50 2918.20 L 2349.00 3427.80 L 2366.00 3442.50 L 2860.60 3268.80 L 3065.40 2792.40 L 3050.10 2777.60 Z" fill="#152a52" fill-rule="nonzero" group-id="3" node-id="325" stroke="none" target-height="664.8999" target-width="716.3999" target-x="2349" target-y="2777.6"></path><path d="M 2551.80 2933.00 L 2364.30 3442.50 L 2875.90 3283.50 L 3065.40 2792.40 Z" fill="#3b546b" fill-rule="nonzero" group-id="3" node-id="327" stroke="none" target-height="650.1001" target-width="701.09985" target-x="2364.3" target-y="2792.4"></path><path d="M 2395.50 545.30 L 2069.10 816.90 L 1369.40 816.90 C 1360.90 806.10 1351.80 795.50 1342.40 785.10 C 1260.10 694.40 1148.60 613.50 1150.60 460.30 C 1152.50 317.90 1251.00 217.60 1268.80 199.40 C 1451.20 13.70 1802.30 32.80 2039.20 150.50 C 2244.70 252.60 2272.50 383.40 2370.20 513.70 C 2378.20 524.30 2386.60 534.80 2395.50 545.30 Z" fill="url(#SVGID_5_)" fill-rule="nonzero" node-id="330" stroke="none" target-height="803.2" target-width="1246.9" target-x="1148.6" target-y="13.7"></path><path d="M 766.30 2870.70 C 802.00 2678.50 801.20 2466.80 778.30 2243.40 L 802.80 2249.70 C 826.50 2474.20 831.90 2685.50 791.90 2863.80 L 766.30 2870.70 Z" fill="#572658" fill-rule="nonzero" group-id="4" node-id="334" stroke="none" target-height="627.30005" target-width="65.60004" target-x="766.3" target-y="2243.4"></path><path d="M 662.70 2953.40 C 634.90 2929.80 623.10 2887.00 626.10 2849.00 C 593.30 2855.30 573.20 2861.20 573.20 2861.20 L 573.20 3116.60 L 958.40 3116.60 C 959.40 3091.20 959.90 3059.10 959.30 3019.90 C 858.20 3047.90 743.00 3018.10 662.70 2953.40 Z" fill="#572658" fill-rule="nonzero" group-id="4" node-id="336" stroke="none" target-height="267.6001" target-width="386.7" target-x="573.2" target-y="2849"></path><path d="M 662.70 2953.40 C 743.00 3018.10 858.20 3048.00 959.30 3019.90 C 958.60 2976.10 956.60 2923.50 952.30 2861.20 C 834.30 2819.10 698.90 2835.00 626.20 2849.00 C 623.00 2887.00 634.80 2929.80 662.70 2953.40 Z" fill="#d9d9d9" fill-rule="nonzero" group-id="4" node-id="338" stroke="none" target-height="228.8999" target-width="336.3" target-x="623" target-y="2819.1"></path><path d="M 782.50 2179.40 C 777.70 2177.10 772.30 2175.10 766.30 2173.60 C 766.30 2173.60 685.90 2189.90 661.50 2291.80 C 637.00 2393.70 624.80 2505.10 666.90 2505.10 C 669.30 2505.10 672.30 2504.10 675.60 2502.30 C 692.50 2429.90 714.60 2363.80 719.90 2292.90 C 724.70 2249.20 754.40 2213.70 782.50 2179.40 Z" fill="#127755" fill-rule="nonzero" group-id="4" node-id="340" stroke="none" target-height="331.5" target-width="157.70001" target-x="624.8" target-y="2173.6"></path><path d="M 782.50 2179.40 C 754.40 2213.70 724.70 2249.20 719.80 2292.90 C 714.50 2363.80 692.40 2429.90 675.50 2502.30 C 728.50 2473.50 887.40 2229.90 782.50 2179.40 Z" fill="#106347" fill-rule="nonzero" group-id="4" node-id="342" stroke="none" target-height="322.90015" target-width="211.90002" target-x="675.5" target-y="2179.4"></path><path d="M 368.80 2368.90 C 375.60 2373.80 384.00 2376.60 392.40 2377.30 C 405.50 2378.50 418.50 2375.50 431.20 2372.00 C 524.10 2346.50 608.10 2296.70 690.80 2247.40 C 704.20 2239.40 719.00 2229.50 721.60 2214.10 C 722.90 2206.40 745.70 2187.90 762.80 2172.80 C 674.40 2186.50 590.80 2220.40 511.10 2272.90 C 461.00 2305.50 417.40 2338.20 368.80 2368.90 Z" fill="#287a62" fill-rule="nonzero" group-id="4" node-id="344" stroke="none" target-height="205.69995" target-width="394" target-x="368.8" target-y="2172.8"></path><path d="M 779.60 2150.50 L 746.40 2144.50 C 710.60 2120.70 579.30 2122.90 536.50 2127.70 C 494.90 2132.40 457.90 2157.90 430.80 2189.80 C 403.70 2221.70 385.10 2259.70 366.80 2297.30 C 357.40 2316.70 348.00 2340.30 359.20 2358.70 C 361.60 2362.70 364.90 2366.00 368.70 2368.80 C 417.30 2338.10 460.90 2305.50 511.10 2272.90 C 590.70 2220.50 674.30 2186.50 762.80 2172.80 C 775.70 2161.30 785.30 2151.80 779.60 2150.50 Z" fill="#339e7e" fill-rule="nonzero" group-id="4" node-id="346" stroke="none" target-height="248.1001" target-width="437.3" target-x="348" target-y="2120.7"></path><path d="M 723.60 2135.40 L 752.30 2129.10 C 753.00 2109.50 743.20 2091.20 732.70 2074.60 C 679.40 1990.90 598.70 1924.90 506.00 1889.50 C 482.60 1880.50 454.30 1874.10 434.00 1888.80 C 430.90 1891.00 428.20 1893.70 425.80 1896.60 C 540.80 1953.00 652.80 2029.40 723.60 2135.40 Z" fill="#339e7e" fill-rule="nonzero" group-id="4" node-id="348" stroke="none" target-height="261.29993" target-width="327.2" target-x="425.8" target-y="1874.1"></path><path d="M 425.80 1896.60 C 419.00 1905.10 415.10 1916.00 414.10 1926.90 C 412.70 1941.60 416.00 1956.40 420.50 1970.50 C 438.10 2025.70 475.60 2074.40 524.50 2105.50 C 573.40 2136.60 633.30 2150.00 690.80 2142.60 L 723.70 2135.40 C 652.80 2029.40 540.80 1953.00 425.80 1896.60 Z" fill="#287a62" fill-rule="nonzero" group-id="4" node-id="350" stroke="none" target-height="253.40002" target-width="311" target-x="412.7" target-y="1896.6"></path><path d="M 702.70 1695.40 C 699.60 1684.70 692.40 1675.60 684.20 1666.80 C 679.60 1666.70 675.10 1667.00 670.50 1667.90 C 647.30 1672.40 628.40 1690.90 619.10 1712.60 C 609.80 1734.30 608.90 1758.80 611.80 1782.30 C 625.60 1893.80 718.80 1985.40 724.70 2097.60 L 767.70 2131.70 C 789.60 1986.20 743.20 1835.80 702.70 1695.40 Z" fill="#106347" fill-rule="nonzero" group-id="4" node-id="352" stroke="none" target-height="465" target-width="180.69995" target-x="608.9" target-y="1666.7"></path><path d="M 832.70 1759.60 C 807.40 1725.70 772.10 1700.10 734.10 1681.50 C 718.40 1673.80 701.40 1667.20 684.20 1666.80 C 692.40 1675.60 699.60 1684.70 702.70 1695.40 C 743.20 1835.80 789.60 1986.20 767.70 2131.60 L 771.10 2134.30 C 795.60 2074.80 820.00 2015.30 844.50 1955.90 C 854.80 1930.90 865.20 1905.40 868.10 1878.50 C 872.70 1836.40 858.00 1793.50 832.70 1759.60 Z" fill="#127755" fill-rule="nonzero" group-id="4" node-id="354" stroke="none" target-height="467.5" target-width="188.5" target-x="684.2" target-y="1666.8"></path><path d="M 805.60 2124.20 C 804.60 2126.90 803.70 2129.50 802.90 2132.20 L 859.70 2116.10 C 927.10 2109.70 993.70 2093.60 1056.60 2068.70 C 1085.70 2057.20 1115.10 2042.90 1134.30 2018.20 C 1163.00 1981.30 1161.20 1926.40 1136.00 1886.90 C 1044.20 1900.70 961.40 1956.80 882.70 2006.90 C 842.80 2035.60 822.80 2081.40 805.60 2124.20 Z" fill="#106347" fill-rule="nonzero" group-id="4" node-id="356" stroke="none" target-height="245.29993" target-width="360.09998" target-x="802.9" target-y="1886.9"></path><path d="M 993.70 1822.60 C 948.50 1825.80 904.70 1845.60 872.30 1877.30 C 839.70 1909.30 819.30 1952.20 809.00 1996.60 C 798.70 2041.00 798.10 2087.20 800.80 2132.80 L 803.00 2132.20 C 803.80 2129.50 804.60 2126.80 805.70 2124.20 C 822.90 2081.30 842.90 2035.60 882.90 2007.00 C 961.70 1956.90 1044.50 1900.80 1136.20 1887.00 C 1134.10 1883.60 1131.80 1880.40 1129.30 1877.30 C 1097.70 1837.60 1044.20 1819.00 993.70 1822.60 Z" fill="#287a62" fill-rule="nonzero" group-id="4" node-id="358" stroke="none" target-height="313.80005" target-width="338.09998" target-x="798.1" target-y="1819"></path><path d="M 1002.90 2164.30 C 937.10 2148.40 871.30 2159.50 806.90 2156.20 L 779.50 2164.80 C 814.60 2205.40 862.30 2235.00 914.20 2248.40 C 966.20 2261.80 1022.20 2259.00 1072.50 2240.50 C 1073.90 2240.00 1075.20 2239.50 1076.60 2238.90 C 1067.60 2203.80 1045.20 2174.80 1002.90 2164.30 Z" fill="#106347" fill-rule="nonzero" group-id="4" node-id="360" stroke="none" target-height="113.40015" target-width="297.09998" target-x="779.5" target-y="2148.4"></path><path d="M 1109.70 2164.60 C 1090.10 2110.60 1036.80 2070.60 979.50 2066.80 C 922.20 2063.00 864.10 2095.60 837.50 2146.60 L 806.90 2156.20 C 871.30 2159.50 937.10 2148.40 1002.90 2164.30 C 1045.20 2174.90 1067.50 2203.80 1076.70 2238.90 C 1090.20 2233.50 1103.50 2226.00 1110.30 2213.30 C 1118.20 2198.60 1115.40 2180.30 1109.70 2164.60 Z" fill="#127755" fill-rule="nonzero" group-id="4" node-id="362" stroke="none" target-height="175.8999" target-width="311.29993" target-x="806.9" target-y="2063"></path><path d="M 825.60 2270.10 C 816.70 2232.30 794.00 2198.10 765.60 2167.20 L 758.20 2284.80 C 760.20 2350.30 781.60 2415.10 819.10 2468.80 C 831.70 2486.90 846.80 2504.20 866.50 2514.00 C 879.70 2433.40 846.90 2347.80 825.60 2270.10 Z" fill="#287a62" fill-rule="nonzero" group-id="4" node-id="364" stroke="none" target-height="346.80005" target-width="121.5" target-x="758.2" target-y="2167.2"></path><path d="M 945.70 2429.60 C 928.80 2343.40 889.60 2261.70 833.00 2194.60 L 766.30 2156.10 L 765.60 2167.20 C 794.00 2198.10 816.70 2232.30 825.60 2270.10 C 846.80 2347.90 879.60 2433.50 866.50 2514.00 C 867.20 2514.30 867.90 2514.70 868.60 2515.00 C 889.40 2524.50 916.20 2523.70 932.70 2507.90 C 952.70 2488.70 951.00 2456.70 945.70 2429.60 Z" fill="#339e7e" fill-rule="nonzero" group-id="4" node-id="366" stroke="none" target-height="368.3999" target-width="187.10004" target-x="765.6" target-y="2156.1"></path><path d="M 1667.40 2156.00 C 1571.50 2230.30 1496.10 2324.70 1480.40 2450.10 C 1467.10 2554.20 1462.40 2656.50 1462.30 2758.50 L 1507.30 2769.40 C 1507.30 2769.40 1551.10 2604.30 1592.90 2566.60 L 1705.00 2153.20 C 1705.00 2153.30 1690.50 2151.90 1667.40 2156.00 Z" fill="#ef5668" fill-rule="nonzero" group-id="5" node-id="371" stroke="none" target-height="617.5" target-width="242.69995" target-x="1462.3" target-y="2151.9"></path><path d="M 1667.40 2156.00 C 1614.50 2165.50 1516.10 2204.00 1441.40 2354.30 C 1334.10 2570.30 1335.40 2728.00 1335.40 2728.00 L 1462.30 2758.60 C 1462.40 2656.60 1467.10 2554.30 1480.40 2450.20 C 1496.00 2324.70 1571.50 2230.30 1667.40 2156.00 Z" fill="#d1334a" fill-rule="nonzero" group-id="5" node-id="373" stroke="none" target-height="602.6001" target-width="333.30005" target-x="1334.1" target-y="2156"></path><path d="M 1285.60 2761.30 C 1285.60 2761.30 1281.00 2802.60 1303.90 2816.30 C 1326.80 2830.10 1347.20 2793.40 1372.20 2788.80 C 1397.20 2784.20 1470.50 2775.00 1502.60 2802.00 C 1538.80 2799.50 1541.30 2757.20 1523.00 2740.90 C 1504.70 2724.60 1455.20 2700.10 1418.00 2701.20 C 1380.90 2702.20 1292.80 2699.60 1285.60 2761.30 Z" fill="#ffb114" fill-rule="nonzero" group-id="5" node-id="375" stroke="none" target-height="130.5" target-width="260.30005" target-x="1281" target-y="2699.6"></path><path d="M 1960.70 3044.80 C 2025.80 3033.20 2043.60 2981.80 2040.30 2927.70 C 1975.90 2943.50 1888.20 2949.30 1829.30 2888.30 L 1673.70 3114.50 C 1673.70 3114.50 1645.80 3155.90 1679.80 3175.60 C 1687.20 3179.90 1695.70 3184.20 1704.60 3188.40 C 1735.90 3097.30 1862.30 3065.00 1960.70 3044.80 Z" fill="#ffffff" fill-rule="nonzero" group-id="5" node-id="377" stroke="none" target-height="300.09985" target-width="397.79993" target-x="1645.8" target-y="2888.3"></path><path d="M 2040.30 2927.70 C 2043.60 2981.80 2025.80 3033.20 1960.70 3044.80 C 1862.30 3064.90 1735.90 3097.30 1704.70 3188.40 C 1736.90 3203.50 1773.60 3216.40 1773.60 3216.40 C 1773.60 3216.40 1859.90 3191.30 1878.20 3216.40 C 1896.50 3241.50 1895.90 3244.90 1896.50 3241.50 C 1897.10 3238.10 2115.90 2954.10 2117.30 2901.80 C 2105.00 2907.00 2076.30 2918.90 2040.30 2927.70 Z" fill="#d9d9d9" fill-rule="nonzero" group-id="5" node-id="379" stroke="none" target-height="343.09985" target-width="412.6001" target-x="1704.7" target-y="2901.8"></path><path d="M 1586.10 3193.50 C 1629.00 3227.80 1691.90 3245.00 1746.20 3224.90 C 1786.20 3207.70 1832.00 3162.00 1809.10 3119.10 C 1807.80 3116.20 1806.20 3113.50 1804.40 3111.00 C 1774.50 3110.10 1732.60 3130.80 1709.00 3132.80 C 1676.40 3135.50 1673.70 3114.50 1673.70 3114.50 L 1697.50 3079.90 C 1697.50 3079.90 1650.60 3077.20 1618.70 3084.00 C 1584.10 3052.70 1497.10 2877.50 1506.60 2786.40 C 1458.00 2766.50 1415.80 2762.50 1384.90 2763.70 C 1405.80 2922.70 1452.70 3087.80 1586.10 3193.50 Z" fill="#fc9590" fill-rule="nonzero" group-id="5" node-id="381" stroke="none" target-height="482.5" target-width="447.09998" target-x="1384.9" target-y="2762.5"></path><path d="M 1832.00 3124.10 C 1825.80 3115.00 1816.00 3111.50 1804.40 3111.10 C 1806.20 3113.60 1807.80 3116.20 1809.10 3119.20 C 1832.00 3162.10 1786.20 3207.80 1746.20 3225.00 C 1691.90 3245.00 1629.00 3227.90 1586.10 3193.60 C 1452.60 3087.90 1405.70 2922.80 1384.80 2763.90 C 1350.90 2765.30 1330.60 2773.00 1330.60 2773.00 C 1330.60 2773.00 1325.80 2902.10 1448.10 3065.10 C 1570.40 3228.10 1690.60 3279.80 1750.40 3241.70 C 1810.30 3203.60 1854.40 3156.70 1832.00 3124.10 Z" fill="#db6767" fill-rule="nonzero" group-id="5" node-id="383" stroke="none" target-height="515.90015" target-width="528.6" target-x="1325.8" target-y="2763.9"></path><path d="M 2161.30 2099.60 C 2160.80 2088.50 2161.20 2079.20 2163.50 2074.40 C 2120.70 2084.60 2104.40 2116.20 2110.80 2128.40 C 2113.50 2133.40 2124.20 2141.60 2135.80 2149.50 C 2140.30 2131.60 2142.00 2105.20 2161.30 2099.60 Z" fill="#b35555" fill-rule="nonzero" node-id="386" stroke="none" target-height="75.1001" target-width="59.100098" target-x="2104.4" target-y="2074.4"></path><path d="M 2161.30 2099.60 C 2141.90 2105.20 2140.30 2131.60 2135.90 2149.60 C 2152.60 2160.90 2171.30 2171.60 2171.30 2171.60 C 2171.30 2171.60 2162.70 2129.30 2161.30 2099.60 Z" fill="#fc8b86" fill-rule="nonzero" node-id="388" stroke="none" target-height="72" target-width="35.400146" target-x="2135.9" target-y="2099.6"></path><path d="M 1998.50 2100.90 C 1998.50 2100.90 2084.10 2126.40 2147.30 2105.00 C 2210.50 2083.60 2207.40 1844.10 2207.40 1844.10 C 2207.40 1844.10 2195.20 1783.00 2081.00 1765.60 C 1966.90 1748.30 1890.40 1820.60 1884.30 1870.60 C 1878.20 1920.50 1877.20 1958.20 1889.40 1978.60 C 1901.60 1999.00 1902.60 2021.40 1902.60 2021.40 L 1871.10 2123.00 C 1871.10 2123.00 1894.50 2336.30 1956.70 2340.40 C 2018.90 2344.50 2045.40 2207.90 2045.40 2207.90 C 2045.40 2207.90 2076.30 2110.10 2087.20 2106.00" fill="#fc9590" fill-rule="nonzero" node-id="390" stroke="none" target-height="596.19995" target-width="339.40002" target-x="1871.1" target-y="1748.3"></path><path d="M 1966.40 2061.70 C 1966.40 2061.70 2020.50 2110.00 2082.10 2106.00 C 2033.20 2208.90 2039.30 2206.90 2039.30 2206.90 C 2039.30 2206.90 1982.30 2146.60 1966.40 2061.70 Z" fill="#b35555" fill-rule="nonzero" node-id="392" stroke="none" target-height="147.19995" target-width="115.70007" target-x="1966.4" target-y="2061.7"></path><path d="M 1993.70 1925.00 C 1993.70 1925.00 1933.70 1855.70 1902.60 1899.20 C 1871.50 1942.70 1927.10 1977.30 1933.20 1982.10 C 1936.00 2035.10 1902.60 2042.60 1902.60 2042.60 C 1902.60 2042.60 1850.40 1971.90 1858.50 1900.60 C 1866.70 1829.30 1881.60 1711.10 1987.60 1694.10 C 2034.50 1684.60 2080.70 1707.00 2080.70 1707.00 C 2080.70 1707.00 2122.10 1668.30 2166.30 1708.40 C 2210.50 1748.50 2230.20 1823.40 2220.00 1866.40 C 2201.70 1857.10 2176.50 1842.20 2175.10 1827.90 C 2137.10 1828.60 2080.00 1807.50 2077.30 1791.20 C 2060.30 1844.90 2023.60 1855.70 2006.00 1844.90 C 2010.00 1908.70 2015.50 1922.30 1993.70 1925.00 Z" fill="#102140" fill-rule="nonzero" node-id="394" stroke="none" target-height="374.29993" target-width="379.79993" target-x="1850.4" target-y="1668.3"></path><path d="M 1871.10 2123.00 C 1871.10 2123.00 1803.80 2113.70 1768.20 2136.60 C 1802.30 2145.80 1858.40 2294.00 1856.90 2365.40 C 1869.60 2371.00 1889.00 2281.80 1925.20 2303.70 C 1910.50 2293.00 1878.20 2147.50 1871.10 2123.00 Z" fill="#ffb114" fill-rule="nonzero" node-id="396" stroke="none" target-height="257.30005" target-width="157" target-x="1768.2" target-y="2113.7"></path><path d="M 1982.70 2323.60 C 1982.70 2323.60 2040.30 2298.60 2051.00 2361.80 C 2081.60 2319.00 2096.90 2232.90 2096.90 2232.90 L 2028.60 2225.30 C 2028.50 2225.30 2018.80 2282.30 1982.70 2323.60 Z" fill="#ffb114" fill-rule="nonzero" node-id="398" stroke="none" target-height="136.5" target-width="114.19995" target-x="1982.7" target-y="2225.3"></path><path d="M 1934.60 2583.30 C 1934.60 2593.08 1926.68 2601.00 1916.90 2601.00 C 1907.12 2601.00 1899.20 2593.08 1899.20 2583.30 C 1899.20 2573.52 1907.12 2565.60 1916.90 2565.60 C 1926.68 2565.60 1934.60 2573.52 1934.60 2583.30 Z" fill="#ffb114" fill-rule="nonzero" node-id="400" stroke="none" target-height="35.399902" target-width="35.400024" target-x="1899.2" target-y="2565.6"></path><path d="M 1894.40 2777.10 C 1894.40 2784.56 1888.36 2790.60 1880.90 2790.60 C 1873.44 2790.60 1867.40 2784.56 1867.40 2777.10 C 1867.40 2769.64 1873.44 2763.60 1880.90 2763.60 C 1888.36 2763.60 1894.40 2769.64 1894.40 2777.10 Z" fill="#ffb114" fill-rule="nonzero" node-id="402" stroke="none" target-height="27" target-width="27" target-x="1867.4" target-y="2763.6"></path><path d="M 2160.80 2164.30 C 2196.60 2206.80 2190.40 2282.60 2225.70 2323.10 C 2224.80 2320.20 2224.20 2317.70 2223.70 2315.50 C 2211.10 2261.10 2186.90 2196.30 2171.10 2161.80 C 2166.50 2151.70 2162.60 2144.20 2160.00 2140.20 C 2148.30 2122.90 2076.90 2091.30 2059.10 2086.20 C 2041.30 2081.10 1969.90 2104.00 1969.90 2104.00 C 1969.90 2104.00 1968.20 2105.30 1966.30 2107.20 C 2039.00 2081.80 2112.50 2107.90 2160.80 2164.30 Z" fill="#fca9a6" fill-rule="nonzero" node-id="404" stroke="none" target-height="242" target-width="259.3999" target-x="1966.3" target-y="2081.1"></path><path d="M 2312.30 2913.30 C 2289.40 2921.90 2269.40 2901.90 2260.80 2884.70 C 2195.00 2750.30 2177.90 2607.40 2166.50 2461.60 C 2164.30 2440.00 2160.50 2415.10 2151.40 2393.10 C 2174.50 2567.60 2189.00 2867.30 2210.40 2914.20 C 2238.90 2976.70 2310.90 2986.20 2376.20 2906.10 C 2388.60 2890.80 2391.30 2862.50 2387.50 2826.20 C 2374.70 2863.50 2350.90 2895.10 2312.30 2913.30 Z" fill="#db6767" fill-rule="nonzero" node-id="406" stroke="none" target-height="593.09985" target-width="239.90015" target-x="2151.4" target-y="2393.1"></path><path d="M 1969.30 2112.80 C 1967.70 2111.20 1968.70 2108.80 1970.00 2106.00 C 1968.80 2106.40 1967.60 2106.80 1966.40 2107.20 C 1965.60 2108.00 1964.70 2109.00 1963.90 2110.00 C 1961.30 2113.40 1959.60 2117.50 1962.90 2120.80 C 1969.50 2127.40 2015.40 2118.30 2029.10 2115.20 C 2036.20 2113.60 2044.00 2114.80 2051.10 2117.10 C 2031.80 2100.00 1991.80 2122.80 1969.30 2112.80 Z" fill="#db6767" fill-rule="nonzero" node-id="408" stroke="none" target-height="27.399902" target-width="91.50012" target-x="1959.6" target-y="2100"></path><path d="M 2387.60 2826.10 C 2374.70 2863.50 2350.90 2895.10 2312.40 2913.40 C 2289.50 2922.00 2269.50 2902.00 2260.90 2884.80 C 2228.20 2817.90 2207.50 2748.90 2193.50 2678.40 C 2193.50 2678.40 2193.50 2678.40 2193.50 2678.30 C 2193.50 2678.20 2193.50 2678.20 2193.50 2678.10 C 2181.40 2617.10 2174.40 2555.00 2169.10 2492.40 C 2168.20 2482.20 2167.40 2471.90 2166.60 2461.60 C 2164.90 2445.10 2162.30 2426.70 2157.10 2409.10 C 2155.50 2403.60 2153.60 2398.30 2151.40 2393.10 C 2148.90 2374.00 2146.30 2356.30 2143.50 2340.70 C 2137.90 2308.70 2131.70 2285.10 2124.90 2274.20 C 2115.40 2237.50 2083.10 2228.30 2055.60 2239.00 C 2028.10 2249.70 2001.10 2208.90 1983.80 2180.90 C 1977.80 2171.20 1983.40 2161.60 1994.10 2153.20 C 2006.70 2143.30 2026.40 2135.10 2043.00 2130.30 C 2048.40 2128.80 2053.40 2127.60 2057.80 2126.80 C 2061.80 2126.10 2065.20 2125.80 2067.80 2125.80 C 2063.80 2122.60 2057.80 2119.30 2051.10 2117.00 C 2031.90 2099.80 1991.80 2122.70 1969.30 2112.70 C 1967.70 2111.10 1968.80 2108.70 1970.00 2105.90 C 2041.50 2082.60 2113.40 2108.70 2160.90 2164.20 C 2196.70 2206.70 2190.50 2282.50 2225.80 2323.00 C 2247.10 2395.20 2372.00 2677.60 2387.60 2826.10 Z" fill="#fc9590" fill-rule="nonzero" node-id="410" stroke="none" target-height="839.3999" target-width="419.90015" target-x="1967.7" target-y="2082.6"></path><path d="M 2138.40 2301.70 C 2143.50 2323.70 2150.20 2363.40 2157.00 2409.10 C 2155.40 2403.60 2153.50 2398.30 2151.30 2393.10 C 2148.80 2374.00 2146.20 2356.30 2143.40 2340.70 C 2137.80 2308.70 2131.60 2285.10 2124.80 2274.20 C 2115.30 2237.50 2083.00 2228.30 2055.50 2239.00 C 2028.00 2249.70 2001.00 2208.90 1983.70 2180.90 C 1977.70 2171.20 1983.30 2161.60 1994.00 2153.20 C 2006.60 2143.30 2026.30 2135.10 2042.90 2130.30 C 2024.80 2139.40 1992.80 2157.60 1996.70 2171.50 C 2002.10 2190.90 2020.70 2231.90 2051.00 2227.70 C 2081.40 2223.60 2120.40 2224.30 2138.40 2301.70 Z" fill="#db6767" fill-rule="nonzero" node-id="412" stroke="none" target-height="278.80005" target-width="179.30005" target-x="1977.7" target-y="2130.3"></path><path d="M 2193.50 2678.10 C 2181.40 2617.10 2174.40 2555.00 2169.10 2492.40 C 2181.80 2584.40 2192.90 2673.20 2193.50 2678.10 Z" fill="#fc9590" fill-rule="nonzero" node-id="414" stroke="none" target-height="185.7002" target-width="24.399902" target-x="2169.1" target-y="2492.4"></path><path d="M 2809.60 3076.90 C 2801.30 3093.20 2784.50 3101.30 2772.20 3095.00 C 2759.80 3088.70 2756.60 3070.40 2764.90 3054.10 C 2773.20 3037.80 2790.00 3029.70 2802.30 3036.00 C 2814.60 3042.30 2817.90 3060.60 2809.60 3076.90 Z" fill="#6584c6" fill-rule="nonzero" node-id="416" stroke="none" target-height="71.6001" target-width="61.299805" target-x="2756.6" target-y="3029.7"></path><path d="M 758.60 2170.40 C 783.40 2167.10 821.20 2153.20 857.40 2144.60 C 905.30 2133.20 952.30 2048.80 952.70 2017.90 C 865.20 2030.50 781.80 2081.80 758.60 2170.40 Z" fill="#106347" fill-rule="nonzero" node-id="418" stroke="none" target-height="152.49988" target-width="194.10004" target-x="758.6" target-y="2017.9"></path><path d="M 949.20 2007.70 C 931.20 1995.00 861.30 1948.40 799.40 2032.70 C 737.60 2116.90 758.20 2132.30 758.20 2132.30 C 761.90 2139.00 745.30 2172.20 758.60 2170.40 C 781.70 2081.80 865.10 2030.50 952.70 2017.90 C 952.70 2013.00 951.70 2009.40 949.20 2007.70 Z" fill="#339e7e" fill-rule="nonzero" node-id="420" stroke="none" target-height="223.79993" target-width="215.10004" target-x="737.6" target-y="1948.4"></path><path d="M 773.10 2130.20 C 757.40 2119.00 693.40 2080.80 691.80 2198.70 C 691.30 2232.50 696.50 2245.10 704.40 2245.10 C 707.10 2191.90 717.60 2134.50 773.10 2130.20 Z" fill="#339e7e" fill-rule="nonzero" node-id="422" stroke="none" target-height="164.30005" target-width="81.79999" target-x="691.3" target-y="2080.8"></path><path d="M 704.40 2245.20 C 728.00 2245.20 776.60 2132.80 776.60 2132.80 C 776.60 2132.80 775.30 2131.80 773.10 2130.20 C 717.60 2134.50 707.10 2191.90 704.40 2245.20 Z" fill="#287a62" fill-rule="nonzero" node-id="424" stroke="none" target-height="115" target-width="72.19995" target-x="704.4" target-y="2130.2"></path><path d="M 807.00 2131.10 C 807.00 2131.10 896.90 2112.10 934.60 2179.40 C 972.30 2246.70 776.60 2144.60 776.60 2144.60 L 807.00 2131.10 Z" fill="#339e7e" fill-rule="nonzero" node-id="426" stroke="none" target-height="134.59985" target-width="195.70001" target-x="776.6" target-y="2112.1"></path><path d="M 643.40 1341.60 C 643.40 1410.91 587.21 1467.10 517.90 1467.10 C 448.59 1467.10 392.40 1410.91 392.40 1341.60 C 392.40 1272.29 448.59 1216.10 517.90 1216.10 C 587.21 1216.10 643.40 1272.29 643.40 1341.60 Z" fill="url(#SVGID_6_)" fill-rule="nonzero" node-id="428" stroke="none" target-height="251" target-width="251.00003" target-x="392.4" target-y="1216.1"></path><path d="M 925.80 3488.90 C 925.80 3611.18 826.68 3710.30 704.40 3710.30 C 582.12 3710.30 483.00 3611.18 483.00 3488.90 C 483.00 3366.62 582.12 3267.50 704.40 3267.50 C 826.68 3267.50 925.80 3366.62 925.80 3488.90 Z" fill="url(#SVGID_7_)" fill-rule="nonzero" node-id="430" stroke="none" target-height="442.80005" target-width="442.8" target-x="483" target-y="3267.5"></path><path d="M 2999.60 3873.90 C 2999.60 3909.91 2970.41 3939.10 2934.40 3939.10 C 2898.39 3939.10 2869.20 3909.91 2869.20 3873.90 C 2869.20 3837.89 2898.39 3808.70 2934.40 3808.70 C 2970.41 3808.70 2999.60 3837.89 2999.60 3873.90 Z" fill="url(#SVGID_8_)" fill-rule="nonzero" node-id="432" stroke="none" target-height="130.40015" target-width="130.40015" target-x="2869.2" target-y="3808.7"></path><path d="M 3779.10 1590.50 C 3779.10 1666.55 3717.45 1728.20 3641.40 1728.20 C 3565.35 1728.20 3503.70 1666.55 3503.70 1590.50 C 3503.70 1514.45 3565.35 1452.80 3641.40 1452.80 C 3717.45 1452.80 3779.10 1514.45 3779.10 1590.50 Z" fill="url(#SVGID_9_)" fill-rule="nonzero" node-id="434" stroke="none" target-height="275.3999" target-width="275.40015" target-x="3503.7" target-y="1452.8"></path><path d="M 1899.30 687.10 C 1899.30 708.14 1837.47 725.20 1761.20 725.20 C 1684.93 725.20 1623.10 708.14 1623.10 687.10 C 1623.10 666.06 1684.93 649.00 1761.20 649.00 C 1837.47 649.00 1899.30 666.06 1899.30 687.10 Z" fill="#b080b0" fill-rule="nonzero" node-id="436" stroke="none" target-height="76.20001" target-width="276.20007" target-x="1623.1" target-y="649"></path><path d="M 1899.30 709.50 C 1899.30 730.54 1837.47 747.60 1761.20 747.60 C 1684.93 747.60 1623.10 730.54 1623.10 709.50 C 1623.10 688.46 1684.93 671.40 1761.20 671.40 C 1837.47 671.40 1899.30 688.46 1899.30 709.50 Z" fill="#ffffff" fill-rule="nonzero" node-id="438" stroke="none" target-height="76.19995" target-width="276.20007" target-x="1623.1" target-y="671.4"></path><path d="M 1120.70 1193.70 L 1803.90 1193.70 C 1884.20 1193.70 1949.20 1258.80 1949.20 1339.00 L 1949.20 1401.80 C 1949.20 1482.00 1884.20 1547.00 1804.00 1547.10 L 1837.70 1687.80 C 1842.20 1706.70 1818.00 1718.70 1805.70 1703.60 L 1679.00 1547.10 L 1120.70 1547.10 C 1040.40 1547.10 975.40 1482.00 975.40 1401.80 L 975.40 1339.00 C 975.40 1258.70 1040.40 1193.70 1120.70 1193.70 Z" fill="#ffffff" fill-rule="nonzero" group-id="6" node-id="442" stroke="none" target-height="525" target-width="973.7999" target-x="975.4" target-y="1193.7"></path><path d="M 1087.90 1434.50 C 1141.10 1373.60 1196.40 1334.30 1248.20 1343.50 C 1294.50 1351.70 1299.20 1391.70 1356.90 1410.10 C 1443.30 1437.60 1534.40 1380.30 1547.10 1372.10 C 1615.20 1328.00 1605.60 1288.40 1665.30 1270.20 C 1717.70 1254.30 1781.00 1267.70 1793.00 1270.20 C 1812.40 1274.30 1828.10 1279.60 1839.20 1283.80 C 1839.20 1354.90 1839.20 1426.10 1839.20 1497.20 C 1587.80 1497.20 1336.50 1497.20 1085.10 1497.20 C 1086.10 1476.20 1087.00 1455.30 1087.90 1434.50 Z" fill="url(#SVGID_10_)" fill-rule="nonzero" group-id="6" node-id="444" stroke="none" target-height="242.8999" target-width="754.1" target-x="1085.1" target-y="1254.3"></path><path d="M 1086.40 1468.70 C 1086.40 1468.70 1173.70 1377.40 1317.70 1419.50 C 1461.70 1461.60 1512.50 1313.50 1583.60 1276.80 C 1654.70 1240.10 1741.60 1267.60 1768.10 1284.40 C 1794.60 1301.20 1839.30 1325.70 1839.30 1325.70 L 1839.30 1513.20 L 1085.20 1513.20 L 1086.40 1468.70 Z" fill="#ffde70" fill-rule="nonzero" node-id="447" stroke="none" target-height="273.09998" target-width="754.1001" target-x="1085.2" target-y="1240.1"></path><path d="M 1618.40 1284.00 L 1651.10 1243.80 L 1685.60 1284.00 Z" fill="#ef5668" fill-rule="nonzero" node-id="449" stroke="none" target-height="40.19995" target-width="67.19995" target-x="1618.4" target-y="1243.8"></path><path d="M 1658.60 1279.10 L 1658.60 1394.20 L 1643.30 1394.20 L 1643.30 1277.50 Z" fill="#ef5668" fill-rule="nonzero" node-id="451" stroke="none" target-height="116.69995" target-width="15.299927" target-x="1643.3" target-y="1277.5"></path></svg>