<?xml version="1.0" standalone="no"?><!DOCTYPE svg PUBLIC "-//W3C//DTD SVG 1.1//EN" "http://www.w3.org/Graphics/SVG/1.1/DTD/svg11.dtd"><svg height="1100" node-id="1" sillyvg="true" template-height="1100" template-width="1101" version="1.1" viewBox="0 0 1101 1100" width="1101" xmlns="http://www.w3.org/2000/svg" xmlns:xlink="http://www.w3.org/1999/xlink"><defs node-id="48"><clipPath id="clip0_2_879" node-id="45"><path d="M 0.00 0.00 L 1100.00 0.00 L 1100.00 1100.00 L 0.00 1100.00 Z" fill="#000000" fill-rule="nonzero" node-id="51" stroke="none" target-height="1100" target-width="1100" target-x="0" target-y="0"></path></clipPath></defs><g clip-path="url(#clip0_2_879)" id="sillyvg_g_0" node-id="55"><path d="M 441.90 862.98 C 441.90 862.98 461.53 938.38 446.72 966.63 C 435.49 979.76 415.65 986.02 399.94 987.97 C 422.78 998.27 476.02 1053.76 528.49 1054.09 C 580.85 1054.42 632.44 999.61 650.91 987.97 C 610.02 988.47 599.51 960.26 599.51 960.26 C 599.51 960.26 599.41 911.89 608.29 867.74 C 570.41 839.04 441.90 862.98 441.90 862.98 Z" fill="#fab5a3" fill-rule="evenodd" node-id="57" stroke="none" target-height="215.38306" target-width="250.97" target-x="399.941" target-y="839.037"></path><path d="M 448.42 894.63 C 448.44 894.75 448.46 894.87 448.48 894.99 C 453.30 900.50 522.29 977.49 626.22 984.07 C 605.54 976.43 599.51 960.26 599.51 960.26 C 599.51 960.26 599.41 911.89 608.29 867.74 C 604.95 865.21 600.91 863.09 596.31 861.33 L 448.42 894.63 Z" fill="#e89a85" fill-opacity="0.348749" fill-rule="nonzero" group-id="1" node-id="61" stroke="none" target-height="122.74603" target-width="177.79398" target-x="448.423" target-y="861.326"></path><path d="M 448.20 964.06 L 381.39 983.45 C 381.39 983.45 421.70 1082.09 523.49 1085.14 C 625.28 1088.19 661.32 983.45 661.32 983.45 C 661.32 983.45 603.68 960.45 604.73 961.26 C 601.70 964.12 598.66 967.02 595.62 969.92 C 571.87 992.60 547.93 1015.44 528.09 1019.86 C 525.62 1019.42 522.53 1018.23 519.00 1016.46 C 494.28 1004.11 448.20 964.06 448.20 964.06 Z" fill="#ffffff" fill-rule="nonzero" node-id="64" stroke="none" target-height="127.73596" target-width="279.927" target-x="381.39" target-y="960.454"></path><path d="M 371.54 1071.09 L 351.67 1138.56 L 699.17 1147.27 L 675.44 1071.09 C 675.44 1071.09 547.10 1071.09 492.45 1071.09 C 437.80 1071.09 371.54 1071.09 371.54 1071.09 Z" fill="#fd8787" fill-rule="evenodd" node-id="66" stroke="none" target-height="76.18005" target-width="347.496" target-x="351.671" target-y="1071.09"></path><path d="M 742.48 602.71 C 742.48 602.71 818.91 533.34 863.94 569.11 C 908.97 604.88 846.36 731.99 755.36 726.35 C 664.37 720.70 742.48 602.71 742.48 602.71 Z" fill="#fab5a3" fill-rule="evenodd" node-id="68" stroke="none" target-height="198.646" target-width="244.599" target-x="664.369" target-y="533.342"></path><path d="M 828.64 606.28 C 827.90 604.26 825.64 603.22 823.61 603.96 C 794.23 614.68 774.54 638.15 764.68 673.95 C 764.11 676.02 765.34 678.17 767.43 678.74 C 769.51 679.31 771.67 678.09 772.24 676.01 C 776.75 659.64 783.35 646.16 792.06 635.50 C 792.44 635.71 792.87 635.87 793.33 635.94 C 806.26 638.06 813.89 643.51 816.85 652.37 C 817.53 654.41 819.75 655.52 821.81 654.84 C 823.86 654.16 824.98 651.95 824.29 649.91 C 820.62 638.95 811.71 631.93 798.07 628.91 C 806.04 621.11 815.45 615.25 826.31 611.28 C 828.34 610.54 829.39 608.30 828.64 606.28 Z" fill="#c26b6b" fill-rule="nonzero" node-id="70" stroke="none" target-height="76.08502" target-width="65.278015" target-x="764.109" target-y="603.222"></path><path d="M 301.82 607.13 C 301.82 607.13 225.39 537.77 180.36 573.54 C 135.33 609.31 197.94 736.41 288.94 730.77 C 379.93 725.13 301.82 607.13 301.82 607.13 Z" fill="#fab5a3" fill-rule="evenodd" node-id="72" stroke="none" target-height="198.646" target-width="244.598" target-x="135.334" target-y="537.768"></path><path d="M 212.32 605.76 C 213.06 603.74 215.31 602.71 217.35 603.45 C 246.73 614.17 266.41 637.63 276.28 673.43 C 276.85 675.51 275.62 677.65 273.53 678.22 C 271.44 678.79 269.29 677.57 268.71 675.49 C 264.20 659.13 257.61 645.64 248.90 634.98 C 248.51 635.20 248.08 635.35 247.62 635.42 C 234.68 637.54 227.06 643.00 224.10 651.86 C 223.41 653.90 221.19 655.00 219.14 654.32 C 217.09 653.64 215.97 651.44 216.66 649.39 C 220.33 638.43 229.24 631.41 242.89 628.39 C 234.92 620.60 225.51 614.73 214.65 610.77 C 212.61 610.03 211.57 607.79 212.32 605.76 Z" fill="#c26b6b" fill-rule="nonzero" node-id="74" stroke="none" target-height="76.08502" target-width="65.277985" target-x="211.57" target-y="602.706"></path><path d="M 240.78 469.75 C 226.73 325.76 333.29 198.15 477.47 186.30 L 520.21 182.78 C 678.16 169.80 810.67 300.38 800.00 458.50 L 784.92 682.06 C 775.74 818.05 662.38 923.45 526.08 922.71 L 521.51 922.73 C 387.60 923.47 275.18 822.05 262.17 688.77 L 240.78 469.75 Z" fill="#ffd4c6" fill-rule="evenodd" node-id="76" stroke="none" target-height="753.671" target-width="583.937" target-x="226.729" target-y="169.797"></path><path d="M 746.13 763.91 C 746.13 781.14 725.07 795.10 699.09 795.10 C 673.11 795.10 652.05 781.14 652.05 763.91 C 652.05 746.69 673.11 732.73 699.09 732.73 C 725.07 732.73 746.13 746.69 746.13 763.91 Z" fill="#ffa2a2" fill-opacity="0.624907" fill-rule="nonzero" group-id="2" node-id="80" stroke="none" target-height="62.375427" target-width="94.08618" target-x="652.0459" target-y="732.7273"></path><path d="M 415.59 763.91 C 415.59 781.14 394.53 795.10 368.54 795.10 C 342.56 795.10 321.50 781.14 321.50 763.91 C 321.50 746.69 342.56 732.73 368.54 732.73 C 394.53 732.73 415.59 746.69 415.59 763.91 Z" fill="#ffa2a2" fill-opacity="0.624907" fill-rule="nonzero" group-id="3" node-id="85" stroke="none" target-height="62.375427" target-width="94.08621" target-x="321.5009" target-y="732.7273"></path><path d="M 239.56 441.07 C 239.44 450.54 239.84 460.11 240.78 469.75 L 254.22 607.41 C 256.90 598.45 260.32 590.37 264.67 585.12 C 280.53 566.00 319.19 562.88 319.19 562.88 L 319.19 454.15 L 239.56 441.07 Z" fill="#65422d" fill-rule="nonzero" node-id="88" stroke="none" target-height="166.34402" target-width="79.744995" target-x="239.443" target-y="441.069"></path><path d="M 800.02 423.18 L 706.41 438.55 L 706.41 547.28 C 706.41 547.28 745.07 550.41 760.93 569.53 C 772.79 583.83 783.23 621.91 787.74 640.20 L 800.00 458.50 C 800.80 446.55 800.79 434.76 800.02 423.18 Z" fill="#65422d" fill-rule="nonzero" node-id="90" stroke="none" target-height="217.02002" target-width="94.39398" target-x="706.411" target-y="423.18"></path><path d="M 486.87 795.00 C 486.87 795.00 506.28 798.65 525.76 798.65 C 545.25 798.65 565.28 790.85 565.28 790.85" fill="none" node-id="92" stroke="#da7b7b" stroke-linecap="round" stroke-width="13.3892" target-height="7.796997" target-width="78.40497" target-x="486.872" target-y="790.85"></path><path d="M 647.60 595.93 L 647.60 595.93 C 662.76 595.93 675.04 608.21 675.04 623.37 L 675.04 637.78 C 675.04 652.94 662.76 665.22 647.60 665.22 L 647.60 665.22 C 632.45 665.22 620.16 652.94 620.16 637.78 L 620.16 623.37 C 620.16 608.21 632.45 595.93 647.60 595.93 Z" fill="#83573d" fill-rule="nonzero" node-id="94" stroke="none" target-height="69.295105" target-width="54.883606" target-x="620.161" target-y="595.927"></path><path d="M 388.87 603.72 L 388.87 603.72 C 404.03 603.72 416.31 616.01 416.31 631.17 L 416.31 645.58 C 416.31 660.73 404.03 673.02 388.87 673.02 L 388.87 673.02 C 373.72 673.02 361.43 660.73 361.43 645.58 L 361.43 631.17 C 361.43 616.01 373.72 603.72 388.87 603.72 Z" fill="#83573d" fill-rule="nonzero" node-id="96" stroke="none" target-height="69.295105" target-width="54.883606" target-x="361.429" target-y="603.724"></path><path d="M 596.96 553.76 C 596.96 553.76 664.66 535.30 689.98 535.83 C 652.02 500.09 596.96 553.76 596.96 553.76 Z" fill="#65422d" fill-rule="evenodd" node-id="98" stroke="none" target-height="53.66803" target-width="93.02399" target-x="596.955" target-y="500.094"></path><path d="M 432.89 553.76 C 432.89 553.76 365.19 535.30 339.87 535.83 C 377.83 500.09 432.89 553.76 432.89 553.76 Z" fill="#65422d" fill-rule="evenodd" node-id="100" stroke="none" target-height="53.66803" target-width="93.02301" target-x="339.87" target-y="500.094"></path><path d="M 520.39 604.26 C 523.40 604.81 525.48 608.22 525.02 611.87 L 524.00 620.10 C 520.20 651.07 517.78 675.16 516.72 692.34 L 516.59 694.54 C 516.07 703.72 515.98 710.71 516.30 715.40 C 516.38 716.65 516.49 717.69 516.62 718.51 L 516.71 719.06 L 516.96 719.13 C 520.78 720.00 528.76 718.81 540.27 715.21 L 544.05 713.98 C 546.98 713.00 550.03 715.08 550.84 718.63 C 551.66 722.19 549.94 725.88 547.00 726.87 C 528.98 732.93 517.32 734.45 510.77 730.68 C 501.93 725.59 503.84 691.68 514.10 609.86 C 514.53 606.49 516.96 604.10 519.70 604.18 L 520.39 604.26 Z" fill="#f28080" fill-rule="nonzero" node-id="102" stroke="none" target-height="130.349" target-width="49.733" target-x="501.926" target-y="604.097"></path><path d="M 933.11 264.45 L 933.11 512.26 L 927.49 512.26 L 927.49 264.45 L 933.11 264.45 Z" fill="#cb2121" fill-rule="evenodd" node-id="104" stroke="none" target-height="247.80399" target-width="5.615967" target-x="927.494" target-y="264.454"></path><path d="M 921.76 358.20 L 921.76 383.56 C 921.76 383.56 928.01 384.69 931.13 384.69 C 934.26 384.69 940.12 383.56 940.12 383.56 L 940.12 358.20 C 940.12 358.20 933.62 357.14 930.52 357.14 C 927.43 357.14 921.76 358.20 921.76 358.20 Z" fill="#bebebe" fill-rule="evenodd" node-id="106" stroke="none" target-height="27.54599" target-width="18.362976" target-x="921.757" target-y="357.142"></path><path d="M 917.80 400.62 C 917.80 400.62 923.74 400.62 929.85 400.62 C 935.96 400.62 943.18 400.62 943.18 400.62 C 943.18 400.62 954.62 726.57 973.23 756.23 C 950.34 765.37 927.78 765.28 911.58 759.78 C 910.01 759.24 909.13 751.17 908.64 750.18 C 908.06 751.47 905.87 755.73 904.25 756.62 C 897.79 754.45 890.59 745.58 890.59 745.58 L 917.80 400.62 Z" fill="#f84646" fill-rule="evenodd" node-id="108" stroke="none" target-height="364.753" target-width="82.63599" target-x="890.589" target-y="400.615"></path><path d="M 908.73 750.43 C 908.70 750.33 908.67 750.24 908.64 750.18 C 908.06 751.47 905.87 755.73 904.25 756.62 C 903.50 756.37 902.74 756.03 901.99 755.62 L 899.77 752.75 C 899.77 752.75 906.67 714.30 908.12 680.94 C 908.97 718.35 908.96 739.09 908.73 750.43 Z" fill="#cb2121" fill-rule="nonzero" node-id="110" stroke="none" target-height="75.686035" target-width="9.197998" target-x="899.774" target-y="680.936"></path><path d="M 949.48 537.29 C 954.65 630.38 962.82 739.64 973.23 756.23 C 952.89 764.35 932.81 765.19 917.23 761.41 C 942.08 728.59 943.80 676.05 945.37 627.88 L 945.37 627.88 C 945.49 624.11 945.61 620.37 945.75 616.66 C 946.71 589.80 948.14 561.29 949.48 537.29 Z" fill="#cb2121" fill-rule="nonzero" node-id="112" stroke="none" target-height="227.89502" target-width="55.99701" target-x="917.229" target-y="537.292"></path><path d="M 104.72 244.95 L 104.72 266.94 L 530.07 378.08 L 945.93 264.45 L 945.93 242.75 L 521.74 111.81 L 104.72 244.95 Z" fill="#120e1c" fill-rule="evenodd" node-id="114" stroke="none" target-height="266.273" target-width="841.208" target-x="104.718" target-y="111.811"></path><path d="M 517.75 132.48 L 104.73 264.45 L 104.72 264.44 L 104.72 244.95 L 521.74 111.81 L 945.93 242.75 L 945.93 264.45 L 517.75 132.48 Z" fill="#231c35" fill-rule="nonzero" node-id="116" stroke="none" target-height="152.643" target-width="841.208" target-x="104.719" target-y="111.811"></path><path d="M 666.05 156.36 L 519.67 133.90 C 519.67 133.90 611.19 178.01 565.28 198.34 C 552.79 203.88 530.62 206.45 503.42 209.61 C 432.21 217.88 326.51 230.16 269.50 310.00 L 530.07 378.08 L 945.93 264.45 L 945.93 242.75 L 666.05 156.36 Z" fill="#000000" fill-rule="nonzero" node-id="118" stroke="none" target-height="244.18202" target-width="676.422" target-x="269.505" target-y="133.902"></path><path d="M 250.91 305.08 C 250.91 305.08 230.03 408.61 233.68 478.70 C 442.19 524.77 682.43 505.93 807.28 465.31 C 804.50 386.21 782.32 305.08 782.32 305.08 C 782.32 305.08 638.54 231.37 515.78 229.02 C 387.55 233.12 250.91 305.08 250.91 305.08 Z" fill="#181324" fill-rule="evenodd" node-id="120" stroke="none" target-height="295.75403" target-width="577.249" target-x="230.029" target-y="229.021"></path><path d="M 674.28 260.63 C 666.04 263.60 593.23 291.82 532.68 380.54 C 490.75 441.99 335.88 461.97 233.32 468.44 C 233.39 471.93 233.51 475.35 233.68 478.70 C 442.19 524.77 682.43 505.93 807.28 465.31 C 804.50 386.21 782.32 305.08 782.32 305.08 C 782.32 305.08 736.39 281.53 674.28 260.63 Z" fill="#000000" fill-opacity="0.456008" fill-rule="nonzero" group-id="4" node-id="124" stroke="none" target-height="264.14304" target-width="573.957" target-x="233.322" target-y="260.632"></path><path d="M 118.50 1147.27 C 118.50 1147.27 118.50 1068.40 148.70 1045.77 C 199.39 1018.72 333.50 979.33 440.84 964.06 C 506.76 1029.33 528.87 1058.20 528.87 1058.20 L 613.26 961.26 C 613.26 961.26 873.86 1018.84 913.20 1058.20 C 938.50 1083.53 936.65 1128.74 938.50 1147.27 C 605.37 1152.84 118.50 1147.27 118.50 1147.27 Z" fill="#120e1c" fill-rule="evenodd" node-id="127" stroke="none" target-height="191.57794" target-width="820" target-x="118.498" target-y="961.262"></path><path d="M 672.12 1149.61 C 573.60 1149.90 475.45 1149.69 389.75 1149.30 L 370.24 1030.04 L 430.41 976.05 L 447.88 971.06 C 508.35 1031.39 528.87 1058.20 528.87 1058.20 L 606.92 968.54 L 625.97 976.05 L 686.02 1054.09 L 672.12 1149.61 Z" fill="#f84646" fill-rule="nonzero" node-id="129" stroke="none" target-height="181.35504" target-width="315.77896" target-x="370.243" target-y="968.545"></path><path d="M 421.48 961.26 C 404.04 964.46 234.01 1000.38 170.19 1032.96 C 358.89 1029.53 533.69 1154.08 533.69 1154.08 C 533.69 1154.08 666.28 1036.14 889.57 1041.00 C 831.36 1005.08 676.27 968.69 626.75 961.26 C 568.37 1030.58 528.87 1079.45 528.87 1079.45 C 528.87 1079.45 450.13 987.16 421.48 961.26 Z" fill="#1e1631" fill-rule="evenodd" node-id="131" stroke="none" target-height="192.81793" target-width="719.388" target-x="170.185" target-y="961.262"></path><path d="M 674.99 970.58 C 654.99 966.19 638.10 962.97 626.75 961.26 C 568.37 1030.58 528.87 1079.45 528.87 1079.45 C 528.87 1079.45 450.13 987.16 421.48 961.26 C 416.33 962.21 397.87 966.00 372.77 971.73 L 532.89 1128.63 L 674.99 970.58 Z" fill="#ffe079" fill-rule="nonzero" node-id="133" stroke="none" target-height="167.36798" target-width="302.218" target-x="372.772" target-y="961.262"></path><path d="M 766.82 659.27 C 766.82 712.15 719.93 755.68 661.23 755.68 C 602.53 755.68 555.64 712.15 555.64 659.27 C 555.64 606.39 602.53 562.86 661.23 562.86 C 719.93 562.86 766.82 606.39 766.82 659.27 Z" fill="none" node-id="135" stroke="#1e1631" stroke-linecap="butt" stroke-width="9.18182" target-height="192.818" target-width="211.182" target-x="555.636" target-y="562.864"></path><path d="M 491.36 659.27 C 491.36 712.15 444.47 755.68 385.77 755.68 C 327.07 755.68 280.18 712.15 280.18 659.27 C 280.18 606.39 327.07 562.86 385.77 562.86 C 444.47 562.86 491.36 606.39 491.36 659.27 Z" fill="none" node-id="137" stroke="#1e1631" stroke-linecap="butt" stroke-width="9.18182" target-height="192.818" target-width="211.182" target-x="280.182" target-y="562.864"></path><path d="M 489.98 665.22 C 489.98 665.22 504.70 655.04 523.50 655.04 C 542.30 655.04 554.26 665.22 554.26 665.22" fill="none" node-id="139" stroke="#1e1631" stroke-linecap="butt" stroke-width="9.18182" target-height="10.180969" target-width="64.27298" target-x="489.983" target-y="655.041"></path><path d="M 804.21 548.05 L 767.61 666.26" fill="none" node-id="141" stroke="#1e1631" stroke-linecap="round" stroke-width="9.18182" target-height="118.208984" target-width="36.599976" target-x="767.607" target-y="548.052"></path><path d="M 242.79 547.86 L 279.39 666.07" fill="none" node-id="143" stroke="#1e1631" stroke-linecap="round" stroke-width="9.18182" target-height="118.209045" target-width="36.600006" target-x="242.793" target-y="547.858"></path><path d="M 528.85 1059.99 C 528.85 1059.99 483.19 1018.06 464.71 1017.37 C 446.22 1016.68 444.12 1090.82 464.71 1090.82 C 485.29 1090.82 528.85 1059.99 528.85 1059.99 Z" fill="#ff5a5a" fill-rule="evenodd" node-id="145" stroke="none" target-height="74.13995" target-width="84.725006" target-x="444.124" target-y="1016.68"></path><path d="M 523.50 1059.99 C 523.50 1059.99 569.16 1018.06 587.64 1017.37 C 606.13 1016.68 608.23 1090.82 587.64 1090.82 C 567.06 1090.82 523.50 1059.99 523.50 1059.99 Z" fill="#ff5a5a" fill-rule="evenodd" node-id="147" stroke="none" target-height="74.13995" target-width="84.72504" target-x="523.503" target-y="1016.68"></path></g></svg>